<?xml version="1.0" encoding="utf-8"?>
<!-- Generator: Adobe Illustrator 19.2.1, SVG Export Plug-In . SVG Version: 6.00 Build 0)  -->
<svg version="1.1" id="Calque_1" xmlns:figma="http://www.figma.com/figma/ns"
	 xmlns="http://www.w3.org/2000/svg" xmlns:xlink="http://www.w3.org/1999/xlink" x="0px" y="0px" viewBox="0 0 438 484"
	 style="enable-background:new 0 0 438 484;" xml:space="preserve">
<style type="text/css">
	.st0{opacity:0.92;}
	.st1{fill:#FFFFFF;}
	.st2{opacity:0.4;}
</style>
<title>France</title>
<desc>Created using Figma</desc>
<g id="Canvas" transform="translate(-14145 -227)" figma:type="canvas">
	<g id="France" figma:type="frame" class="st0">
		<g id="Vector" figma:type="vector">
			<g transform="translate(14353.7 227)">
				<path id="path0_fill" class="st1" d="M14021.1,217.6c0.6,0,1.2,0,1.8,0c0.8,1.7,1.5,3.3,2.3,5c0.4,1,0.3,1.8-0.2,2.7
					c-0.9,1.6-0.8,3.3,0.1,4.8c0.2,0.4,0.9,0.9,1.3,0.9c2.1-0.1,2.9,1.3,3.6,3c0.2,0.6,0.5,1.2,0.9,1.7c1,1.4,2.7,1.5,3.7,0.1
					c1.9-2.6,4.8-2.8,7.4-3.2c0.8,1,1.2,2,2,2.5c1.6,1.1,1.7,2.5,1.7,4.2c0,0.9,0,1.8,0.1,2.7c0.2,1.2,0.4,2.4,0.6,3.6
					c0.9,0.2,1.6,0.2,2.2,0.4c0.7,0.3,1.2,0.7,1.8,1.1c1.1-0.4,2.1-0.8,2.9-1.2c0.9,0.4,1.6,1,2.3,0.9c1.4-0.2,2,0.6,2.7,1.4
					c0.7,0.9,1.5,1.6,1.4,2.9c-0.1,1.6,0,3.2,0,5.3c0.8-0.5,1.4-0.7,1.8-1.1c0.4-0.6,0.8-1,1.6-1c2.5-0.1,5-0.3,7.5-0.4
					c0.6,0,1.4,0.1,1.8,0.5c1.5,1.1,2.9,2.2,4.3,3.4c0.5,0.4,0.7,1,1.3,1.8c-2.9,0.8-2.8,3.1-3.2,5.3c0.9,0.3,1.9,0.6,2.9,1
					c0.2,1,0.3,2,0.5,3c-0.9,0.5-1.6,1-2.2,1.4c-1.4,0.9-1.4,0.9-0.7,2.6c0.9,0.1,1.9,0.2,2.9,0.3c-0.8,2.1-0.3,3.8,0.9,5.4
					c-1.7,1.3-1.7,3.1-1.3,4.8c0.5,2,0.5,2.2-1.2,3.2c-0.4,0.3-0.9,0.5-1.4,0.8c-0.1,0.7-0.2,1.4-0.4,2.1c-1.7,0.5-3.9,0.4-3.5,3
					c0.7,0.5,1.3,0.9,1.6,1.1c-0.3,3.4-0.6,6.5-0.8,9.7c-1.2-0.6-2.3-1.5-3.4-1.5c-1.2,0-2.7,0.4-2.6,2.3c-0.7,0-1.3,0-1.9,0.1
					c-2,0.3-3.6,1.4-4.4,3c-0.7,1.3-0.4,3.2-0.1,4.8c0.1,0.7,1.2,1.2,1.8,1.8c0.2,0.2,0.4,0.4,0.7,0.8c-1.2,0.2-2.2,0.3-3.1,0.5
					c-0.9,1.3-1.2,2.4,0.2,3.5c-0.7,0.5-1.3,0.9-1.9,1.3c0.2,0.7,0.5,1.3,0.7,1.9c0.8,0.1,1.6,0.2,2.2,0.2c-0.6,1.3-1.1,2.5-1.7,3.6
					c-0.3,0.5-0.6,1.2-1,1.3c-1.5,0.5-2.4,1.6-3,2.9c-1.4,0.1-2.3-0.2-2.7-1.5c-0.1-0.3-0.4-0.7-0.7-0.8c-2.1-0.7-3.2-2.6-4.8-3.8
					c-0.8-0.7-1.2-1.5-1.2-2.5c0.1-2.2-1.1-3.4-3.1-4.1c-1.5,0.8-2.8,2.2-4.8,1.6c-0.3-0.1-0.7,0.2-1,0.4c-1,0.6-1.9,0.6-2.9-0.1
					c-0.4-0.3-0.9-0.4-1.3-0.6c-1.7,1.7-1.7,1.7-3.5,0.6c-0.6-0.3-1.2-0.6-1.7-1c-0.7,0.4-1.4,0.8-1.8,1c-2.4-1.4-4.8-2.7-7-4.1
					c-1.3-0.8-2.5-1-3.9-0.2c-1.2,0.7-2.3,0.5-3.4-0.4c-0.9-0.7-2-1.2-2.8-1.8c-1.2,0.7-2,1.4-3.1,1.8c-2.1,0.7-4.3,0.3-6.4,0
					c-0.4,0-0.8-0.4-1-0.7c-0.4-0.7-0.7-1.4-1.1-2.2c1.1-0.3,2.1-0.5,2.9-0.7c-0.4-1.8-0.8-3.3-1.2-4.7c-0.2-0.8-0.4-1.6-0.9-2.1
					c-0.6-0.7-0.6-1.3-0.2-2c0.6-1.1,1.2-2.2,1.8-3.3c0.1-0.2,0-0.4,0.1-0.6c-0.6-0.2-1.1-0.3-1.6-0.5c-0.1-0.9,0-1.9-0.4-2.5
					c-0.9-1.4-0.6-2.8-0.2-4.3c0.2-0.9,0.6-1.8,0.8-2.5c-0.5-0.3-0.8-0.5-1.2-0.7c0.1-0.2,0.2-0.3,0.4-0.4c0.6-0.8,1.2-1.6,1.7-2.3
					c-0.7-1.8-1.5-3.4-1.9-5.1c-0.3-1.3-0.9-2.3-1.8-3.2c-2.5-2.6-5.6-4.8-7.5-8.1c-1,0-1.9-0.1-3.3-0.2c2-2.4,3.6-4.4,5.3-6.5
					c1.7,0.9,3.1,1.8,4.6,2.6c0.4-1.2,0.2-2-0.6-2.6c-0.6-0.5-1.1-1-1.6-1.5c-1.1-0.8-1.4-1.7-1.3-3c0.3-2.8,0.4-5.6,0.4-8.4
					c0-6,0-12,0-18c0-0.7,0-1.7,0.4-2.1c2.4-2,4.9-3.8,7.4-5.7c0.3-0.2,0.8-0.2,1.3-0.3c5.4-1,10.9-1.8,16.3-3
					C14017.9,219.4,14019.5,218.3,14021.1,217.6z"/>
			</g>
		</g>
		<g id="Vector_1_" figma:type="vector">
			<g transform="translate(14233 425.562)">
				<path id="path1_fill" class="st1" d="M13890.4,466.5c-0.4,0-0.7-0.1-1,0c-1.8,0.3-3.3-0.2-4.7-1.4c-1.1-1-2.3-1.8-4-1.7
					c-1.5,0.1-1.6-1.4-2.4-2.3c2.8-1.6,3.9-1.2,5.1,1.9c0.7,0.1,1.5,0.2,2.3,0.3c0.5,0.1,1.2,0.2,1.4,0.5c1,1.4,2.3,1,3.2,0.8
					c1.1-1.3,2-2.3,2.8-3.3c0.4-0.5,0.6-1.1,0.8-1.7c3.9-2.8,3.9-2.8,6.1-2.8c0.4,0.8,0.8,1.6,1.3,2.7c1.2-0.5,2.3-0.9,3.5-1.4
					c1,0.7,1.9,1.3,2.8,1.9c3.3-0.9,6-2.6,8.5-4.9c-0.9-1-1.8-2-2.8-3c0.7-0.9,0.4-2-0.4-3c1.1-3.3,0.6-6.3-1.3-9.2
					c0.1-0.3,0.3-0.6,0.5-0.9c0.1-0.2,0.3-0.5,0.5-0.9c-0.9-1.1-1.7-2.1-2.6-3.2c0.3-0.7,0.5-1.4,0.8-2.3c-1-0.9-2.1-1.8-3.1-2.7
					c-0.7-0.5-1-1.1-1.2-2c-0.1-1-0.6-1.9-1-2.9c1.3-0.9,2.6-1.4,4.3-0.7c0.5,0.2,1.2,0.2,1.7,0.4c1.8,0.8,3.2-0.3,4.3-1.4
					c0.5-0.5,0.5-1.4,0.8-2.4c3.6-0.4,7.4-0.9,11.2-1.3c0.5,0,1.1,0.3,1.5,0.6c0.6,0.5,1.2,1.1,2,1.9c1.4-2.3,2.9-4.3,5.2-6.1
					c0.4,1,0.7,1.9,1.1,2.8c0.8,0.2,1.8,0.4,2.8,0.7c0.2,0.6,0.3,1.3,0.5,2.1c1.2,0.4,2.5,0.8,3.9,1.3c0,1.8,0,3.5,0,5.3
					c3.8,0.5,7.3,0.2,10.9-1.1c0-0.6,0.1-1.2,0.1-2c0.2,0.1,0.4,0.1,0.6,0.2c1.6,1.1,2.3,2.7,2.7,4.6c0.2,0.9,1,1.8,1.7,2.5
					c0.9,1,1.6,1.8,1.7,3.2c0.1,0.7,0.7,1.5,1.3,2c2.2,1.7,2.2,3.8,1.5,6.1c-0.1,0.4-0.2,0.7-0.3,1.1c1.7,1.5,3.4,3.1,5.2,4.5
					c0.6,0.5,1.6,0.6,2.8,0.9c0.2,0.5,0.4,1.3,0.7,2c0.3,0.6,0.7,1.3,1.2,1.8c1.2,1.1,1.2,1.3-0.1,2.5c-0.2,0.1-0.2,0.3-0.4,0.5
					c1.3,1.4,5,1.4,6.9,0.1c0.9,0.8,1.8,1.6,2.8,2.5c1.2-1.3,2.3-2.6,3.2-3.5c2.9,0.3,5.5,0.5,8.1,0.8c0.4-1,0.8-1.8,1.3-2.8
					c2.9,0.4,5.8,0.6,8.7,1.2c2.1,0.5,4.2,0.6,6.4,0.2c0.6-0.1,1.3-0.1,1.9-0.1c1,1.2,1.8,2.2,1.8,3.8c0.1,1,0.9,1.9,1.5,2.9
					c0.6-0.4,1-0.7,1.3-0.8c0.9,0.7,1.8,1.2,2.5,1.8c0.4,0.3,0.8,0.7,1,1.1c0.8,1.8,1.6,3.6,1.5,5.7c-0.1,1.6,0.1,3.2,1.3,4.5
					c0.6,0.7,0.6,1.9,0.9,2.9c-1.2,1-2.3,1.8-2.4,3.4c0,0.4-0.7,0.9-1.2,1.2c-1.3,0.8-2.7,1.6-4,2.3c-0.3,1.4,0.2,2.5,1.2,3.4
					c0.8,0.7,1.6,1.5,2.3,2.4c1.1,1.2,1.2,2.2,0.4,3.6c-1.2,1.9-1.4,3.7-0.1,5.8c0.6,1,0.6,2.4,0.4,3.6c-0.3,1.5-0.7,2.8,0.2,4.2
					c-0.8,1.1-1.5,0.8-2.3,0.1c-1-0.9-2-1.6-3.2-2.5c-0.9,1.5-0.6,2.8-0.6,4.1c0,1.1-0.3,1.8-1.3,2.3c-1.7,0.8-2.7,2.3-3.6,3.8
					c-0.4,0.7-0.5,1.7-0.3,2.5c0.5,1.8-0.7,3.1-1.1,4.6c0,0.2-0.3,0.3-0.5,0.4c-0.9,0.7-1.8,1.4-2.8,2.1c0.7,1.1,1.2,1.9,1.7,2.6
					c-0.7,1.1-1.5,0.9-2.3,0.6c-1.3-0.5-2.6-0.6-3.7,1.1c-0.4-0.6-0.7-1-1-1.4c-0.2,0.1-0.4,0.1-0.6,0.3c-0.8,0.8-1.5,1.6-2.4,2.3
					c-1.1,1-1.6,0.9-2.5-0.3c-0.2-0.3-0.5-0.6-0.6-0.9c-1.2-2.2-3-3.5-5.3-4.4c-1.1-0.4-2.1-0.6-3.1,0c-0.7,0.4-1.5,0.7-2.2,1
					c-2.4,1-3,3.1-1.4,5.2c0.1,0.2,0.2,0.4,0.5,0.8c-1.1,1.4-2.1,2.9-3.4,4.5c-0.7,0.1-1.5,0.3-2.5,0.5c0.1,1.2,0.2,2.2,0.3,3.6
					c-0.5,2.8-3.3,1.9-5.1,2.4c-0.4,1.3-0.6,2.4-1.1,3.4c-0.5,1-1.2,1.8-1.9,2.9c-1,0.1-2.1,0.2-3.5,0.4c0.7,3.1,1.4,6.1,2.8,8.9
					c-1.1,0.6-2.1,0.8-3.1,0.4c-0.9-0.4-1.7-0.9-2.7-1.5c-0.5,1.6-1,3-1.4,4.4c-0.1,0.4,0.2,1,0.4,1.4c0.3,0.6,1.1,1.2,1.1,1.8
					c0,0.9-0.3,2-0.8,2.7c-0.7,0.9-0.9,1.8-0.4,2.8c-1.9,0.5-3.7,1-5.6,1.5c0.1,0.8,0.2,1.5,0.3,2.3c-0.5,0.3-1.1,0.6-1.5,0.9
					c-0.2-0.1-0.3-0.1-0.3-0.1c-2-2.9-4.9-1.7-7.5-1.4c-0.5,0.1-1,0.8-1.3,1.3c-0.5,0.9-1.1,1.2-2.1,1.3c-1.2,0.1-2.5,0.3-3.9,0.5
					c-0.5-0.5-0.9-1.1-1.6-1.8c-1,0.9-1.9,1.8-2.9,2.7c-0.8-0.6-1.5-1-2.5-1.8c-0.6,1.9-1.2,3.7-1.8,5.5c-1-0.1-1.1-1-1.4-1.7
					c-0.2-0.7-0.5-1.4-0.8-2.2c-0.6,0.4-1.1,0.7-1.5,1.1c-0.8,0.8-1.5,1-2.7,0.8c-2-0.4-2.6,0.1-4.6,2.9c0.5,1,1.1,2.1,1.8,3.3
					c-1,0.9-1.1,2-0.9,3.3c0.1,0.6-0.2,1.4-0.5,2c-0.4,1-0.9,2-1.5,2.9c-1.2,1.8-0.2,3.1,0.8,4.4c0.2,0.4,0.9,0.6,1.3,0.6
					c3.3-0.4,5,1.5,6,4.5c0.1,0.4-0.9,1.1-1.6,1.9c1.1,1.7,2.2,3.4,3.2,4.9c-1.3,2.7-2.4,5.1-3.6,7.6c-0.4,0.7-0.9,1.3-1.5,1.9
					c-1.2,1.2-2.5,2.2-3.8,3.3c0.3,0.9,0.6,1.6,0.9,2.6c-1.1-0.1-2-0.2-3.2-0.4c-0.2,1.3-0.3,2.5-0.5,3.7c-0.2,1.1-0.2,2.2-1.2,3.2
					c-0.6,0.5-0.6,1.8-0.7,2.7c-0.3,2.2-2.5,3.7-4.8,3.4c-1.2-0.1-2.4,0.4-3.9,0.6c-1.7-1.4-3.8-3.1-5.8-4.9
					c-0.3-0.3-0.4-0.9-0.5-1.4c-0.2-0.8-0.2-1.6-0.4-2.5c-1.7,0-3.3-0.1-4.8,0c-1.2,0.1-2.3-0.2-3.3-1c-1.6-1.2-3.3-1.9-5.3-2
					c-1-0.1-1.6-0.5-2.2-1.2c-0.4-0.4-1-0.8-1.6-0.9c-2.9-0.4-3.1-0.5-3.3-3.5c-1.9,0.5-1.6,2.4-2.3,3.6c-1.4-0.2-2.7-0.6-3.5-1.8
					c-0.6-1-0.6-1.9,0.5-2.4c1.5-0.6,1.8-1.6,1.6-3c0-0.5,0-1.2,0.3-1.4c1.1-1,0.7-2,0.2-3c-1.8-0.6-3.5-1.3-5.4-2
					c-0.6,1.1-1.4,1.8-2.9,1.1c-0.2-0.6-0.3-1.2-0.5-1.9c-4.3-0.7-5.2-1.4-4.7-4c0.4-0.1,0.8-0.1,1.2-0.2c2.1-0.5,3.9-1.4,5.4-3.2
					c2.1-2.6,3.9-5.2,5.3-8.1c0.8-1.6,1.1-3.3,1.6-5.1c1.6-6.5,3.3-12.9,4.7-19.4c1.4-6.2,2.5-12.5,3.7-18.7
					c0.1-0.6,0.1-1.2,0.1-1.8c-0.2-1.6,0.2-2.9,1.3-4.1c0.5-0.6,0.6-1.5,0.8-2.2c0.4-1.6,0.7-1.6,2.3-1.2c1.4,0.4,2.9,0.2,4.5,0.4
					c-0.8-2.9-2.7-4.3-4.9-6c-1.1,1.5-2.1,2.9-3.2,4.5c0.3-2.3,0.6-4.5,0.9-6.7c0.9-6.1,1.9-12.3,2.7-18.4c0.4-3,0.5-6,0.7-9.1
					c0.1-1.5,0.3-3,0.2-4.4c-0.1-2.3,1.1-4.1,2.3-5.8c0.5-0.7,1-1,1.8-0.6c0.1,0.1,0.2,0.3,0.2,0.4c-0.4,2.3,0.5,3.9,2.3,5.3
					c1.6,1.2,3,2.8,4.7,4.1c1.5,1.2,2.3,2.6,2.7,4.4c0.8,3.6,1.7,7.1,2.6,10.8c0.9-0.4,1.1-1,1-1.8c-0.2-1.9-0.2-3.8-0.6-5.7
					c-0.6-3.3-1.4-6.5-2.2-9.7c-0.1-0.4-0.1-0.8-0.3-1c-2.2-2.4-4-5.1-7.4-6.5c-0.1-1.1-0.9-1.9-2.1-2.6c-1-0.5-1.9-1.3-2.8-2.1
					c-1-0.9-2-1.5-3.5-1.1c-0.4-2.8-1-5.5-1.2-8.2c-0.2-2-0.8-3.6-2.6-4.5c-1.6-0.8-2-2-1.7-3.7c0.2-0.9,0.2-1.8,0.3-2.9
					c0.5,0.4,0.8,0.6,1,0.9c0.7,0.9,1.4,1.6,2.7,1.6c1-0.1,1.4,0.5,1.5,1.5c0,1.4,0,2.8,1.2,3.9c0.6,0.6,0.1,1.2-0.4,1.8
					c-0.6,0.7-1,1.5-0.3,2.5c0.6,0,1.4,0,2.2,0c-0.1-0.9-0.2-1.8-0.3-2.9c0.7-0.1,1.4-0.2,2.1-0.3c0.2-0.8,0.3-1.6,0.6-2.4
					c0.3-0.9,0.2-1.7-0.4-2.5c-0.3-0.4-0.4-1-0.5-1.6c0.5-0.1,1.1-0.2,1.6-0.3c0.2,0,0.4,0,0.7-0.1c0.2-0.9,0.4-1.6-0.6-2.5
					c-1.4-1.2-2.2-3.1-4.2-3.7C13890.8,467.5,13890.6,466.9,13890.4,466.5z"/>
			</g>
		</g>
		<g id="Vector_2_" figma:type="vector">
			<g transform="translate(14286.9 534.999)">
				<path id="path2_fill" class="st1" d="M14100,592.1c-1.6-0.2-3.2-0.3-4.9-0.5c-0.6,2-2.3,3.7-1,6.2c-1.4,0.9-3.1,1.6-4.2,2.7
					c-1.1,1.1-1.8,2.6-2.8,4.2c-1.4,0-3.1,0-4.9,0c-0.1-1-0.3-2.1-0.4-3.3c-1.5-0.1-3-0.3-4.5-0.3c-0.5,0-1.2,0.3-1.6,0.6
					c-4.7,3.6-9.5,7-14,10.9c-1.7,1.5-3.3,2.3-5.4,2.2c-0.8,0-1.5,0.1-2,1c-0.3,0.5-1,0.8-1.6,1c-1.2,0.5-2.5,0.8-3.8,1.2
					c-0.5,0.2-1.2,0.7-1.2,1c0,2.4-1.7,3.5-3.2,4.7c-0.4,0.3-0.8,0.6-1.3,1c-1-0.8-1.9-1.6-3-2.6c-0.5,0.8-1,1.5-1.5,2.3
					c0.8,1.5,1.4,3.2,3.6,2.9c0.2,8.6,0.4,17.1,0.6,25.7c2.3,1,4.6,2.2,3.7,5.5c-1.4,0.2-2.7,0.1-3.5-1.2c-0.7-1-1.7-1.2-2.9-1.2
					c-2.4,0-4.5,0.2-6,2.5c-0.3,0.5-1.2,0.7-1.9,1c-0.6,0.2-1.1,0.4-1.7,0.4c-1.6,0.1-2.5,0.8-2.3,2.5c0,0.2-0.2,0.5-0.5,0.9
					c-1.6-0.8-3.1-1.4-4.2,0.9c-1.4-1.2-2.6-2.4-4-3.3c-2.6-1.7-5.4-3-8.7-2.5c-1.2,0.2-2.2,0.6-2.9,1.7c-0.4,0.6-0.8,1.1-1.3,1.6
					c-1.2,1.3-2.1,1.2-3.6,0.3c-1.8-1.1-1.8-2.9-2-4.5c-2.1-1.2-4.5-1-6.4-2.6c-2.1-1.8-1.4-4.2-2.4-6.5c-3.3-0.1-6.5-1.9-10.1-0.1
					c-1-1.5-1.9-3-2.9-4.4c-1.9,0-3.7-0.2-5.5,0c-1.6,0.2-2.7-0.3-3.5-1.7c-0.2-0.3-0.4-0.5-0.5-0.7c-0.6-1-1.4-1.3-2.5-1.4
					c-3.2-0.3-6.4-0.7-9.2-2.7c-1.2-0.8-2.4-1.4-4.1-1.1c-0.2,2.7-0.3,5.4-0.5,8.4c-4-0.3-7.9-0.6-12.1-1c-0.2,0.2-0.6,0.8-1.1,1.3
					c-2.7,0.4-4.1-1.5-5.7-3.3c-1.6,0.6-3,1.3-4.5,1.9c-1.3,0.6-2.7,1.1-4,0.1c-1.1-0.8-2.4-1.4-2.5-3.2c0-0.5-0.7-1.1-1.2-1.5
					c-1.6-1.2-3.3-2.4-5.2-3.7c0.1-1.3-0.3-2.7,1.1-3.7c0.3-0.2,0.4-0.9,0.5-1.4c0.2-1.3,0.4-2.6,0.6-4c1.4,0.1,2.8,0.4,3.7-1.1
					c-0.3-0.7-0.6-1.4-1-2.4c1-0.8,2-1.6,2.9-2.6c0.8-0.8,1.5-1.8,2.1-2.8c0.7-1.2,1.1-2.6,1.8-3.8c0.7-1.2,1.5-2.4,2.3-3.7
					c-1.1-1.6-2.1-3.3-3.2-5c0.6-0.7,1.2-1.3,1.8-2c-1-1.6-1.9-3.2-2.9-4.7c-0.3-0.4-0.9-0.7-1.4-0.8c-0.9-0.2-1.8-0.2-2.6-0.3
					c-1.5-0.2-2.3-1.3-1.9-2.8c0.3-0.8,0.5-1.8,1-2.4c1.1-1.3,1.7-2.6,1.3-4.4c-0.2-0.7,0.6-1.5,1.1-2.4c-0.5-0.9-1.1-2-1.7-3.1
					c0.5-1.3,1.4-2.2,2.7-1.8c1.5,0.5,2.7,0.4,3.7-1c0.7,1.2,1.3,2.2,2,3.3c1-0.2,1.8-0.4,2.7-0.7c0.2-1.4,0.3-2.7,0.5-4.3
					c1,0.6,1.6,0.9,2.3,1.3c0.8-0.7,1.6-1.5,2.6-2.3c0.8,1.4,2.1,1.1,3.3,0.9c0.8-0.1,1.6-0.3,2.4-0.4c1.4,0,2.6-0.4,3.2-1.9
					c0.2-0.4,0.8-0.8,1.4-0.9c0.8-0.2,1.8-0.3,2.6-0.3c0.6,0,1.3,0.3,1.7,0.7c0.7,0.6,1.1,1.4,1.6,2c1.5-0.8,2.5-1.3,3.8-1.9
					c-0.1-0.7-0.2-1.4-0.3-2.4c1.9-0.4,3.6-0.9,5.6-1.4c-1.1-2,0.2-3.6,0.7-5.3c0.3-1.2,0.5-2.2-0.6-3.2c-1.3-1.1-0.3-2.3,0.1-3.6
					c2.3,1.8,4.5,0.6,6.8,0.2c-1-2.9-2.1-5.7-3.2-8.8c1.3-0.2,2.2-0.3,2.9-0.4c1-1.4,1.9-2.6,2.7-3.9c0.4-0.7,0.4-1.5,0.7-2.5
					c0.8-0.1,1.9,0,2.7-0.3c0.8-0.4,1.4-1.2,2-1.9c0.6-0.7,1.1-1.6,1.6-2.3c-0.5-0.5-0.9-0.8-1.5-1.4c1.1-0.2,1.8-0.4,2.5-0.5
					c1.3-2,2.5-3.9,3.8-5.9c-0.4-0.5-0.6-0.9-1-1.3c-1.1-1.4-0.9-2.3,0.7-3.2c0.2-0.1,0.4-0.2,0.6-0.3c1.1-0.3,2-1.5,3.3-1
					c1.7,0.7,3.5,1.2,4.5,3c0.7,1.2,1.6,2.3,2.3,3.4c2.3,0.1,2.3,0.1,5.1-2.3c0.4,0.4,0.8,0.8,1.3,1.2c0.6-0.5,1.1-1.1,1.6-1.5
					c1-0.8,2.2-0.4,2.5,0.8c0.3,1.1,0.4,2.2,0.6,3.3c0.2,1.5,0.7,2.7,2.1,3.4c0.3,0.2,0.6,0.4,1,0.8c-0.7,1.7-1.4,3.4-2.1,5.1
					c0.7,0.4,1.3,0.8,2,1.3c-0.2,0.9-0.5,1.8-0.8,3c1,0.2,2,0.4,2.8,0.5c0.2-0.2,0.3-0.2,0.4-0.2c1-1.7,1.8-2.8,4.3-1.7
					c1.5,0.7,3.6,0.1,5.2,0.1c1-1.1,1.8-1.9,2.5-2.9c0.4-0.6,0.4-1.4,0.6-2.1c0.2-0.7,0-1.5,1-1.7c0.2,0,0.4-0.7,0.4-1.1
					c0.1-0.7,0.1-1.3,0-2c-0.1-1,0.3-1.7,1.1-2.3c1-0.7,1.9-1.6,3.1-2.6c0.3,1.4,0.4,2.4,0.7,3.5c1.2-0.1,2.2-0.2,3.4-0.2
					c0.3,1.5,0.5,3,0.8,4.5c0.5,0.2,1.1,0.3,1.6,0.5c0.4,2.5,0.2,5.2,2.9,6.8c1.1-2,2-4.1,2.8-6.3c0.8-2.2,1.5-4.5,2.3-6.9
					c1,0.6,1.9,1.2,3,1.8c0.7-1.2,1.1-2.6,2-3.4c0.9-0.8,2.3-1,3.7-1.5c1.1,2.7,2.1,5.2,3.2,8c1.6-0.5,3.2-0.8,4.7-1.5
					c0.7-0.3,1-1.3,1.6-2.1c0.3,0.7,0.6,1.4,1,2.3c1-0.2,2.1-0.3,3.3-0.5c2.5,2.6,4.8,5.3,5,9.2c0.1,1.3,0.4,2.7,1.5,3.5
					c1.5,1.2,2,2.7,1.4,4.5c-0.1,0.4-0.1,0.7-0.2,1.2c0.9,0.5,1.7,1.1,2.6,1.6c0.9,0.5,1.2,1.1,1.2,2.2c-0.1,1.2,0,2.5,0,3.7
					c0.3,0.1,0.5,0.2,0.6,0.1c1.5-1.1,2.8-0.6,4.2,0.4c1.3,0.9,2.8,1.5,4.3,2.3c0.5-1.5,0.8-2.7,1.3-3.9c0-0.1,0.5-0.1,0.9-0.1
					c0.3,0.8,0.6,1.5,0.9,2.4c1-0.1,2-0.2,3.2-0.3c0.2-0.7,0.5-1.3,0.8-2c3.5,1.2,6.1,3.3,7.5,6.7c0.4,0.9,0.4,2,0.4,3
					c0,1.1,0.3,2,1.1,2.7c1,0.9,1.9,1.9,2.8,2.8c1.9,1.9,1.8,2.5-0.4,3.8c-1.4,0.8-2.7,1.6-4.1,2.3c-0.8,0.4-1.2,1-1.3,1.9
					c-0.2,2-0.5,3.9-0.8,5.9C14100.3,590.8,14100.1,591.3,14100,592.1z"/>
			</g>
		</g>
		<g id="Vector_3_" figma:type="vector">
			<g transform="translate(14377.7 445.687)">
				<path id="path3_fill" class="st1" d="M14049,441.1c1.2,1.2,3.4,1.4,5.3-0.1c0.3,0.8,0.6,1.6,0.9,2.5c1.4,0.2,2.4-0.4,3.2-1.5
					c0.6-1,1.4-1.9,2.3-3c0.6,0.6,1,1.1,1.4,1.6c0.9,1.5,1.8,3.1,2.5,4.7c0.3,0.7,0.4,1.6,0.5,2.3c0.2,2,0.7,2.6,2.7,2.7
					c0.8,0,1.5,0.1,2.2,0.8c0.4,0.4,1.3,0.6,2,0.6c1.5,0.2,1.9,0.6,2,2c0,0.7-0.1,1.5,0,2.2c0.3,2.4-0.5,4.1-2.6,5.3
					c-0.6,0.3-1,1-1.2,1.2c0.5,1.4,0.9,2.4,1.3,3.6c0.8,0.5,2.3,0.2,2.9,1.6c0.2,0.3,1.6,0.3,2.3,0c3-1.6,5.6-0.5,8.1,0.8
					c1.3-0.6,2.6-1.1,4.1-1.8c0.3-1.6,0.8-3.5,1.1-5.3c1.7-0.8,2.6,0.7,3.9,1.1c0.4-0.2,0.9-0.5,1.4-0.8c0.4,0.3,0.7,0.6,1.1,0.9
					c0.9-0.6,1.7-1.3,2.6-2c1.4,1.9,1.2,4.1,2,6.2c0.6,0.1,1.3,0.3,2.1,0.5c0.5-1.4,1.1-2.7,1.5-4c0.9-3.4,1.8-6.9,2.7-10.3
					c0.2-0.8,0.5-1.7,0.9-2.5c0.6-1.2,1.4-1.5,2.5-0.6c1.4,1.3,2.6,0.9,4,0c1.3-0.8,1.8-0.7,2.4,0.6c0.5,1,1.2,1.5,2.1,1.8
					c1.3,0.4,2.1,1.2,2.9,2.3c1.1,1.6,2,3.5,4.2,4.1c0.1,0.8,0.2,1.6,0.2,2.5c3.3,1,4.8-1.6,6.5-3.4c2,0.1,2.4,1.3,2.2,2.9
					c1.9,0.5,3.7,0.2,5.5,0.2c0.5,0,1-0.6,1.4-1c1.7-1.8,3.4-3.7,5.1-5.6c0.5-0.6,0.9-1.2,1.1-1.5c0.6,0.1,0.7,0.1,0.7,0.1
					c2.7,1.2,2.8,1.4,1,3.7c-0.3,0.4-0.6,0.8-1,1.2c0.3,0.8,0.5,1.5,0.9,2.5c-0.8,0.2-1.4,0.3-1.9,0.4c-4,0.8-3.8,1.8-3.3,5
					c1.6,0,3.3,0,5,0c0.4,0,0.8-0.2,1.2-0.5c1.7-1.3,3.3-2.6,5-4c0-0.1,0-0.3-0.1-0.4c-0.6-0.7-1.8-1.1-1.6-2.2
					c0.3-1.3,0.8-2.7,1.5-3.9c0.4-0.8,1.4-0.7,2.1-0.2c0.3,0.2,0.6,0.6,0.9,1c0.6-0.4,1.1-0.7,1.5-1.1c1.7-1.8,3.8-2.4,6.2-2.5
					c1.9-0.1,3.8,0,5.9,0c-0.1,1.8,1.1,3,2.2,4.1c1.7,1.7,1.7,2.9,0.2,4.8c-1.3,1.6-1.2,2.2,0.7,3.2c0.6,0.3,1.2,0.6,1.9,1
					c0,1.2,0,2.5,0,3.4c1,0.5,1.8,0.7,2.4,1.2c0.6,0.4,1,1.1,1.6,1.6c1.7,1.6,1.6,3.6,1.2,5.5c-0.1,0.6-0.8,1.2-1.4,1.5
					c-1.2,0.6-2.4,1.1-3.7,1.6c-1,0.4-1.4,0.9-1.4,2c0.1,1.1,0,2.2-0.1,3.3c-0.1,1,0.3,1.6,0.8,2.4c1.1,1.4,2.2,2.3,4.1,1.9
					c0.3-0.1,0.7,0,1.2,0.1c0,2.1,0,4,0,6c1.3,0.8,2.5,1.5,3.7,2.3c0.5,0.4,1.1,0.8,1.3,1.4c0.4,1.3,0.9,2.3,2.7,2.4
					c-0.9,1.6-1.6,2.8-2.3,4.2c0.1,0.3,0.4,0.7,0.5,1.1c0.6,1.7-0.1,3.4-1.8,3.8c-2.1,0.6-3.7,2.1-5.5,3.2c-0.6,0.4-0.7,1.3-1.2,2.2
					c-0.7,0.3-1.5,0.2-2.3-0.4c-0.8-0.6-1.6-0.6-2.5-0.1c-1.9,1-3.9,1.3-6,1c-0.6-0.1-1.3,0.1-2,0.2c-0.9,0.2-1.6,0.7-1.6,1.8
					c0,1.4-0.8,1.5-1.9,1.3c-0.1-0.1-0.2-0.2-0.3-0.3c-1-2.9-2.3-3.6-5.2-2.5c-0.8,0.3-1.4,1.2-1.9,2c-0.2,0.3-0.2,0.8-0.3,1.3
					c-0.6,3.1-0.5,3.3,2.7,3.8c0.8,0.1,1.4,0.3,1.7,1.2c0.1,0.4,0.3,0.8,0.6,1.2c1.1,1.3,1.1,1.3,0.7,3.2c-1.4,0.2-2.9-0.2-4,1.2
					c-0.2,0.3-1.2,0-1.9-0.1c-1.3-0.3-2.5-0.3-3.4,0.8c-0.2,0.3-0.7,0.6-0.9,0.5c-2.1-0.9-3,0.9-4.3,1.8c0.2,0.6,0.4,1.2,0.6,1.8
					c-1.6,1.6-3.6,0.2-5.3,1c-0.1,1.2-0.5,2.6,0.9,3.7c-1.1,0.8-2.1,1.2-3.3,1.3c-1.1,0.2-2.2,0.3-3.3,0.4c-0.4,1.2-0.8,2.3-1.1,3.4
					c-0.6,2.2-0.5,2.5,1.1,4.3c-0.3,0.4-0.6,0.7-0.7,0.9c-2-0.4-3.7-0.7-5.5-1c-1,2.2-1,2.2,0,3.6c-1.8,1.9-1.1,4.7,1.4,5.3
					c0.8,0.2,1.7,0.6,2.6,0.7c1.2,0.2,2,0.7,2.5,1.9c0.2,0.6,1,1,1.7,1.6c0,0.4-0.1,1-0.2,1.6c-0.1,0.6-0.2,1.1-0.3,1.9
					c-0.8-0.5-1.4-0.9-2.2-1.5c-0.3,0.9-0.6,1.7-0.9,2.5c-0.8,1.8-2.2,2.3-3.9,1.2c-0.9-0.6-1.8-1.1-1.9-2.3
					c-0.2-1.4-1.1-1.5-2.2-1.6c-2.2-0.1-4.4-0.3-6.3-0.5c-1.4-1.7,1.2-3.1-0.1-4.9c-1.7,1.3-3.3,2.6-5.6,1.2
					c0.8-1.2,1.5-2.3,2.3-3.4c-2.1-2.9-3.2-3.5-5.4-2.8c-0.8,0.2-2.6,2.8-2.7,3.8c-0.1,1.9,0.6,3.3,1.8,3.9
					c-0.9,0.6-1.8,1.3-2.9,2.1c0-0.7,0.1-1.3,0.1-1.9c0.1-2-0.9-2.9-2.7-2.6c-0.7,0.1-1.5,0.2-2.2,0.3c-1.1,0.2-2.2,0.3-2.6,1.8
					c-2-1.1-3.7-2.1-5.8-3.2c-0.2,0.8-0.2,1.4-0.5,2c-0.2,0.4-0.6,0.7-0.9,1.1c-0.3-0.3-0.7-0.6-1-1c-0.3-0.4-0.4-1-0.5-1.4
					c-3.3,0-3.3,0-4.1,3.2c-2.5-0.2-3.8-3.3-6.9-2.7c0.8-3.1-0.5-4.9-3.3-5.8c-0.1-0.4-0.2-0.7-0.2-1c0.6-2.2-0.1-3.8-1.8-5.3
					c-0.6-0.6-1.2-1.6-1.2-2.5c-0.2-4.1-2.6-7.1-5-10.1c-0.6-0.7-1.1-0.9-1.9-0.7c-0.6,0.2-1.1,0.2-1.8,0.3
					c-0.3-0.7-0.6-1.4-0.9-2.1c-0.9,0-1.7,0-2.6,0c-0.2,0.7-0.4,1.4-0.6,2.1c-1,0.3-2.1,0.7-3.4,1.1c-1.1-2.7-2.1-5.2-3.3-8.1
					c-1.8,0.7-3.7,1.2-5.3,2c-0.7,0.4-1.1,1.5-1.7,2.4c-1-0.6-2-1.1-3.1-1.7c-1.7,4.2-2.5,8.7-5,13c-1-2-0.7-3.9-1.2-5.8
					c-0.5-0.2-1-0.3-1.6-0.5c-0.3-1.5-0.6-3-0.8-4.5c-1.1,0-2.1,0-3.2,0c-0.4-1.2-0.8-2.4-1.4-4.1c-2.2,1.7-4.1,3.2-5.7,4.9
					c-0.4,0.4-0.2,1.4-0.3,2.1c-0.1,0.8,0.2,1.6-0.8,2.1c-0.4,0.2-0.4,1.2-0.5,1.8c-0.2,1-0.2,2-1.2,2.7c-0.6,0.3-0.8,1.2-1.2,1.9
					c-1.8-0.1-3.5,0.4-5.3-0.6c-1.4-0.8-2.8,0-3.9,1.4c-0.2,0.2-0.4,0.4-0.6,0.6c0,0-0.1,0-0.4,0c0.2-0.8,0.3-1.5,0.5-2.4
					c-0.5-0.4-1.1-0.8-1.9-1.2c0.6-1.6,1.3-3.2,2-5c-3.3-1.3-3.8-4.2-3.8-7.4c0.6-0.5,1.3-1,2.1-1.8c-0.4-1-0.8-2-1.3-3.2
					c0.1-0.1,0.3-0.5,0.5-0.6c1.5-0.2,2-1.1,2.4-2.4c0.5-1.7,1.2-3.2,0.8-5.1c-0.3-1.4,1.2-2.4,2-3.5c0,0,0.1-0.1,0.2-0.1
					c2.5-1,3.7-2.8,3-5.7c0.2,0,0.3,0,0.5-0.1c0.5,0.5,1,0.9,1.5,1.4c1.2,1.1,2.6,1,3.7-0.2c0.6-0.6,0.8-1.2,0.4-2c-0.6-1-0.4-2,0-3
					c0.6-1.8,0.2-3.5-0.7-5.1c-0.7-1.3-0.6-2.5,0.1-3.7c1.4-2.6,1.2-3.9-0.9-6.1c-0.9-1-2.2-1.8-2.7-3.4c1.3-0.8,2.5-1.5,3.8-2.2
					c0.8-0.4,1.5-1,1.6-2c0-1,0.6-1.7,1.4-2.1c1-0.5,1.1-1.4,0.8-2.3c-0.4-1.2-0.9-2.3-1.3-3.5c-0.3-0.9-0.7-1.8-0.7-2.7
					c0-2.2-0.5-4.2-1.4-6.2c-0.6-1.2-1-2.1-2.3-2.7c-0.9-0.4-1.5-1.7-2.3-2.8c-0.4,0.3-0.8,0.6-1.5,1.1c-0.2-1.1-0.3-2.1-0.7-3
					c-0.4-0.9-1-1.6-1.6-2.4c1-3.8,4.2-4.8,7.4-4.3c1.4,0.2,3.7-0.6,4.3-1.9c0.2-0.6,0.1-1.5-0.2-2.1c-1-2.2-0.9-2.6,0.7-4.2
					c0.7-0.7,1.5-1.4,2.2-2.2c0.1-0.1,0.2-0.2,0.5-0.3c0.5,0.4,1.1,0.9,1.8,1.5c1.5-1.7,4-2.1,5.3-4.3c0.7-1.3,2.1-0.5,3.4-0.4
					c0,2,1.4,2.5,2.8,3.3c1.2,0.6,2.1,1.8,3.3,2.8C14047,442.1,14047.9,441.6,14049,441.1z"/>
			</g>
		</g>
		<g id="Vector_4_" figma:type="vector">
			<g transform="translate(14422.8 272.953)">
				<path id="path4_fill" class="st1" d="M14196.2,369.9c-1.6,1.7-1.9,3.4-1.8,5.3c0,0.4-0.1,0.9-0.2,1.3c-0.2,1.4-0.5,2.7-0.6,4.1
					c-0.1,1-0.1,2-0.8,2.9c-0.3,0.4-0.4,1.3-0.1,1.8c0.8,1.5,1.7,2.9,2.7,4.5c-0.1,0.1-0.2,0.5-0.5,0.8c-0.8,0.9-1,1.9-1,3
					c0,0.8,0,1.8-0.5,2.3c-1,1-2.1,2-3.4,2.3c-1.6,0.4-3.4,0.2-5.1,0.2c-1.4,0-1.6-0.6-1.6-2.7c-0.9-0.1-1.6-0.4-1.8-1.6
					c-0.2-1.4-0.7-2.9-1.1-4.4c-0.8,0-1.5-0.1-2.5-0.1c0.1-0.6,0.1-1.2,0.3-1.8c1.1-3.4-0.5-6.5-4-7.3c-1.2-0.3-2.3-0.5-3.2-1.6
					c-0.6-0.7-1.8-1-2.7-1.5c-1.4-0.8-2.9-1.5-3.9-2.8c-0.5-0.7-1.4-1-2.2-1.6c-0.7,0.4-1.4,0.7-1.9,1.2c-0.5,0.4-0.8,1.1-1.7,2.2
					c-0.5-0.8-0.7-1.4-1.1-1.8c-1.9-2.2-4.2-2.5-6.8-1c-1.5,0.9-3,0.1-3.2-1.8c-0.2-1.5-0.7-2-2.1-1.9c-0.4,0-0.9,0.1-1.3,0.2
					c-1.2,0.1-2.2,0.4-2.4,1.8c-0.1,0.4-0.5,0.7-0.9,1.1c-0.5-0.4-1-0.7-1.4-1c-0.6-0.1-1.6,0.6-1.6,1.4c-0.1,1.2-1.2,1.9-1.4,3.1
					c-1.4,0.2-1,1.5-1.3,2.4c-0.7,0.1-1.3,0.2-2.1,0.3c0,1.7-1.6,1.6-2.7,2c-0.7,2.2,1.6,4.3,0.1,6.4c-0.8,0.3-1.8,0.6-2.7,0.9
					c-0.5,0.1-1.1,0.2-1.5,0c-1.8-1.1-3.4-0.4-4.9,0.6c-0.7,3.5-0.7,3.5-3.9,3.9c-1.1-1.3-2.2-2.7-3.4-4.1c-0.6,0.2-1.1,0.6-1.6,0.7
					c-0.6,0.1-1.7,0.1-1.8-0.2c-0.6-1.6-1.9-1-3-1.1c-0.4-1.2-0.8-2.3-1.3-3.7c0.4-0.4,0.9-1.1,1.6-1.9c-2.3-3.4-4.5-6.7-7.6-9.3
					c-1.5-1.2-3.2-2-5.3-1.7c-1.1,0.1-2.2,0-3.2,0c-0.8,3.1-1.3,3.5-4.3,3.5c-1.2,0-2.5,0.4-3.7-0.6c-0.3,0.4-0.5,0.8-0.8,1.3
					c-0.2,0.4-0.4,0.7-0.7,1.3c-0.5-0.7-1-1.3-1.4-2c-1.6,0.6-3.2,1.4-4.9,1.6c-1.7,0.2-3.5-0.2-5.3-0.3c-0.8-1.2-1.6-2.4-2.4-3.5
					c-0.2-0.4-0.5-0.8-0.5-1.2c0.1-2.9-2-4.5-3.7-6.4c-0.6,0.4-1.2,0.7-1.9,1c-0.5-0.3-0.9-0.7-1.4-1c-1-0.5-1.2-1.4-0.9-2.3
					c0.8-2.4,0-4.1-1.9-5.6c-0.2-0.1-0.3-0.3-0.5-0.5c-2-2.1-2-2.1-4.8-2.6c-0.1-2.3,0.2-4.6,1.3-6.7c0.2-0.3,0.6-0.6,0.6-0.9
					c0-1.8,1.2-2.5,2.7-3c0-0.8,0-1.5,0-2.3c-1-0.1-1.8-0.1-2.5-0.2c0-1.2,0.1-2.3,0-3.4c-0.1-0.7-0.6-1.5-1.1-2
					c-0.6-0.6-0.7-1.4-0.2-1.8c1.3-1,1.5-2.6,2.2-3.9c0.5-0.8,1-1.4,1.9-1.8c1-0.3,1.5-1,1.9-2c0.8-2.3,0.9-2.3,2.6-3.8
					c-0.5-1.1-1.1-2.2-2.7-2.1c0.6-0.8,1-1.5,1.6-2.3c-0.6-0.5-1-1-1.8-1.8c1.8-0.2,3.2-0.4,4.7-0.6c-0.1-1.5-0.8-2.5-1.9-3.3
					c-1.6-1.1-1.7-4.2-0.2-5.5c1.1-0.9,2.3-1.6,3.8-1.4c0.6,0.1,1.3,0,2.1,0c0-0.5,0-0.8,0-1.2c0.1-1.1,0.6-1.4,1.6-1
					c0.4,0.2,0.8,0.4,1.1,0.7c1,0.9,2.1,1,3.3,0.1c0-3.6-0.6-7.4,1.3-10.9c-0.9-0.6-1.5-1-2.5-1.6c1.4-0.4,2.5-0.7,3.7-1.1
					c0.1-0.7,0.2-1.5,0.3-2.3c1.2-0.8,2.8-1.2,2.9-3c0-0.4,0.2-0.9,0-1.3c-0.7-2.9-0.7-2.9,1.1-4.9c-0.4-0.9-1-1.8-1.3-2.7
					c-0.2-1,0-2,0-2.9c2.3-1.1,3.7,0.3,5.2,1.4c1.9-0.6,3.9-1.2,5.8-2c1.6-0.6,2.8-1.6,2.4-3.6c-0.2-1,0.1-1.9,1-2.6
					c0.4-0.4,0.9-0.8,1.1-1.4c0.8-1.7,2.1-2.1,4-1.5c0.6,1.9,0.5,3.5-1.5,4.8c1.9,1.6,0,3.2,0.1,4.9c0.2,0.2,0.4,0.4,0.7,0.6
					c1.9,1.3,1.8,1.3,1.5,3.6c-0.2,1.3,0.1,2.6,0.1,4c1.7,0.2,3.2,0.5,4.6,0.7c1.5,0.1,2.6,0.7,3,2.2c0.3,1,0.9,1.5,1.9,1.4
					c0.1,0,0.2,0,0.2,0c4.3,0.4,4.3,0.4,5.3,4.5c1.1,0.6,2.5,1,3.2,1.8c0.7,0.9,0.9,2.3,1.3,3.4c0.1,0.1,0.3,0.2,0.4,0.2
					c1.5-0.6,2.9-1.3,4.6-1.2c0.3,0,0.7-0.3,0.9-0.6c1.2-1.6,3-1.4,4.7-1.2c0.6,0.1,1.3,0.7,1.7,1.2c1.1,1.3,2.2,2.6,4.2,2.3
					c0.4-0.1,0.8,0.3,1.2,0.5c1.7,1,3,0.8,4.5-0.6c0.3-0.3,0.6-0.5,0.8-0.7c1.5-1.2,3.1-1.3,4.6,0c1.1,1,2.2,1.3,3.6,0.9
					c1.9-0.5,6,1.5,6.9,3.2c0.2,0.4,0.2,1,0.3,1.5c0,0.9,0,1.8,0,2.6c0.9,0.5,1.7,0.9,2.5,1.3c0.2,1.1,0,2.2,1.2,3.1
					c0.8,0.6,1.1,1.9,1.8,3c0.9-0.1,1.8-0.2,2.9-0.4c0-1.7,0.9-3,2.6-2.9c1.4,0.1,2.9,0.5,3.9,1.8c0.3,0.4,0.5,0.8,0.8,1.1
					c0.8,0.9,1.8,1.5,3.1,1.4c0.8-0.1,1.6-0.1,2.4,0c1.6,0.1,2.9-0.3,3.9-1.5c1.2-1.4,3-1,4.6-1.1c0.3,0,0.6,0.4,0.8,0.6
					c0.9,0.8,1.7,1.6,2.6,2.3c1,0.8,2,1.6,3.2,2.6c2.1-0.1,4.6-2.3,6.6,0.6c0.3-0.1,0.6-0.1,0.7-0.2c1.4-1.2,2.8-1.1,4.2-0.1
					c1.3,1,2.9,1,4.5,1.1c1.4,0.1,2.4,0.6,3.3,1.7c-2.8,1.1-3.2,3.6-3.2,6.1c-0.1,2.4,0,2.3-2.4,3.4c-1.2,0.6-2.1,1.6-2.1,3.1
					c0,1.1-0.4,1.7-1.3,2.1c-2.7,1.4-3.8,3.5-3.7,6.6c0,1.9-0.7,3.9-1.4,5.8c-0.7,2-0.9,4-0.5,6.1c0.2,1.2,0,2.3-0.6,3.4
					c-0.9,1.7-1.7,3.4-2.7,5.1c-0.8,1.5-1.2,3-1,4.7C14194.4,366.4,14193.9,368.5,14196.2,369.9z"/>
			</g>
		</g>
		<g id="Vector_5_" figma:type="vector">
			<g transform="translate(14404.6 365.084)">
				<path id="path5_fill" class="st1" d="M14034.8,387.7c6.1-0.5,7.2-4.2,5.1-7.2c1-0.9,2-1.7,3-2.6c1.3-1.1,1.6-3.9,0.5-5.2
					c-1.2-1.3-2.1-2.6-2.5-4.3c-0.1-0.5-0.7-1-1.1-1.4c-0.6-0.6-1.2-1.1-1.9-1.7c1.2-1.5,2.3-2.9,3.5-4.3c-0.4-0.6-0.8-1.2-1.2-1.8
					c0.9-2.3,2.3-3.3,4.7-3.3c1.4,0,2.8,0.1,4.2,0.2c0.4,0,1,0.2,1.3,0c1.4-1,2.7,0,4,0c0.4,0,0.9,0.4,1.3,0.6
					c0.4,0.3,0.7,0.8,1.1,1.1c1.9,1.5,2.9,3.3,2,5.7c-0.4,1.1,0.1,2,1.1,2.6c0.9,0.6,1.7,1.2,2.5,1.9c0.6-0.3,1.1-0.6,1.6-0.8
					c0.2,0.1,0.4,0.1,0.4,0.2c1.3,1.2,2.3,2.7,2.3,4.6c0,0.5,0.3,1.1,0.6,1.6c0.8,1.3,1.7,2.6,2.7,4.1c3.3-0.2,6.9,1.5,10.2-1.1
					c0.7,1.3,1.5,2,3,1.8c0.5-1.7,1.9-2.1,3.5-2c0.6,0.1,1.2,0,1.8,0c2.3-0.1,3.6-1.1,4.4-3.3c3.2-0.7,5.9,0.1,8,2.7
					c1.8,2.2,3.5,4.3,5.4,6.6c-0.8,1-1.5,1.8-2.3,2.8c1.9,0.9,2,2.6,2.1,4.5c0.6,0,1.2,0,1.8,0.1c0.4,0,1.1,0,1.2,0.2
					c1.2,1.8,2.8,1.1,4.4,0.8c0.1,0,0.1,0,0.4,0c0.9,1.2,1.9,2.4,2.9,3.8c0.8-0.2,1.7-0.4,2.7-0.5c1.8-0.2,2.6-1.4,2.9-3
					c0.3-1.4,1.2-2.1,2.5-1.5c1.5,0.7,2.8,0.6,4.2-0.1c0.7-0.3,1.6-0.3,2.3-0.4c0.6-1.8,1.1-3.6,1.7-5.5c-0.3-0.2-0.9-0.4-1.5-0.8
					c1.8-0.6,2.6-2.9,4.8-2.5c0.1-0.8,0.2-1.5,0.2-2.2c0.5-0.3,1.1-0.6,1.6-0.9c0.1-2,0.1-1.9,1.9-2.4c0.9-0.3,2.1-0.9,2.5-1.6
					c0.7-1.7,1.8-1.7,3.4-1.6c-0.1,1.4,0.3,2.5,1.6,3.3c1.5,0.9,2.2,1.1,3.8,0.1c1.9-1.2,3.6-0.9,5.1,0.7c2.1,2.3,3.1,2.2,4.9-0.3
					c0.1-0.2,0.4-0.2,0.6-0.5c0.4,0.3,1,0.5,1.4,1c1.1,1.4,2.6,2.1,4.1,2.9c1.3,0.7,2.7,1.1,3.5,2.6c0.2,0.3,0.9,0.5,1.4,0.5
					c1.8-0.1,3,1.1,4.2,2.1c1.1,0.9,1,2.2,0.4,3.3c-0.8,1.4-0.5,2.7-0.2,4.1c0.8,0,1.5,0,2.5,0c0.2,0.6,0.4,1.4,0.6,2.2
					c0.2,0.7,0.3,1.4,0.4,1.9c-1.2,1.1-2.4,2.1-3.4,3.2c-0.9,1.1-2.1,2-2.6,3.5c1.8,1,3.8-1.6,5.5,0.9c-1.3,1.2-2.5,2.4-3.9,3.7
					c0.1,0.4,0.3,1.1,0.5,1.9c-1.7,2-3.5,4-5.2,6c0,0-0.1,0.1-0.2,0.2c-1.5,1.2-2,2.5-2.9,4.3c-0.6,1.2-1.9,2.2-3.1,3
					c-1.8,1.1-3.7,1.9-5.7,2.8c0.1,2.3,0.2,4.5,0.3,6.7c0.1,1.2-0.2,2.1-1.2,2.9c-2.6,2.4-5.2,4.8-7.8,7.3c-0.3,0.3-0.7,0.6-1,0.9
					c-1.4,1.4-1.4,1.7,0.3,3.1c-0.3,0.4-0.6,1-1,1.4c-0.9,0.9-1.4,1.9-1.3,3.1c0,1.2-0.5,2.1-1.3,2.9c-1.5,1.6-3.1,3.2-4.5,4.9
					c-1.1,1.4-2.3,1.9-4,1.7c-0.4,0-0.9,0-1.5-0.1c0.1-2.5-2.1-2.6-3.5-3.5c-2,1-2.6,3.6-5.2,3.9c-0.2-0.8-0.3-1.4-0.5-2.3
					c-2.3-0.4-3.3-2.5-4.5-4.2c-0.8-1.1-1.6-2.1-3-2.4c-0.9-0.2-1.5-0.8-1.9-1.7c-0.7-1.5-2.2-1.9-3.6-1.1c-0.6,0.4-1.3,0.7-1.9,1.1
					c-1.2-0.7-2.1-1.9-3.7-1.4c-0.7,0.2-1.2,0.4-1.5,1.1c-0.5,1.2-1.1,2.4-1.4,3.7c-0.9,3.3-1.7,6.7-2.6,10.1
					c-0.2,0.8-0.6,1.6-1.1,2.9c-0.7-2.5-1.3-4.4-1.8-6.3c-1.6-0.3-2.8-0.1-3.8,1c-0.5-0.4-0.9-0.6-1.3-1c-0.5,0.4-1,0.7-1.5,1.1
					c-0.2,0-0.5-0.1-0.7-0.1c-0.7-0.3-1.3-0.7-2-0.8c-1.8-0.2-2.4,0.3-2.8,2c-0.3,1.3-0.5,2.6-0.8,3.7c-1,0.4-1.9,0.7-2.8,1.1
					c-3-0.7-6.1-2.1-8.9-0.2c-1.2-0.6-2.2-1.2-3.3-1.7c-0.7-2.2-0.7-2.3,1.2-3.7c1-0.8,1.6-1.6,1.5-3c-0.1-1.4,0-2.8,0-4.2
					c0-2.3-0.9-3.3-3.2-3.5c-0.3,0-0.7,0-0.9-0.1c-1-1.3-2.5-1.4-3.9-1.4c-0.3,0-0.8-0.6-0.8-0.9c0.2-2.8-1.7-4.8-2.7-7.1
					c-0.7-1.6-1.7-2.7-3.5-3.5c-1.2,1.6-2.4,3.2-3.8,5.1c-0.4-2-1.3-2.9-2.7-3c-0.7,0.5-1.3,1.1-1.9,1.3c-1.2,0.3-0.8-1.2-1.6-1.6
					c-1.1,0.6-2.3,1.2-3.4,1.8c-1.6-1.1-3-2.1-4.8-3.4c0.1-0.6,0.3-1.5,0.5-2.4c0.4-1.3,0.8-2.5,0.1-4c-0.4-1,0-2.3,0-3.5
					c0-0.8,0.2-1.6,0.3-2.4c0.1-0.8,0-1.5-0.7-2c-1.1-0.8-1.3-1.8-1-3c0.4-1.6-0.1-3-0.8-4.4c-0.4-0.8-0.7-1.8-0.8-2.7
					c-0.1-1.2-0.6-1.9-1.5-2.5c-0.4-0.3-0.8-0.6-1.2-1c-1-0.9-1.1-1.7-0.4-2.9c1.5-2.6,1.4-4.4-0.5-6.8c-0.2-0.3-0.4-0.6-0.6-0.9
					c-0.1-0.1,0-0.3-0.1-0.7c1-0.4,2.1-0.8,3.2-1.2C14038.2,393.5,14036.9,390.5,14034.8,387.7z"/>
			</g>
		</g>
		<g id="Vector_6_" figma:type="vector">
			<g transform="translate(14308 337.007)">
				<path id="path6_fill" class="st1" d="M13987.5,454.1c-1.1,1.2-2.1,2.4-3.3,3.7c-0.9-0.8-1.8-1.6-2.7-2.5
					c-1.2,0.9-2.3,2.2-4.2,1.2c0-0.8,0-1.6,0-2.6c-1.7-0.6-2.4-1.9-2.7-3.5c-0.2-1.2-0.8-1.7-2-1.7c-1,0-1.8-0.5-2.5-1.2
					c-1-1-2.2-1.9-3.4-3c0.1-0.6,0.3-1.1,0.3-1.7c0.3-2.3,0.2-4.4-2-5.9c-0.8-0.6-1.1-1.4-1.4-2.4c-0.2-0.9-0.8-1.8-1.4-2.4
					c-1.3-1.2-2.1-2.6-2.4-4.4c-0.2-1-0.4-1.9-1.6-2.5c-0.8-0.4-1.3-1.4-1.9-2.1c-1.3,0.6-2.6,1-2,2.9c-2.6,1.1-5.2,1.2-8.1,0.9
					c0-1.7,0-3.3,0-5c-1.5-0.5-2.7-0.9-4-1.3c-0.1-0.7-0.2-1.3-0.3-2c-0.5-0.2-1-0.3-1.5-0.4c-1.8-0.4-2.7-1.2-2.3-3
					c0.6-2.8,0.7-5.8,2.9-8c1.3-1.3,1.8-2.6,1.5-4.4c-0.2-0.9,0-1.8,0.7-2.5c1.2-1.2,1.4-2.4,0.3-3.7c0.4-0.7,0.7-1.4,1.1-2.1
					c1.9,0.9,3.4,2.8,5.8,1.6c0-0.4-0.1-1-0.2-1.6c0.3-0.1,0.9-0.2,1-0.4c0.9-1.8,2.6-2,4.2-2.5c0.8-0.2,1.5-0.5,2.2-0.7
					c0-0.3,0.1-0.4,0-0.5c-0.8-2.5-0.8-2.4,1.6-3.6c2.3-1.2,3.9-2.9,3.9-5.7c0-0.3,0.1-0.6,0.1-0.9c2.4-0.5,2.1-2.5,2.3-4.1
					c0.1-1.6,0.8-3.5-1.4-4.5c0.7-1.1,1.2-1.9,1.8-2.8c0.5-0.8,1.2-1.5,1.7-2.3c-2.1-1.4-3.5-2.9-3.1-5.6c0.1-0.8-0.8-1.8-1.2-2.8
					c1-0.9,2-1.4,3.3-1.7c2.3-0.4,3.5-2.1,3.4-4.3c0-0.4-0.1-0.7,0-1.1c0.3-2.8-0.4-5.2-3-6.7c-1.5-0.9-1.2-2.6-0.9-3.8
					c0.2-1.2,1.4-1.8,2.7-1.7c0.7,0,1.4-0.3,2.1-0.6c1.1-0.5,2.1-1,3.1-1.6c1.1-0.6,2.1-0.9,3.5-0.5c1.4,0.4,3.1,0.3,4.6,0.2
					c1.1-0.1,1.7-1,1.9-2.1c0.1-0.6,0-1.2,0-1.6c0.2-0.3,0.3-0.4,0.4-0.5c0.9-0.5,2.1-0.8,2.7-1.5c0.6-0.7,0.5-1.9,0.7-3
					c2,0.8,1.2,3.4,2.9,4.2c-0.6,1.8-1,3.6,0.2,4.9c-0.2,1.1-0.8,2-0.5,2.7c0.4,1.2,1,2.5,1.9,3.4c1,0.9,1.9,1.8,2,3.3
					c0.7,0.2,1.3,0.4,1.9,0.5c1.2,5.5,1.5,5.4,6,6.5c0.4,2.3,0.8,4.8,1.2,7.5c2-0.2,4.1-0.2,6-0.6c0.8-0.2,1.5-1.1,2.4-1.7
					c1.2,1.3,2.7,1.5,4.3,1.4c1.3-0.1,2.2,0.5,2.9,1.6c0.4,0.6,1.1,1.1,1.8,1.6c1.3,0.9,1.3,2.3,0.1,3.2c-0.6,0.5-1.3,1-2.2,1.6
					c0.9,0.8,1.7,1.5,2.6,2.4c1.6-1.8,3.6-1.4,5.6-1.3c1.5,0.1,3.1,0.1,4.1-1.8c0.5,0.7,0.8,1.2,1.3,1.8c1.4-0.8,2.9-1.6,4.4-2.4
					c1.5,1.2,2.9,2.3,3.4,4.3c0.2,0.9,1,1.6,1.6,2.3c1.4,1.6,1.3,3.2-0.3,4.6c-1.1,0.9-2.1,1.8-3.2,2.8c-0.1,0.1-0.1,0.2-0.2,0.4
					c0.2,0.2,0.3,0.5,0.5,0.7c0.9,0.8,1.3,1.9,0.8,3c-0.6,1.1-1.5,1.8-2.8,1.8c-1,0-1.9,0-3,0c0,1.5,0.3,2.8,1.2,3.7
					c1.6,1.8,2,3.9,2.3,6.2c-1,0.4-2,0.7-3.1,1.1c-0.2,1.5,0.1,2.6,1.1,3.7c1.4,1.6,1.5,3.2,0.4,5c-1.2,2-1,3.4,0.9,4.9
					c1.2,0.9,2.1,1.8,2.1,3.4c0,0.3,0.1,0.6,0.2,0.8c1.3,2,1.6,4.2,1.2,6.6c-0.1,0.5,0.3,1.3,0.7,1.7c0.8,0.8,1.1,1.6,0.9,2.8
					c-0.3,2.2-0.8,4.3,0,6.5c0.2,0.6-0.3,1.5-0.5,2.6c-1.1-0.1-2.1-0.2-3.1-0.2c-0.5,0-1.3,0.1-1.6,0.5c-1.2,1.8-2.9,2.8-4.8,3.7
					c-0.5-0.4-1-0.9-1.7-1.6c-1.6,1.6-3.3,3.2-4.8,4.9c-1,1.2-0.7,2.8-0.1,4.2c0.1,0.3,0.4,0.6,0.6,0.9c-0.8,0.9-1.4,1.7-2.8,1.4
					c-3.5-0.6-6.4,0.2-8.3,3.4c-0.7,1.2-1.5,1.6-2.7,1.8c-1.8,0.2-3.6,0.2-5.5-0.2c-3.3-0.7-6.7-1-10.2-1.5
					c-0.4,0.9-0.8,1.7-1.2,2.7C13992.4,455.4,13989.9,455.3,13987.5,454.1z"/>
			</g>
		</g>
		<g id="Vector_7_" figma:type="vector">
			<g transform="translate(14216.8 354.709)">
				<path id="path7_fill" class="st1" d="M13894,384c0.4-1.1,0.9-1.9,1.2-2.8c0.8-2.1,1.5-4.2,2.3-6.2c0.7-1.9,0.8-1.8,2.8-1.7
					c0.6,0,1.2,0,2.1,0c-0.2-2.2,0.9-4.6-1-6.7c-0.1-0.2-0.2-0.4-0.2-0.6c-0.2-2.5-0.4-5-0.5-7.5c0-0.6,0.3-1.4,0.7-1.8
					c1.7-1.5,1.4-3.5,0.8-5.1c-0.5-1.4-0.4-2.5-0.5-4c1.5-0.2,2.9-0.2,4.2-1c0.8-0.5,1.8,0.4,2.5,1.3c0.8,1.1,1.9,2,2.8,3
					c1.1-0.6,1.9-1.1,2.8-1.7c0.6,0.3,1.2,0.6,1.9,1c1.1-0.6,2.2-1.2,3.3-1.9c1.1-0.8,2.3-1,3.5-0.6c1.6,0.4,3.2,0.5,4.7-0.4
					c0.5-0.3,0.9-0.7,1.3-1.1c0.9-1.2,1.8-1.2,2.5,0.1c0.4,0.7,0.4,1.6,0.6,2.4c0.2,1,0.5,1.8,1.6,2.1c0.8,0.2,1.2,0.8,1.4,1.6
					c0.2,0.6,0.4,1.3,0.6,2c2.1,0.6,4.1,0.6,5.6-1.4c0.3-0.4,0.8-0.7,1.1-1.1c1.1-1.4,2.5-1.8,4.3-1.7c1.9,0.1,2.5,0.4,2.8,2.4
					c0.3,1.8,0.5,3.6,0.8,5.5c0.6,0.2,1.1,0.5,1.6,0.7c1,0.3,1.9,0.9,2.3,1.9c0.6,1.1,1.4,1.6,2.7,1.5c0.7-0.1,1.4-0.2,2,0.6
					c0.2,0.2,1,0,1.8,0c0.2,0.2,0.6,0.6,0.8,1.1c0.5,0.9,1.2,1.3,2.3,1.5c0.9,0.2,1.7,0.7,2.6,1.1c-1.2,1.9-2.2,3.5-3.2,5.2
					c2,1.2,2,2.9,1.7,4.7c-0.2,1.8-0.4,2-2.3,2.5c0,0.5-0.1,1-0.1,1.5c0.1,2.7-1.3,4.4-3.6,5.4c-2.2,1-2.7,1.9-2.3,4.1
					c-1.6,1.1-4.1,0.5-5.3,2.7c-1-0.5-1.8-1-2.9-1.7c0.4,1.5,0.7,2.6,1,3.9c-1.2,0.2-1.7-0.6-2.4-1c-0.7-0.4-1.3-0.9-2.3-1.6
					c-0.6,2.2-3,3.5-1.2,6.1c-0.2,0.3-0.4,0.8-0.7,1.1c-0.9,0.9-1.2,2-1,3.2c0.2,1.4-0.1,2.6-1.2,3.6c-1.1,1-1.7,2.4-2,3.9
					c-0.2,1.2-0.6,2.3-1,3.4c-0.1,0.4-0.3,1-0.6,1.1c-2.5,0.9-3.6,3.3-5.5,5.1c-0.4-0.6-0.7-1.1-1.3-1.8c-4.7,0.6-9.5,1.1-14.4,1.7
					c-0.1,0.5-0.1,1-0.2,1.5c-0.1,1.4-1.1,2.3-2.5,2.2c-0.7,0-1.3-0.2-1.9-0.4c-2.7-1.1-5,0.2-7.4,1.5c0.5,0.8,1,1.4,1.4,2.1
					c0.1,0.2,0.4,0.4,0.3,0.6c-0.2,2.9,2.2,3.9,3.8,5.5c0.1,0.1,0.2,0.2,0.3,0.4c-0.2,0.6-0.5,1.3-0.8,2.1c0.8,1,1.6,1.9,2.5,3
					c-1,1.1-0.8,2,0,3.3c1.5,2.3,1.7,4.8,0.3,7.3c0.9,1.2,1.1,2.3,0.3,3.8c-0.4,0.7-0.1,1.8-0.1,2.8c0.9-0.4,1.5-0.6,2.1-0.8
					c-1.2,2.4-3.5,3.1-5.8,3.9c-0.9-0.6-1.8-1.5-2.8-1.7c-0.9-0.2-1.9,0.5-3,0.8c-0.4-0.7-0.7-1.4-1.1-2.2c-1.7-0.3-3.2,0-4.6,0.9
					c-1.4,0.9-2.9,1.7-4.7,2.7c0,0.1-0.2,0.7-0.3,1.2c-0.3,0-0.6,0-0.7-0.1c-1.6-0.7-3.2-1.3-3.9-3c-0.3-0.8-1-1-1.8-1
					c-0.8,0-1.6,0-2.6,0c-0.6-1.1-1.1-2.2-1.6-3.2c-0.2-0.1-0.4-0.2-0.5-0.2c-2.6,0.4-4.6-0.6-6.3-2.7c-0.7-0.9-1.9-1.4-2.9-1.9
					c-0.9-0.5-1.5-1.1-1.8-2.1c-0.8-2.4-1.6-4.8-2.3-7.1c-0.2-0.7-0.4-1.5-1.3-1.6c-0.2,0-0.5-0.2-0.5-0.4c-0.4-2.4-2.6-3.3-3.9-4.8
					c-1.7-1.9-2-4.7-0.4-6.7c1.3-1.6,2.5-3.3,3.8-4.9c0.2-0.3,0.4-0.6,0.7-1.1c-1.4-1.3-2.7-2.5-4.1-3.7c-0.3-0.3-1-0.4-1.4-0.3
					c-0.9,0-1.7,0.2-2.8,0.4c-0.1-0.7-0.2-1.3-0.3-2.1c0.5-0.1,0.8-0.1,1.2-0.2c1.8-0.4,2.6-1.7,2.1-3.5c-0.1-0.6-0.1-1.2-0.2-1.7
					c0.7-0.5,1.2-0.9,1.9-1.4c-1.3-1-2.1-0.5-2.9,0.4c-0.7,0.8-1.3,1.4-2.5,1.5c-1.8,0.2-2.7-0.9-3.7-2.3c-0.6,1.3-1.6,1.1-2.6,0.8
					c-1-0.3-1.9-0.7-3-1.1c0.6-1,1.1-1.8,1.6-2.6c-0.3-0.7-0.7-1.4-1.1-2.2c1.3-1.3,2.7-2.5,4.1-3.9c2.2,1,4.3,0.6,6.4-0.5
					c2.1-1.1,4.3-1.9,6.6-3c0-1.2,0-2.5,0-3.7c0-0.5,0.2-1.1,0.6-1.3c1.7-1,3.3-2.1,5.5-2.1c3,0,6-0.3,9.2-0.4
					c0.5-3.6,3.2-4.1,6.1-4.1c0.2-0.6,0.4-1.2,0.7-1.9c0.6,0.2,1.4,0.3,1.6,0.7C13889.6,383.5,13891.8,383.3,13894,384z"/>
			</g>
		</g>
		<g id="Vector_8_" figma:type="vector">
			<g transform="translate(14458.8 527.423)">
				<path id="path8_fill" class="st1" d="M14175.2,522.8c0.2,1,0.4,2.1,0.4,3.1c0,1.4,0.6,2.3,1.9,2.9c1.7,0.7,3.2,1.9,5.2,1.2
					c0.5-0.2,1.3,0.3,2,0.5c0.2,1.3,0.4,2.5,0.5,3.7c0.1,1,0.4,1.7,1.4,2c0.7,0.3,1.4,0.6,0.9,1.8c-1.2-0.2-2.1,0.4-2.9,1.4
					c-0.6,0.7-0.9,1.3-0.6,2.2c0.3,1-0.1,1.7-0.8,2.4c-0.6,0.6-1.3,1.3-1.8,2c-1.5,1.9-1,3.7,1.2,4.7c0.4,0.2,0.7,0.4,1.3,0.8
					c-0.8,0.4-1.3,0.6-2,0.9c0,0.5,0.1,1.1,0,1.7c-0.1,1.2,0.2,2,1.4,2.5c0.3,0.1,0.5,0.3,0.8,0.5c1.2,0.6,1.8,1.4,1.6,2.8
					c0,0.4,0.1,0.8,0.2,1.3c1.2,0.1,2.3,0.1,3.3,0.3c2.4,0.5,4.7,1.3,6.4,3.2c1.7,1.8,3.7,1.8,5.9,1c1.9-0.7,3.9-1.5,5.8-2.1
					c1.1-0.3,2.3-0.4,3.4-0.6c0.6,1.3,1,2.4,1.5,3.4c1,2,0.6,4-0.2,6c-0.2,0.4-0.7,0.7-1.1,0.9c-0.9,0.4-1.8,0.6-2.9,1
					c1,2.3-0.2,3.7-2.2,4.8c0.6,1.4,1.1,2.7,1.6,4c-1.1,1.4-3.5,1.4-3.2,3.8c-0.6,0-1,0.1-1.4,0.1c-1.1-0.1-2,0.2-2.7,1.1
					c-1.4,1.6-3.1,2.4-5.2,2.4c-0.3,0-0.6,0.1-1.1,0.2c0,0.8-0.1,1.7-0.1,2.5c0,0.8-0.1,1.6-0.1,2.1c-1.2,0.6-2.1,1-3,1.5
					c0,0.1,0.1,0.2,0.1,0.3c-1.1-0.2-2.2-0.3-3.5-0.5c-0.3,2.1-0.2,4.3-2,6.1c-1.8,1.9-4.2,1.1-6.4,2.1c0,2.7-1.4,4.7-3.8,6.3
					c0.9,0.1,1.8,0.2,2.8,0.2c0,1.4,0,2.7,0,4.1c-1.4,1.2-2.9,1.5-4.7,0.6c-0.9,1.4-2.1,1.8-3.7,1.7c-1.8-0.1-2.4,0.5-2.9,2.4
					c-0.2,0.6-0.4,1.1-0.6,1.6c-1.5-0.6-2.8-1.2-4.1-1.6c-0.6-0.2-1.3-0.1-1.8,0.2c-1.6,0.8-1.7,1.3-1.3,3c0.1,0.3,0.2,0.7,0.4,1.1
					c-0.6,0-1.2,0-1.9,0c0.2-0.4,0.4-0.6,0.4-0.9c0.1-0.4,0.1-0.7,0.1-1.3c-1.7-0.2-3.4-0.4-5.1-0.4c-0.5,0-1,0.3-1.4,0.5
					c-0.7,0.4-1.4,0.8-2.1,1.3c-2.8,1.8-3.2,1.7-4.1-1.5c-0.2-0.8-0.6-1.2-1.3-1.6c-1-0.6-1.9-1.4-2.9-1.9c-1.8-0.9-3.6-1.6-5.7-1.6
					c-2.1,0-4.2,0-6.5,0c0.4-1.1,0.7-2,1.1-2.9c-1.1-0.1-2-0.2-3-0.3c0.3-1.4,2.9-1.8,1.3-3.8c-3.5,1.6-7.3,0.6-11,0.8
					c-0.8,0-1.6,0-1.8-0.9c-0.6-2.4-2.4-3.2-4.7-3.8c-0.6,0.5-1.3,1.1-2.1,1.8c0.9,1,1.7,1.8,2.6,2.7c-4.2,1.9-8.2,0.7-12.1-0.3
					c0.5-2.4,0.7-2.6,3.2-3c-0.6-1.3-0.6-1.4-1.9-1.5c-2.9-0.3-5.9-0.4-8.8-0.7c-0.6,0-1.3-0.1-2.1-0.2c0.4-1.8,1-3.1,2.7-4
					c1.5-0.8,2.9-1.8,4.5-2.7c-1.5-1.7-1.3-3.3,0-5c1.6,0.2,3.2,0.4,5.1,0.6c0.3-2.2,0.6-4.3,0.9-6.4c0.1-0.6,0.2-1.2,0.2-1.8
					c0.1-1.1,0.6-1.9,1.6-2.4c1.4-0.7,2.7-1.5,4.1-2.3c2-1.2,2.2-3,0.6-4.7c-1.1-1.2-2.3-2.3-3.4-3.5c-0.4-0.4-0.9-1.2-0.8-1.7
					c0.4-2.4-0.8-4.3-2-6.2c-1.8-2.9-1.7-3.2,1.7-3.5c1.9-0.2,2.1,0,1.8,2.1c-0.3,1.9-0.3,1.9,1.2,3.3c0.5-0.5,1.1-0.9,1.6-1.5
					c0.7-0.8,1.5-1.3,2.6-1.4c0.7-0.1,1.4-0.8,2.2-1.4c1.2,0.2,2.8,0.4,4.3,0.6c0.3,0.9,0.5,1.8,0.8,2.7c2.8,0.2,5.5,0.5,8.3,0.7
					c1,2.4,2.6,4.2,5.5,4.3c2.1,0.1,2.8-1.6,3.7-3.4c0.7,1,1.2,1.8,1.8,2.6c0.2-0.1,0.4-0.2,0.6-0.3c0.2-1.3,0.3-2.5,0.4-3.8
					c0.2-1.3,0.3-2.6,0.4-4.1c-1.3-0.4-2.4-0.8-2.8-2.2c-0.1-0.4-0.7-0.7-1.2-0.9c-1-0.4-2.1-0.7-3.2-0.9c-1.4-0.2-2.1-0.9-2.1-2.6
					c0.6-0.5,1.4-1.1,2.2-1.7c-0.6-0.6-1.2-1.1-1.9-1.7c1.9-0.8,3.3,0.4,4.9,1c0.8-0.9,1.7-1.8,2.6-2.9c-0.3-0.4-0.5-0.7-0.8-0.9
					c-1.3-0.8-1.4-1.8-1-3.2c0.7-2.4,0.6-2.3,3.1-2.7c1.3-0.2,2.6-0.6,3.7-1.2c0.6-0.3,1-1.2,1.8-2.2c-0.9-0.4-1.6-0.6-2.4-1
					c1.4-1.2,2.4-0.9,3.3-0.8c1.3,0.1,2.1-0.7,2.7-1.6c0.3-0.4,0-1.2,0-2.1c0.4-0.6,1-1.1,2.1-0.6c0.4,0.2,1.2-0.1,1.5-0.4
					c1.1-1.1,2.2-1.3,3.6-0.8c1.1,0.4,2.1,0.4,3-0.8c0.2-0.3,0.9-0.4,1.4-0.4c0.8-0.1,1.6,0,2.7,0c0-1.4,0-2.8,0-4
					c0-0.3-0.2-0.8-0.4-1c-1.2-0.5-1.4-1.6-1.7-2.9c-1.2-0.2-2.4-0.4-3.6-0.6c-0.5-2.3,0.1-3.9,1.5-4.3c2-0.6,2.5-0.2,3.7,3.1
					c0.6,0,1.3,0,1.9-0.1c0.6-0.1,1.3-0.2,2-0.3c0.2-0.6,0.3-1.1,0.4-1.6c0.4-1.5,0.6-1.6,2.1-1.7c1.6,0,3,0.2,3.4,2
					C14172.1,521.8,14173.7,522.2,14175.2,522.8z"/>
			</g>
		</g>
		<g id="Vector_9_" figma:type="vector">
			<g transform="translate(14243.4 278.709)">
				<path id="path9_fill" class="st1" d="M13983.3,269.3c1,0.2,2,0.4,2.9,0.5c2.5,2.5,4.9,5,7.4,7.4c0.9,0.9,1.4,1.8,1.7,3
					c0.3,1.4,1,2.8,1.5,4.2c-0.7,1.3-1.5,2.7-2.3,4.1c0.2,0,0.3,0,0.5,0c0.1,0.6,0.4,1.2,0.4,1.8c0,0.7-0.3,1.4-0.4,2.2
					c-0.1,0.4-0.2,1,0,1.3c0.8,1.4,0.9,2.9,1,4.5c0,0.4,0.5,0.8,0.8,1.2c-0.6,1.3-1.1,2.6-1.6,3.7c0.6,1.1,1.3,2,1.7,3
					c0.3,1,0.3,2,0.5,3.3c-0.6-0.2-1.1-0.3-1.6-0.4c-0.9,2.5-1.9,5-2.8,7.5c-0.5,1.5-1.4,2.4-3.1,2.8c-1.4,0.4-3.2,0.4-3.9,2.2
					c0.5,1.4,1,2.8,1.4,3.9c-0.4,1.5-0.7,2.7-1.1,4.2c-0.8,0.5-1.9,1-3.2,1.7c0,0.7,0,1.4,0,2.1c0,0.9-0.5,1.4-1.4,1.4
					c-1.4-0.1-2.8-0.1-4.1-0.4c-1-0.3-1.8-0.3-2.7,0.2c-1.2,0.7-2.5,1.3-3.7,2c-0.5,0.3-1.1,0.7-1.6,0.6c-2.6-0.4-3.8,1.6-5.2,3
					c0.2,0.7,0.7,1.3,0.6,1.9c-0.1,1.6,0.7,2.7,1.9,3.5c1.6,1,2.3,2.4,2.1,4.3c-0.1,0.6,0,1.3,0,2c0,1.9-0.7,2.7-2.5,3.3
					c-1.5,0.5-2.9,1.3-4.3,1.9c-0.1,2.6,2.6,4.3,1,7c-0.7-1-1.4-1.9-2.1-2.8c-0.6-1-1.2-1.4-2.5-0.9c-1.9,0.8-2.6,0.3-3.9-1.2
					c-0.8-0.9-2-1.5-3.5-2.6c-0.1-0.4-0.2-1.4-0.4-2.3c-0.1-0.9-0.2-1.8-0.4-2.6c-0.5-2.1-1.6-2.9-3.7-2.9c-0.7,0-1.3,0.1-2,0
					c-1-0.1-1.7,0.3-2.4,1c-0.8,0.8-1.8,1.6-2.6,2.4c-0.9,1-1.9,1.3-3.3,0.7c-0.2-0.5-0.4-1-0.5-1.6c-0.2-0.8-0.5-1.5-1.5-1.7
					c-1.1-0.2-1.3-1-1.4-2c-0.2-0.8-0.3-1.8-0.8-2.5c-0.9-1.3-2.2-1.6-3.9-1.1c-0.9,2.5-2.9,2.9-5.3,2.3c-1.7-0.4-3.2-0.2-4.6,0.8
					c-0.7,0.5-1.5,0.9-2.3,1.4c-0.6-0.4-1.3-0.7-1.9-1c-0.8,0.5-1.6,1-2.6,1.6c-0.5-0.4-1.3-0.8-1.6-1.4c-0.8-1.9-2.4-2.4-4.3-3
					c-0.2,0.2-0.6,0.3-0.9,0.6c-1,1-2.1,0.8-3.3,0.4c-1-0.4-2.1-0.6-3.1-1c-0.9-0.4-1.8-0.9-2.9-1.4c-0.4,0.4-0.8,0.9-1.3,1.4
					c-0.3,0.3-0.6,0.7-1,0.9c-1,0.6-2,1.1-3.2,1.8c-2.9-1.2-3.8-3.9-4.3-7.1c1.5-0.3,2.8-0.6,4.2-1c0-2.2,0-2.3-1.8-2.6
					c-1.7-0.2-2.7-1-3-2.7c0-0.1-0.1-0.3-0.1-0.4c-1.3-2.4-1.3-4.5,0.2-7c1.3-2.2,1.2-4.9,0-7.2c-1.1-2.2-1.7-4.4-1.5-6.8
					c0.1-1.4,0.2-2.8-0.8-4c-0.1-0.2-0.2-0.4-0.2-0.6c-0.2-2.6-1.6-4.5-3.4-6.3c-1.8-1.8-2.9-3.8-2.4-6.6c0.1-0.7-0.5-1.6-0.7-2.3
					c0.3-1,0.7-2,0.9-3c0.4-1.9-0.2-3.3-2-4.2c-0.3-0.1-0.5-0.4-0.7-0.6c-0.5-0.4-1.1-0.8-0.6-1.6c0.4-0.7,1-0.5,1.6-0.3
					c2.8,0.8,5.7,1.5,8.1,3.5c0.4,0.4,1,0.6,1.6,1c0.5-0.3,1-0.5,1.3-0.8c1.9-1.8,4.1-2.2,6.5-1.8c1.2,0.2,2.3,0.2,3.6,0.3
					c0.5,1.3,1,2.6,1.6,4.1c-2.6,0.1-2.3,2.3-3.2,3.8c1,1.2,1.9,2.5,3,3.5c1.2,1.2,1.8,2.6,1.8,4.4c0,0.6,0.1,1.1,0.2,1.8
					c1.8-0.5,3.6-0.9,5.3-1.4c1-0.3,1.8-0.3,2.7,0.3c1.5,1,3.3,1.3,5,1.5c3.4,0.4,6.8,0.8,10.1,1.5c1.8,0.4,3.6,1.4,5.2,2.4
					c1.5,0.9,2.7,1,4.3,0.3c3.3-1.4,6.7-2.7,9.7-4.7c1.4-0.9,2.9-1.7,4.7-1.8c0.3,0,0.6-0.2,1.4-0.6c-1-0.3-1.5-0.5-2-0.7
					c-0.8-0.3-1.8-0.4-2.5-0.8c-1-0.7-1.9-1.6-2.8-2.4c0.4-1.7,0.5-3.6,1.2-5.1c0.8-1.9,2.2-3.5,3.4-5.2c0.2-0.4,0.6-0.7,1-0.9
					c2.9-1.5,5.8-3,8.7-4.3c5.7-2.5,11.8-3.7,17.8-5.2c1.3-0.3,2.5-0.8,3.5-1.7C13978.7,272.7,13981,271,13983.3,269.3z"/>
			</g>
		</g>
		<g id="Vector_10_" figma:type="vector">
			<g transform="translate(14145 333.479)">
				<path id="path10_fill" class="st1" d="M13782.4,334.9c0.1-0.5,0.2-0.9,0.3-1.2c0.4-1.3,0.8-1.4,2.1-1.1c0.8,0.2,1.6,0.2,2.3,0.3
					c0.3,0,0.6,0,0.8-0.2c2.1-1.4,2.1-1.4,3.9-1.4c0.2,0.5,0.4,1,0.7,1.5c0.8,0.5,2.3-0.4,3.5-2.2c1.7,0.1,3.5,0.2,5.4,0.2
					c0,0.1,0,0.2,0,0.4c0.5-0.4,1-0.8,1.7-1.4c0.2,1.2,0.4,2.2,0.5,3.3c1.1,0,2.1-0.1,2.5,1.2c0.1,0.2,0.8,0.1,1.3,0.2
					c0.1-1.1,0.2-2.2,0.3-3.2c2.8-0.6,5.3-0.5,7.6,1.5c0.9-1.2,1.7-2.3,2.5-3.4c-0.4-0.7-0.7-1.3-1.1-2.1c1.1-0.7,2.2-1.4,3.3-2.2
					c1,0.6,1.8,1.2,2.8,1.9c1.5-2.4,4.6-0.5,6.3-2.8c0.5,0.8,0.8,1.3,1.2,2c0.6-1.9,2.1-1.5,3.6-1.5c0.1,0.6,0.2,1.1,0.3,1.8
					c0.5,0.2,1,0.4,1.6,0.6c0,0.8,0,1.5,0,2.4c0.8,0.3,1.5,0.6,2.3,0.9c0,0.6,0,1.2,0.2,1.7c0.2,0.6,0.4,1.4,0.8,1.6
					c1.8,1.2,3.2,2.5,2,4.7c0.4,0.3,0.5,0.5,0.7,0.6c2.8,1.5,2.8,1.4,3.3,4.5c0.5,0.2,1.3,0.4,1.3-0.5c0.1-1.2,0.8-1.6,1.7-2.1
					c0.9-0.5,1.8-1,2.7-1.5c2-1.1,2-1.1,3.2-3c1.5-0.1,3.2,0.8,4.7-1c0.2,1.1,0.4,1.9,0.5,2.8c2.5-1.3,2.5-0.9,3.2,1.9
					c0.6,0,1.1,0,1.8,0c0.3-0.6,0.6-1.2,0.8-1.7c0.6,0,1.1-0.1,1.6,0c1.2,0.2,1.9-0.3,2.6-1.2c1.9-2.2,1.9-2.2,5.1-1.5
					c-0.5,0.8-1,1.6-1.5,2.5c1.5,1.4,3.2,2.2,5.3,2.1c1.8-0.2,3.7,0,5.6,0c1,3,1.2,6.3,4.3,8c0.8,0.5,1.7,0.8,2.5,1.2
					c1.1-1,1.7-2.3,3.2-2.4c0.6-0.1,1-1,1.4-1.4c1.6,0.4,3.1,0.8,4.7,1.2c0,0.9,0,1.8,0,2.7c0,1,0,1.9,0.6,3c0.5,1,0.8,2.4-0.3,3.3
					c-1.6,1.4-1.2,3-1.2,4.7c0.1,1.5,0.3,2.9,0.4,4.4c0.1,1.2,0.1,2.3,0.9,3.5c0.6,0.9,0.3,2.4,0.4,3.7c-0.6,0-1,0-1.3,0
					c-1.9-0.1-2.6,0.3-3.2,1.9c-0.9,2.3-1.7,4.6-2.5,6.8c-0.2,0.5-0.4,1.1-0.6,1.6c-1.6,0-2.9-0.2-3.7-1.7c-0.9-1.7-2.6-0.8-4-1.5
					c-0.3,0.8-0.5,1.4-0.8,2.2c-2.7,0.1-5,1-5.9,4.1c-2.1,0.1-4.3,0.4-6.4,0.3c-3.5-0.2-6.3,1.1-9.1,3.1c-0.1,1.5-0.2,3-0.2,4.6
					c-2.5,1.2-4.8,2.3-7.3,3.3c-1.4,0.6-2.6,0.3-4.1-1c-0.8,0.6-1.5,1.2-2.3,1.8c-0.1-0.1-0.3-0.2-0.4-0.3c0.2-0.6,0.5-1.2,0.9-2.1
					c-1.2-0.1-2.3-0.4-3.5-0.3c-2.3,0.1-4.6,0.3-6.8,0.6c-0.9,0.1-1.5-0.1-2-0.9c-0.6-0.8-1.5-1.5-2.4-2.4c0.2-1,0.8-1.2,2-0.7
					c1.1,0.5,2.3,0.9,3.7,1.4c0.3-0.7,0.8-1.4,0.6-1.8c-0.6-1.4-1.7-2.4-3.4-2.4c-0.5,1.8-1.9,1.2-3.1,1.1c-0.4,0.5-0.7,1-1.2,1.7
					c-0.9-0.8-1.8-1.6-2.8-2.5c-0.2,0.4-0.5,0.9-0.8,1.4c-0.6,0-1.2,0-1.7,0c-1.1,1.7,0.6,3.5,0.1,5.3c-2.3-1.2-2.5-1.2-1.9-3.3
					c0.6-2.4-0.2-4.1-1.8-5.7c-1.9-1.9-4-3.2-6.6-3.8c-0.9-0.2-1.5-0.6-1.9-1.4c-0.8-1.7-1.9-2.6-3.9-2.4c-1.4,0.1-3-0.2-3.7-1.7
					c-1.7,0.9-3.6,0.8-4.9,0.2c-1.3-0.7-2-2.6-3-3.9c-1.8,0.8-1.8,0.8-3.8-0.2c-0.6-0.3-1.4-0.4-2.1-0.5c-0.6-0.1-1.3-0.2-1.9-0.3
					c1.4,2.8,1.1,3.4-2,3.4c-1.6,0-3.2-0.3-4.7-0.4c0.2-1.4,0.5-2.5,0.5-3.7c0.1-3.1-1.9-5.1-3.9-7.2c-0.2-0.2-0.4-0.5-0.5-0.4
					c-2,0.6-3.3-1.4-5.1-1.3c-0.6,0-1.3-0.4-2-0.6c0.3-1.5,1.2-1.7,2.3-1.8c4-0.2,8.1-0.5,12.3-0.8c1.2-0.9,1.2-2.3,0.6-3.8
					c-0.2-0.4-0.5-0.8-0.8-1c-1.6-0.8-3.2-1.4-5-2.2c-0.7,0.9-1.4,1.8-2.5,3.2c0-1.8,0-3,0-4.3c-1-0.4-1.8-0.8-2.9-1.2
					c0.7-0.9,1.4-1.6,2-2.4c2,0.8,3.9,1.5,5.9,2.2c1.9,0.6,3.9,0.6,6.2,0.3c-0.8-1.8-2.5-0.8-3.6-1.4c0-0.6,0.1-1.2,0.1-2
					c-1.1,0.4-2.1,0.7-3.4,1.2c0.2-1,0.3-1.8,0.5-2.7c-3.7,1.5-7.7,1.1-11.7,1.7c0-2,0-3.7,0-5.8c0.5-0.4,1.3-1.2,2.2-2
					c-0.6-0.6-1.2-1-1.7-1.5c1-1.9,2.2-3.3,4.6-3C13780.9,335.1,13781.7,334.9,13782.4,334.9z"/>
			</g>
		</g>
		<g id="Vector_11_" figma:type="vector">
			<g transform="translate(14357.2 322.632)">
				<path id="path11_fill" class="st1" d="M14041.9,318.6c1.3,0.4,1.8,1.1,1.8,2.2c0,1.8,0.8,3.2,2.3,4.3c1.4,1.1,2.7,2.2,4.1,3.3
					c0.2,0.1,0.4,0.3,0.5,0.4c0.5,1.5,1.4,2.3,3.3,2.3c-0.3,0.6-0.4,0.9-0.6,1.2c-0.4,0.8-0.7,1.5-1,2.3c-0.4,1,0.4,1.5,1,2.2
					c0.5,0.6,0.8,1.8,0.6,2.6c-0.5,2.5-0.4,2.8,2.2,3.4c-1.6,0.5-2.3,1.4-2.1,2.8c-1.6,2.3-1.8,4.9-2.3,7.5c-0.2,1-1,1.4-2,1.4
					c-1.3,0-2.7-0.1-4-0.1c-3.9-0.1-5.5,1-7,4.8c0.3,0.5,0.7,1,1,1.6c-1.8,2.3-3.4,4.5-5.9,5.3c-1.4-0.3-2.5-0.6-3.7-0.9
					c-0.5,1.7-1.7,1.9-3,1.8c-1.9-0.1-3.9-0.4-5.8,0.4c0.7-0.6,1.3-1.1,2.1-1.7c0-0.6,0-1.1,0-1.7c0.1-1.3-0.4-2.2-1.6-2.8
					c-0.7-0.3-1.2-1-1.7-1.7c-0.6-1-1.4-1.6-2.7-1.6c-1.9,0.1-3.9-0.1-5.1-1.9c-1.2,0.8-2.2,1.8-3.4,2.2c-1.1,0.4-2.5,0.2-3.8,0.4
					c-0.4-2.4-0.9-4.7-1.4-7.1c-0.9-0.2-1.6-0.5-2.4-0.6c-1.7-0.2-2.6-1.2-2.9-2.9c-0.2-1-0.3-1.9-0.5-3c-0.6-0.2-1.2-0.4-1.8-0.6
					c-0.4-2.3-3.2-2.7-3.7-4.9c-0.2-1-0.3-0.9,0.8-3.4c-1.8-1.4-1.3-3.2-0.6-4.8c-1.2-2-2.3-3.9-3.5-5.9c0.2-0.3,0.5-0.8,0.9-1.4
					c-0.6-0.2-1.1-0.4-1.7-0.6c-0.2-0.7-0.5-1.4-0.8-2.3c1-0.3,1.9-0.8,2.8-0.9c2.3-0.3,3.2-1.8,3.8-3.7c0.4-1.2,0.7-2.3,1.2-3.6
					c2.2,2.3,2.2,2.4,5.4,2.7c2.5,0.2,5,0.2,7.2-1.8c1,0.6,2,1,2.8,1.7c1,0.8,2,1,3.1,0.4c1.9-1.1,3.5-0.5,5.1,0.6
					c2,1.3,4,2.5,6.2,3.8c0.4-0.2,1.1-0.6,1.9-1.1c1.8,0.8,3.5,3,5.6,0.4c1.5,1,3,1.2,4.5,0.2c0.2-0.1,0.5-0.2,0.6-0.2
					C14039.4,320.8,14040.6,319.6,14041.9,318.6z"/>
			</g>
		</g>
		<g id="Vector_12_" figma:type="vector" class="st2">
			<g transform="translate(14479.8 565.248)">
				<path id="path12_fill" class="st1" d="M14114.7,557.6c-0.7,1-1.4,2.1-2.2,3.2c-0.7,0-1.4,0-2,0c-0.8-2-0.4-3.9,0.8-4.7
					C14112.3,555.4,14113.3,555.8,14114.7,557.6z"/>
			</g>
		</g>
		<g id="Vector_13_" figma:type="vector">
			<g transform="translate(14535.6 626.32)">
				<path id="path13_fill" class="st1" d="M14169.1,649c0.2-1.6-0.1-3.1,0.6-4c0.7-0.9,1.2-1.8,1.3-2.8c0.9,0.2,1.8,0.3,2.6,0.4
					c1.6-4.1,4.9-5.4,8.8-5.8c0.2-0.8,0.4-1.6,0.6-2.2c0.7-2,2.1-2.8,4.1-2.4c0.3,0,0.6,0.2,0.8,0.2c1.6-0.3,2.7,0.3,3.4,1.7
					c2.5-1,3.4-4.3,1.6-6.1c-0.9-1-1.2-1.8-0.4-2.9c0.2-0.2,0.4-0.6,0.4-0.8c-0.7-1.2,0.3-1.8,0.9-2.5c-2.1-3.3-2-3.3,1-4.9
					c1.4,0.3,2,1.3,2.3,2.6c0.4,1.6,0.7,3.2,1.2,4.7c0.5,1.7,0.6,3.3,0.2,5.1c-0.5,2.1-0.1,4.5,0,6.8c0,0.5,0.8,1.1,1.3,1.4
					c1.6,1.1,2.3,2.6,2.3,4.5c0,1.7,0.2,3.4,0.2,5.1c0,2.1,0.2,4.1,1.4,5.9c0.1,0.1,0.2,0.3,0.2,0.4c0.1,3.5,0.4,6.9,0,10.4
					c-0.2,1.4-1.6,2.8-2.6,4c-1,1.2-1.4,2.5-1.2,4.1c0.2,2.5,0.4,5,0.5,7.5c0.1,3-0.1,5.9-1.4,8.6c-0.9,0.1-1.7,0.2-2.6,0.3
					c0,0.5-0.1,1-0.1,1.6c1.1-0.3,2-1.4,3.1-0.5c0.5,1.3-0.4,1.8-1.4,2.4c-2.1,1.2-2.2,1.3-1.4,3.7c-0.6,0.7-1.2,1.4-2,2.2
					c0.5,0.3,1,0.6,1.5,0.9c-0.2,0.9-0.4,1.8-0.6,2.7c-1.2,0.2-2.3,0.5-3.2-0.8c-0.3-0.4-1.4-0.3-2.2-0.4c0.1-0.2,0.1-0.5,0.2-0.8
					c0.1-0.2,0.1-0.4,0.2-0.7c-1.5-1-3.1-1.5-4.8-2c-2.2-0.6-4.5-0.9-6.4-2.4c-0.9-0.7-1.8-1.5-2.7-2.3c0.5-1.2,0.9-2.2,1.3-3.3
					c1.9,0.4,2.6-1.2,3.7-2.5c-1.5-0.7-3-0.4-4.4-0.7c-1.4-0.2-2.9-0.6-4.4-0.9c0.2-2.1,1.4-3.4,3.1-4.6c-0.9-1-1.1-2-0.3-3.1
					c0.2-0.3,0.1-0.8-0.1-1.2c-0.1-0.2-0.8-0.3-1-0.1c-1.6,1.2-3.3,0-4.8,0.5c-1-2.5-0.2-4.9,1.9-6.2c0.4-0.2,0.8-0.5,1.1-0.8
					c0.2-0.2,0.3-0.5,0.5-0.8c-0.4-1.4-1.2-2.3-2.7-2.6c-1.2-0.3-2.4-0.7-3.3-1c-0.5-1.9-0.9-3.6-1.4-5.5c1.2-0.4,2.7-0.8,4.1-1.2
					c0.4-1.2,0-1.8-0.9-2.3c-1-0.5-1.9-1.1-2.8-1.7c-1.2-0.9-1.1-1.4,0.1-2.4C14167.6,650.7,14168.4,649.7,14169.1,649z"/>
			</g>
		</g>
	</g>
</g>
</svg>
