<?xml version="1.0" encoding="utf-8"?>
<!-- Generator: Adobe Illustrator 19.1.0, SVG Export Plug-In . SVG Version: 6.00 Build 0)  -->
<svg version="1.1" xmlns="http://www.w3.org/2000/svg" xmlns:xlink="http://www.w3.org/1999/xlink" x="0px" y="0px"
	 viewBox="0 0 1024 768" style="enable-background:new 0 0 1024 768;" xml:space="preserve">
<style type="text/css">
	.st0{fill:#CCCCCC;stroke:#000000;stroke-width:2;stroke-miterlimit:10;}
</style>
<g id="_x31_">
	<path class="st0" d="M521.5,427.4l11.4-11.9l10.7-4.6l5.3-5.9l12.8,14.9l8.5,8.8l3.7,6.9l4.7-3.7L589,434v9l6.6,1.7
		c0,0-3.3,16.6-9.2,22.4l-13.3-5.9l-0.5-7.1L552.1,443H548l-1.2,3.5l-14.9-7.9l0.8-5.4L521.5,427.4z"/>
</g>
<g id="_x32_">
	<path class="st0" d="M614.3,443.1l-16,14.9H592c0,0-1.2,4.3-5.5,9.4l-8.4-3.8l-4.1,2.1l4.4,11.2l-2,6.9l14.1-2.4l10.7-0.3l4.8-11.7
		l8.3-0.5l9.3-7.1L614.3,443.1z"/>
</g>
<g id="_x33_">
	<polygon class="st0" points="549,405 543.6,399 535.6,377.7 521.5,379 511.3,381.3 506.5,378 491,378 481.1,388.1 468.8,389.3 
		452,399.9 439.2,418.6 450.1,429.5 459.7,442 480.3,464.7 490.2,467.6 500.9,472 524,472 525.9,478.7 533.4,484 547,484 
		550.2,487.4 576.4,483.8 578.4,476.8 574,465.5 578.1,463.4 573.2,461.2 572.7,454.1 552.1,443 548,443 546.8,446.5 531.8,438.7 
		532.6,433.3 521.5,427.4 532.9,415.5 543.6,410.9 	"/>
</g>
<g id="_x34_">
	<polygon class="st0" points="507.8,520.8 505.5,515.6 512.1,508.6 490,493.3 494.6,485.7 505.2,483.7 529.6,493.5 533.4,484 
		547,484 550.2,487.4 576.4,483.8 590.5,481.3 601.2,481 606,469.3 614.3,468.7 623.6,461.5 622.6,479.8 624.4,488.3 609.5,489.6 
		604.2,492.6 603.4,502.7 591.9,513.1 594.7,534.6 597.5,539.6 584.5,548.4 576.2,537.7 567.9,536.4 561.6,534.5 548.1,538.4 
		540.2,528.6 534,527.8 531.9,521.2 	"/>
</g>
<g id="_x35_">
	<polygon class="st0" points="538.8,300.4 544.2,309.7 561.8,311.6 567.8,307.2 585.9,311.6 620,282.7 632.4,284.6 635.1,291.2 
		630.4,300.3 633.7,305.5 648.3,297.1 662.3,298.6 668,303.3 668,312 672,316 684.2,317.3 690.3,309.9 696.1,311 699.4,321.2 
		713.2,328.9 711.7,343.4 741,363.2 741,375 713,375 707.1,377.8 698.6,382.6 703.5,397.6 686.2,416 678,416 657.6,434.7 
		648.3,438.7 637.9,451.8 623.6,461.5 614.3,443.1 598.3,458 592,458 595.6,444.9 589,443 589,434 578.7,431.9 573.9,435.6 
		570.2,428.7 561.7,419.9 549,405 543.6,399 535.6,377.7 543.9,364.9 541.9,356.1 526,335.5 533.4,328 	"/>
</g>
<g id="_x36_">
	<polygon class="st0" points="416.2,145.6 419.4,158 428,158 439.2,147.6 458.4,145.4 482.2,135.9 508.8,146.7 513.2,140.7 
		532,146.7 532,138 558.4,140.5 562.1,133 568,133 573.8,108.6 586,105.3 586,97 618,97 628.5,85.4 646.2,81.1 643.2,64.5 
		684.6,71.8 697.4,91.3 707.2,92.5 741.5,106.7 745,127 737,127 737.1,134.5 752.3,143 763,143 767.4,157.8 774,160.8 774,180 
		778.3,185 789.5,211 798,211 839.5,227.5 846.8,236.6 827.9,251.1 771.8,245.6 769.4,258.4 779.2,260.8 776.7,283.1 784.6,289 
		827,289 840.8,300 859,300 866.4,308 862.7,318.3 866.4,345 873.1,348 880.4,365.1 868.2,372.1 856,380.3 824.9,382.8 816.4,377.5 
		770,382.8 759,389 741,389 703.5,397.6 698.6,382.8 713,375 741,375 741.5,363.5 711.9,343.6 713.2,328.9 699.4,321.2 696.1,311 
		690.4,309.9 684.3,317.3 672,316 668,312 668,303 662.3,298.6 648.2,297.1 633.7,305.5 630.4,300.3 635.1,291.2 632.4,284.6 
		620,282.7 585.9,311.6 567.8,307.2 561.8,311.6 544.2,309.7 538.8,300.4 533.4,328 526,335.5 541.9,356.1 543.9,364.9 535.6,377.7 
		521.5,379 511.3,381.3 506.5,378 491,378 485.4,383.6 465.7,369.5 464.3,356.7 449.4,358.1 446,354.7 431.9,354.1 431,315 
		439,299.1 449.6,298.7 461.2,286 455.8,271.5 449.3,273.3 440.5,269 423.8,268.2 416.7,246.9 404.2,245.3 398.4,237.9 397.7,230.1 
		359.4,220.5 355.7,215.4 364.8,201 366.8,188 359,182.5 366.9,170 379.4,173 383.8,162.1 398.8,161.5 	"/>
</g>
<g id="_x37_">
	<polygon class="st0" points="328,254 328,274 315,274 315,259 309.2,258.4 287,268.3 281.6,264.8 283.8,258.5 265.9,254.4 
		255.7,288.8 242.1,291.8 235,291 228.4,287.5 212.5,289 206.3,278.8 194.6,286.6 190.3,293.8 193.7,299.7 190.3,307.5 198,313.6 
		197.6,319.1 182,314.9 168.8,326.5 143.7,340.5 156.2,350.1 163.8,365.5 158.9,389 143.7,393 184.9,418.4 198.8,420.8 199.2,411.6 
		205.5,408.5 229.1,413 253.1,437.8 256.9,422.5 257.2,411 252.7,409.6 252.4,400 272.6,384.4 280.4,383.5 283.7,385.8 291.2,381.3 
		297.5,383.9 303.4,359.9 315.6,356.9 316.1,347.6 321.7,344.4 330.2,353 345.4,346.6 354.2,364.6 365.8,365.2 375.2,353.1 378,338 
		382.8,329.6 368.2,319.8 370.1,316.5 387.8,317.9 407,307.9 407,292 414.2,287.3 418.2,280 427.2,284.8 439,299.1 449.6,298.7 
		461.2,286 455.8,271.5 449.3,273.3 440.5,269 423.8,268.2 416.7,246.9 404.2,245.3 398.4,237.9 397.7,230.1 359.4,220.5 352.9,248 
			"/>
</g>
<g id="_x38_">
	<polygon class="st0" points="416.1,402 439.2,418.5 452,399.8 468.8,389.2 481.1,387.8 485.4,383.4 465.7,369.4 464.3,356.6 
		449.4,358.1 446,354.7 431.9,354 431,315 439,299.1 427.3,284.8 418.3,280 414.2,287.3 407,292 407,308 387.8,317.9 370,316.5 
		368.1,319.8 382.8,329.6 378,338 375.2,353.1 365.8,365.2 354.2,364.6 345.4,346.6 330.2,353 321.7,344.4 316.1,347.6 315.6,356.9 
		303.4,359.9 297.5,383.9 291.2,381.3 283.7,385.8 280.4,383.5 272.6,384.4 252.4,400 252.7,409.6 257.2,411 256.9,422.5 
		253.1,437.8 300.5,417.6 309.1,402 314.6,406.3 320.1,403.2 335.5,401.3 360,400.8 372.2,397 387.4,400.8 	"/>
</g>
<g id="_x39_">
	<polygon class="st0" points="375.8,408.4 338.7,417.4 314,420 306.4,445.9 315.3,457.8 310,490.9 281,494.7 281,502 274.2,509.1 
		355.6,536.3 368.8,552 389.5,583.4 396.3,585.1 406.5,607.6 415.9,610.6 419.3,624.6 432.4,635.2 452.4,637.4 456.2,642.5 
		453.7,650.9 474.5,656.9 490,653.5 490,663 495.9,667.5 498.6,682.8 505.8,687.5 516.9,682.8 526,694.3 537.7,690.9 578.4,705.3 
		581.9,695.5 591.2,697.2 601.9,691.7 598.8,681.1 591.2,677.7 583.2,663.3 590.4,664.1 592.9,652.6 584,639.5 586.6,637.8 
		581.5,629.7 585.7,608.9 581.9,600.8 598.8,597.5 607.4,585.6 598.8,577.9 590.8,577.5 580.2,570.5 581.5,567 590,567 585.7,559.1 
		584.5,548.5 576.2,537.8 567.9,536.4 561.6,534.5 548.1,538.4 540.2,528.6 534,527.8 531.9,521.2 507.8,520.8 505.5,515.6 
		512.1,508.6 490,493.3 494.6,485.7 505.2,483.7 529.6,493.3 533.4,483.5 525.9,478.5 524,472 501,472 490.2,467.6 480.3,464.8 
		460.1,454 447,449.8 415.6,429.4 386.9,416.5 	"/>
</g>
<g id="_x31_0">
	<polygon class="st0" points="711.2,418.6 716,422.9 717.1,429.4 714.8,442.5 725.5,453.9 736.3,462.1 745.7,454.6 758.2,460.6 
		754.5,475.2 760,479.7 756.5,482.7 760,497 765,497.4 764.6,506.7 752.1,517.1 731.5,528.7 731.3,543.8 722.7,554.8 727.2,557.5 
		735.7,553.7 758.9,559.3 760.4,570.6 780.7,581.7 779.7,593.9 768.2,602.8 742.2,594.2 738.1,584.4 711.8,566.2 705,572.6 705,582 
		697.9,587.1 698.8,594.8 688.6,594.4 677,590.1 668.3,591.8 664.3,597.8 667.5,603.6 667.4,616.6 663,625.2 670.7,630.7 
		661.8,649.8 644.9,651.8 623.2,663.5 616.3,659.4 622.9,643.8 617.4,636.3 617.1,623.4 622.9,622.6 623.8,617.9 618.8,605.3 
		615.7,590 607.4,585.6 598.8,577.9 590.8,577.5 580.2,570.5 581.5,567 590,567 585.7,559.1 584.5,548.5 597.5,539.7 594.7,534.6 
		591.9,513.2 603.4,502.7 604.2,492.6 609.5,489.6 624.4,488.3 622.6,479.8 623.6,461.5 637.9,451.7 648.3,438.5 657.6,434.7 
		678,416 686,416 695.6,418.8 	"/>
</g>
</svg>
