<?xml version="1.0" encoding="utf-8"?>
<!-- Generator: Adobe Illustrator 19.1.0, SVG Export Plug-In . SVG Version: 6.00 Build 0)  -->
<svg version="1.1" xmlns="http://www.w3.org/2000/svg" xmlns:xlink="http://www.w3.org/1999/xlink" x="0px" y="0px"
	 viewBox="0 0 800 600" style="enable-background:new 0 0 800 600;" xml:space="preserve">
<style type="text/css">
	.st0{fill:#CCCCCC;stroke:#000000;stroke-width:2;stroke-miterlimit:10;}
</style>
<g id="c-un">
	<polygon class="st0" points="456,255.7 441.6,266.1 429.7,273.2 419,269.4 419,278 410.8,277.2 399.9,281.5 390.4,272.2 382,270.1 
		382,253 391.5,255.9 395.1,244 398,234.8 408.7,237 414.9,228.6 409.2,223.8 410.3,215.1 402,205.4 392.9,207.7 389,215.9 
		374.7,199 379.1,185.2 378.8,179.7 373.3,174.2 352.3,173.1 356.4,157.4 363.5,126.2 368.1,122.3 366,111.1 372.2,104.7 
		389.6,108.3 397.6,96 410,96 418.8,100.7 427,91.4 427,78 436.5,81.7 450.3,98.5 465.2,93.9 452.8,109.7 453.9,118 457.3,122.4 
		452.1,128.8 454.8,137.7 447,140.2 438.9,149.2 440.8,157 438.5,166.4 453.2,167.5 460,153 466.3,156 478,156 473.8,170.4 
		465.4,173.4 466.2,181.4 481.6,193 480,205.8 471.5,206.5 466.3,213.2 467.4,221.9 459.6,229.9 462.3,239.3 455.7,244.9 	"/>
</g>
<g id="c-deux">
	<path class="st0" d="M393.5,347.8l-8.8-5.9l-16-0.4l-1,7.9l-14.8,8.5l-7.6,9.3l1.2,7l-8.5,3.4l2.1,9.5l11.1,1.1l-2.1,9l0.5,10.6
		l-2.2,9.1l9.8,1.1l6.7-4.4l0.2,11.5l-12.6,16.4l7.6,5.2l-12.7,11.7l-13.2-1.9l-7.8,2.6l-11.7-2.7l-2.6-8.7l-12.1-3.2l-2.6-3.5
		l-7-1.2l6.8-10.3l-2.7-16.2c0,0-5.7-4.6-5-4.7c0.7-0.1,9.2-5.8,9.2-5.8l-0.2-17.7l-10.5-3l-9.5,0.9l-2.7-6.1l6.6-4.5l-1.2-9.6
		L275,359l11.3-3.1l12.2,12.2l5.2,1l11.1-7l-1-11.7l-17.7-13.8l-1.2-6.8l7.3-8.2l-3-6.1l-7-8.1l17.1,5.5l21.3,11.6l17.3-3l13.6-0.1
		l7-10.2l22.3-38.8l9.3,9.2l10.8-4.3l8.2,0.8v-9l10.7,4.2l26.1-17.4l-0.2-10.8l6.6-5.7l15.7,8.4l-8.2,8.6l7.2,5.1v7.6l-6,6.7
		l18.8,5.7l23.3,16l-9.4,9.6l-1.4,19.4l-11.3-0.7l-5.2-8.1l-1-9l-11,11.6l0.4,8.7l2.9,10.2l-8.3,4.2l1.9-12.6l-1.4-9.7l-7.2-2.2
		l-10.7,8.7l-17.2-4.6l-4.6,6.7l-5.5-5.4l-5,10.1l-0.4,7.6l-15.8-0.5L393.5,347.8z"/>
</g>
<g id="c-trois">
	<polygon class="st0" points="568,175 579,175 586.3,163.9 590.6,166.9 594.4,166.4 595.2,164 600,164 606.8,170.2 617.3,169.9 
		618.5,175.5 624.1,170.9 627.3,178 629.7,183.9 639.1,186.8 647,195.8 667.7,197 673,197 682.3,209.9 687.7,210.4 688.8,205.8 
		693.2,201.7 700,200.6 700,192 704.3,192 705.4,195.2 717,196.8 717,211 710.1,216.3 701.5,233.1 707.2,241.6 713.1,242.5 
		711.4,259.9 695.6,283.1 695,305.4 683.2,315.7 688.6,319.9 692.7,328.7 676.8,336.9 679.2,345.6 674.5,352.2 666.3,353.2 
		664.7,363.2 650.1,380.1 647.2,402.6 648.1,416.6 641.8,417.8 610.9,400 601,400 599.6,393.5 608.6,383.7 606.6,376.4 583.4,361.2 
		570.3,373.9 559.4,361 523,333.9 503.8,307.1 513.2,297.5 489.9,281.5 471,275.7 477,269 477,261 469.8,256.3 477.9,247.7 
		462.2,239.3 459.6,229.9 467.4,221.9 466.3,213.2 471.5,206.5 480,205.8 481.6,193 466.2,181.3 465.4,173.3 473.8,170.4 478,156 
		466,156 460,153 453.2,167.6 438.5,166.5 440.8,157 438.9,149.2 447,140.2 454.8,137.7 452.2,128.8 457.3,122.4 453.9,118 
		452.9,109.7 465.3,93.9 471.4,91.2 479.5,99.5 484.7,113.9 483.4,124.6 492.4,124 497.2,120.7 515.8,122.2 527,131.8 538.5,131.2 
		550.7,122.6 558.1,126.6 556.2,130.8 542.6,136.6 541.1,144.5 547.5,155 548.7,166.7 563.8,168.2 	"/>
</g>
<g id="c-quatre">
	<polygon class="st0" points="424.3,504.7 431.8,499.1 438.8,499.8 444.2,495.4 454.4,498 458.8,485.4 472.3,484.5 480.1,489.7 
		498.3,480.4 519.3,482.1 532.2,488.8 541.4,480.4 561.2,486.8 547.9,499.2 550.5,505.9 557.2,503.7 564.1,512.3 573.9,507 
		574.5,492.2 582.5,486.1 600,495.3 603.2,485.5 595.4,476.5 609.9,455.5 623.4,444.7 631.6,452.4 640.2,451.4 644.1,439.8 
		637.6,432.3 643.7,425.3 648.3,425 648.1,416.6 641.8,417.8 610.9,400 601,400 599.6,393.5 608.6,383.7 606.6,376.4 583.4,361.2 
		570.3,373.9 559.4,361 523,333.9 503.8,307.1 502.4,326.5 491.1,325.7 485.8,317.6 484.8,308.7 473.9,320.3 474.3,329 477.1,339.2 
		468.8,343.4 470.6,330.8 469.3,321.1 462.1,318.9 451.4,327.6 434.2,323 429.6,329.7 424.1,324.4 419.1,334.5 418.7,342 
		402.9,341.5 393.5,347.8 384.6,341.9 368.7,341.6 367.7,349.5 352.9,357.9 345.3,367.3 346.6,374.3 338.1,377.6 340.2,387.1 
		351.3,388.2 349.2,397.2 349.7,407.8 347.4,416.8 357.3,418 364,413.6 364.2,425.1 351.7,441.5 359.3,446.7 346.6,458.4 
		346.3,474.1 355.9,475.7 363.4,484.8 347.4,498.9 359.4,512.8 355.8,521.4 376.3,530.8 391.7,516.3 388,509.2 389.2,500.4 
		414.1,488.9 428.2,493.1 420.1,501 419.7,506.3 	"/>
</g>
<g id="c-cinq">
	<path class="st0" d="M129.4,441.8l-3.8,4.7l-1.5,11.9l-4.1,7.1l10.2,1.3l5.3,1.7l10.1,0.9l3.5,8.2l6.9,8.2c0,0,12,5.6,12,5
		s-1.3,12.2-1.3,12.2l-7.7,3.7l-0.5,5.4l19.2,6.4l14.1,5.6l14.2,1.4l6.9-7.8l3.3,0.8l12.7,11.1l10.5-3.2l7.1,6.9l5.9,3.2l3,7.4
		L268,548l5.7-7l17.8-2.1l4.8-6.9l3.5-0.1l8.5,5.5l8.8-1.3l6.4,5.3l6.2,0.6l2.1-3.4l8.3,2.8l3.7-5.4h3.3l6.9,3.1l5.7-1.5l12.7,1.1
		l4-7.8l-20.5-9.5l3.6-8.6l-11.9-13.9l16-14.1l-7.6-9.1l-9.6-1.6l0.3-15.7l-13.2-1.9l-7.8,2.6l-11.7-2.7l-2.6-8.7l-12.1-3.2
		l-2.6-3.5l-7-1.2l-5.9,5.1l-3.3,14.4l-3.2,1.1l-0.1,5.1l4.7,7.9l-14.2,1.9l-3-6.7l-10.6-5.1l-13.1,6.1l-4.5-13.1l-1.1-8.2
		l-11.9-6.2l-10.3,3l-15.4-1.4l-9.6,5.8l-1-7.7l-5.1-6.1l-9.6,5.8l-6.4-3.7l-0.5-6.7l-16.2-4.3L129.4,441.8z"/>
</g>
<g id="c-six">
	<polygon class="st0" points="146.7,320.7 127.9,321.8 123.3,325.5 106.9,324.8 93.8,336 83,342.5 100.8,344.4 112,352.1 
		109.9,366.5 125.8,382 141.4,377.1 149.9,384.1 144.4,397.6 149.2,426.6 165.4,431 165.9,437.7 172.2,441.4 181.8,435.5 187,441.6 
		188,449.2 197.6,443.4 213,444.8 223.3,441.8 235.2,448 236.3,456.2 240.8,469.4 253.9,463.3 264.6,468.4 267.5,475.2 281.7,473.2 
		277,465.4 277.1,460.2 280.3,459.2 283.6,444.8 289.6,439.7 296.4,429.4 293.7,413.2 288.7,408.5 297.9,402.7 297.6,385 287.2,382 
		277.7,382.9 275,376.8 281.6,372.3 280.3,362.7 275,359 286.3,355.9 298.5,368.1 303.7,369.1 314.8,362.1 313.8,350.4 296.2,336.6 
		294.9,329.7 302.3,321.5 299.3,315.4 292.3,307.3 309.3,312.8 330.6,324.4 347.9,321.4 361.5,321.3 368.5,311.1 390.5,272.2 
		382,270.1 382,253 375.9,246 363,246 359.8,260.5 333.5,251.5 320.7,260.3 325,275.6 316,282.1 303,281.5 294.6,275.8 294.2,266.9 
		278.5,266.5 265.9,260.2 255.8,260.7 257.1,279.6 249.2,283.9 255.3,300.5 234,314.6 207,314.3 192.1,311.7 156.4,312.1 	"/>
</g>
<g id="c-sept">
	<path class="st0" d="M143.6,51.6L158.9,66l22.2,9.3l0.6-8.6l18.6,4.5l11,5.7l15.4,0.7l16,9.2l15.6-7.9l-9-8.5l10.3-4.6L275,81.4
		l24.8,13l1.2-10.8l15,5.6V95c0,0,8.4,3.4,8.4,3.1c0-0.3,1.4-6.7,1.4-6.7l5.7,4.4l2.8,6.1l37.9,2.8l-6.2,6.4l2.1,11.2l-4.6,3.9
		l-7.1,31.2l-4.1,15.8l20.9,1.1l5.5,5.5l0.4,5.5l-4.4,13.8l14.4,16.8l3.9-8.2l9-2.3l8.3,9.8l-1.1,8.7l5.7,4.8l-6.2,8.3l-10.6-2.1
		l-6.4,21.1l-9.2-2.7l-6.6-7.2H363l-3.2,14.5l-26.3-9l-12.8,8.8l4.3,15.3l-9.1,6.6l-12.9-0.7l-8.5-5.7l-0.4-8.9l-15.7-0.5l-12.7-6.2
		l-10,0.5l1.3,18.9l-7.9,4.3l-4.4-4.7l0.5-16.5l-6.3-4.5V255l6.7-6.9l-4.4-7.1H223l-10-7.6l-37.5-1l-9-5.4l-4-11.2l6.4-4.4l-0.3-2.8
		l-7.7-1.9l-3.2-8.6l4.3-6.9l19.9,2.9l8.1,4.6l22.9,1.4l15.6-14.1l-11.3-12l-13.7-1.2l-12.7-10.6l-13.9,0.5l-14.8-29.5l2-16.8
		l-7.5-13.6l-11.2-0.5l-10-7l-0.9-8l9.7-2.5l-0.4-5l-6.1-4.3L143.6,51.6z"/>
</g>
</svg>
