<?xml version="1.0" encoding="utf-8"?>
<!-- Generator: Adobe Illustrator 19.1.0, SVG Export Plug-In . SVG Version: 6.00 Build 0)  -->
<svg version="1.1" xmlns="http://www.w3.org/2000/svg" xmlns:xlink="http://www.w3.org/1999/xlink" x="0px" y="0px"
	 viewBox="0 0 800 600" style="enable-background:new 0 0 800 600;" xml:space="preserve">
<style type="text/css">
	.land{fid="map_85" ill:#CCCCCC;stroke:#000000;stroke-width:2;stroke-miterlimit:10;}
</style>
<g id="c-un">
	<path class="land" id="map_85" d="M388.9,120.3l5.5,1.5l4,3.6l0.3,13.1l2.3,3.4v4.1l-2.8,1.1l0.3,7.2l4.5,7.4l-3.6,11.6l4,3.8l13.7-8.5l9.6-2.8
		l2.6-2.7l2.7,0.6v4.4l5.6,1.2l2.4,3.6l3.6-1.1l-0.8,6.6l-0.4,4.3l-4.2,6.3l-7.3,2.8l-1.7,9l-4,3.7l5.7,6.6l14.3,12.8l-1.2,5.3
		l1.2,4.6l5.8,3.7l5.5-0.9l2.2,2.4l4.8-0.6l4-7.1l11.4-0.9V225l2.5-0.3l3.7,6l6.5,2.1l1.6,3.7l7,0.1l4-4.8l5-1.6l7.9,1.4l1,4.7
		l5.5,3.1l-2,10.4l3.2,9.1l-5.2,6.2l3.7-0.7l1.5,1.2l1.7,5l8.4,7.6l1.5,4.3l-0.5,2.4H530c0,0-10.3,8.7-10.3,8s-0.8-5.2-0.8-5.2
		l-4.2-5.4l-5.5-1.4l-3.1,2l-3.2-1.3l-3.6,4.7l-4.4,1l-4.2,5.1l-8.3-2.8l-3.5-4.9l-3.4-1.3l-0.7-3.7l-7.7,0.8l-5.4-1l0.3,5.1
		l-1.7,1.4l-4.4,0.1l-1.7,2.8l-5,0.4l-3.7,3.5l-5.3-2.4l-5,0.2l-6.2,5l-6.1,2.3l-3.1,4.5l-6.5-0.6l-15.2,6.5l-3.8-1.1l-6.4,0.1
		l-5.3,8.7l-4.1,2.2l-4.4-3.1l-1.1-3l2.5-2.2l-0.5-2.2l-5.7-2.7l-2.5-6.4l-9.7,0.4l2.3-10.6l0.1-6.5l-1.9-2.3l-6.4-1l-7.6,3.9
		l-2.4,5.4l-6.9,4.7l-2.7-0.6l-8-8.2l-0.7-6.5l-4.1-4.7l-2.3-0.6l-7.2,3.2l-6-0.6l-9.2-3.9l-1.8-4.7l4.4-0.7l0.4-12l-2.7-2.4
		l-0.2-4.1l-4.8-9.8l-7.7,5.3l-7,0.5l0.9-4.5l-6.7-2.5l-6.5-0.2l-7.2-7.9l-3.4-0.2l-2.7-2.8l-1.2-4.2l-3.5-1.5l-11.4,0.5l-5.6-4.1
		l-8.9-0.3l-3.3,5l-4.4-4.5l0.7-2.6l-1.1-4.5l1.7-3.8l5.9-0.8l12-8.1l9.7-1.9l1.8-2.1l-0.2-2.7l-5.5-9.6l0.1-7.5l3.2-4.5l-2.7-5.8
		l1.6-3.8l-3.1-2.7V152l5-4.2l0.9-5.4l8.1,1.4l1.3,9.9l12.8,9.9l14.3-0.7l2.6,3.5L278,173l14.3,1.7l2.2,2.7l9.8-3.5l4.7,10v7.1
		l5.4,6.4l9.7-2.6l9.4,7.5l8.9-2.1l12.9,2.5l17.7,6.6V203l7.1-0.4l8.7-4.8l-1.1-5.3l-9.1-7.1l-4.5-8.8l6.1,0.6l3-6.3l-5-3.7
		l-3.7-9.1l-3.9-6.6l4.2-13.4l-3.3-5l6.5-5.1h5L388.9,120.3z"/>
</g>
<g id="c-deux">
	<polygon class="land" id="map_85" points="324,333.9 322.7,329.4 299.3,322 301.6,317.2 303.4,316 303.2,307.9 301.2,305.3 299.3,308 295,306 
		295,301 301.1,298 308,298 312.8,291.6 314,287.1 323.6,284.2 331.6,292.3 334.3,293 341.2,288.2 343.6,282.8 351.2,278.8 
		357.6,279.9 359.5,282.1 359.4,288.6 357.1,299.2 366.8,298.8 369.3,305.2 375,307.8 375.5,310 372.9,312.2 374.1,315.2 
		378.5,318.3 382.6,316 387.9,307.3 394.3,307.3 398.1,308.4 413.3,301.8 419.9,302.5 423,297.9 429.1,295.6 435.2,290.6 
		440.3,290.5 445.6,292.8 449.3,289.3 454.2,288.9 455.9,286.1 460.3,286 462,284.7 461.7,279.6 467.1,280.6 474.7,279.8 
		475.4,283.6 478.9,284.9 482.3,289.8 490.6,292.5 494.8,287.4 499.1,286.4 502.8,281.7 505.9,283 509.1,281 514.6,282.4 
		518.8,287.7 519.7,293 530,285 536,285 536.3,282.6 534.8,278.5 526.4,270.8 524.7,265.8 537,257.7 541.4,260.6 557.7,263.7 
		559.9,255.4 547.6,248.8 558.6,236.8 564.8,243 569,250.6 566.6,254.4 574.4,255.8 578.4,259.5 571.6,274.2 573.1,290.3 564.6,300 
		568.3,308.1 562.6,322.2 553.9,325.8 539,316.1 530.1,327.7 536.3,334.8 525.2,347.6 518.1,343.3 518.6,353.5 522.6,355.6 
		525.4,365.6 521,367.2 521,372 517.8,373.9 513.3,368.5 507.2,377.3 513.5,380.3 507.6,391.3 494.9,394.6 491.2,391.5 480.4,391.7 
		476.8,401.4 460.3,402.2 459.2,420.6 450.6,426.2 444.9,424 441,429.9 442,435.5 433.4,437.6 431.5,440.7 433.1,445.9 435.4,457.1 
		444.7,460.9 455.8,474.1 458.1,484.7 465.1,488.3 462.8,492.3 454.3,489.6 446.9,471.5 433.7,463.9 423.5,464.7 414.8,460.1 
		410,464.5 400,462.8 394.9,447.6 387.9,435 375.6,431.2 372.8,432.5 347.2,429.1 338.7,425.1 338.1,420.2 316.9,407.1 320,402.4 
		320.2,396.2 328.7,393.1 329.2,385.3 326.6,379 337,379 332,368.2 332,360 318.9,362.7 307,363.6 306.6,354.7 309.8,343.6 
		313.9,340.2 	"/>
</g>
<g id="c-trois">
	<polygon class="land" id="map_85" points="210.2,135.5 204,150.8 204,158 195.3,171.5 183.9,180.5 180.3,189.2 182.2,190.5 178.8,195 
		168.8,195.7 172.3,227.8 180.5,237.3 199,250.8 226.4,277.6 227,285.8 230.6,291 240,291 254.5,318 263,324.4 263.5,328.5 
		269,332.4 282.3,377.5 283.8,388.7 288.1,391.7 293.1,389.9 298.9,392.2 303.1,399.1 316.9,407.1 320,402.4 320.2,396.2 
		328.7,393.1 329.2,385.3 326.6,379 337,379 332,368.2 332,360 318.9,362.7 307,363.6 306.6,354.7 309.8,343.6 313.9,340.2 
		324,333.9 322.7,329.4 299.3,322 301.6,317.2 303.4,316 303.2,307.9 301.2,305.3 299.3,308 295,306 295,301 301.1,298 308,298 
		312.8,291.6 314,287.1 323.6,284.2 322.9,277.6 318.8,272.9 316.5,272.3 309.3,275.4 303.3,274.8 294.1,270.9 292.4,266.2 
		296.7,265.5 297.1,253.5 294.5,251.1 294.3,247 289.5,237.2 281.8,242.5 274.9,243 275.7,238.5 269,236.1 262.5,235.9 255.3,228 
		251.9,227.8 249.3,225 248,220.7 244.5,219.2 233.1,219.7 227.5,215.5 218.6,215.2 215.3,220.2 210.9,215.7 211.6,213.1 
		210.5,208.6 212.1,204.8 218,204 230,195.9 239.7,194 241.5,191.8 241.3,189.2 235.8,179.6 235.9,172 239.1,167.5 236.5,161.7 
		238.1,157.9 235,155.2 235,152 240,147.8 240.9,142.4 236.3,137.9 231.3,127 226.5,125.8 222,130.5 	"/>
	<polygon class="land" id="map_85" points="168.8,190.5 169.9,189.7 170.1,170.6 166.4,164 145.9,153 142.3,152.7 140.1,149.3 141.2,142.2 
		144.8,144.3 146.4,142.2 146.4,134.6 134.2,126.6 124.1,125.8 118.5,128 121.3,136.4 118,142.1 118,145 124.5,149.4 129.3,157.3 
		134,160.8 138.4,157.4 144.8,157.5 159.5,171.3 163.9,184.8 	"/>
	<polygon class="land" id="map_85" points="124,293 124,290 114.9,281.7 112.4,277.9 105.1,277.4 102.3,273.7 94.9,270.9 90.4,271.6 88,274.8 
		85,275.6 85,280 90.3,285.5 91.6,288.1 94.6,287.5 97.5,290.3 101.1,291.9 104.6,291.1 107.7,295.4 113.7,291.7 114.6,289.9 
		121.5,291.7 	"/>
</g>
<g id="c-quatre">
	<polygon class="land" id="map_85" points="580.8,137.3 586.6,142.4 591.1,144.4 594.5,153 591.6,157.5 603,161.2 603,165 596,164 596,169 
		608,169 608,172 615.2,174.9 617.9,179.6 622.5,180.6 619.3,185.7 615.6,196.4 622.6,201.3 631.6,217.1 640.2,225 647,225 
		649.7,228.1 656.5,228.7 659.9,234.8 654.2,238.8 651.5,246.2 651.1,255.1 652.9,261.9 646.4,268 639,268 634,278 639.2,281.3 
		639.5,285.3 628.6,289.1 624.4,293.4 617.9,287.7 610.4,286.6 607.3,292.9 607.8,298 600,298 597,300.2 593.6,298.3 583.3,297.1 
		573.1,290.4 571.6,274.2 578.4,259.5 574.4,255.8 566.6,254.4 569,250.6 564.8,243 558.6,236.8 547.6,248.8 559.9,255.4 
		557.7,263.7 541.4,260.6 537,257.7 524.7,265.7 523.2,264.5 519.5,265.2 524.7,259 521.5,249.8 523.5,239.4 518.1,236.3 
		517.1,231.6 509.1,230.2 504.2,231.7 500.2,236.6 493.2,236.4 491.7,232.8 485.3,230.7 481.5,224.7 479,225 479,230 467.6,231 
		463.5,238.1 458.7,238.7 456.5,236.3 451,237.2 445.2,233.5 444,228.9 445.2,223.6 431,210.9 425.3,204.3 429.3,200.6 431.1,191.5 
		438.4,188.8 442.5,182.4 443.7,171.6 440.2,172.7 437.6,169.2 432,168 432,164 434.3,156.6 436.3,149.5 431.4,144.8 435.3,138.5 
		431.4,125.2 439.9,120.6 441.1,117.5 445.1,117.9 449.7,122.5 457,124.3 457,119 461,112.2 459.9,105.8 461.6,102 465,102 
		467.6,98.7 469.6,100.8 474.5,107.2 481.6,109.8 491.6,121.4 510,128.5 520.4,133.5 528.7,132.5 553.4,138.5 557.1,130.1 
		562.1,133.6 567.3,133.4 572,141 	"/>
</g>
<g id="c-cinq">
	<polygon class="land" id="map_85" points="666.7,295.1 680.8,306.1 677.2,310 673,316.9 673,321 678.8,318.4 681.7,319.3 689.3,327.8 
		684.8,334.9 687.3,337.9 688.6,345 685.6,348 687.8,356.9 692,358.5 693.3,370.8 690.2,372.6 680,374.1 679,381.3 684.6,396.4 
		685.1,415.9 681.1,428.2 680.9,436.3 686.6,440.2 688.8,430.9 703.8,437.4 715.3,442.2 707.8,457 692.8,454.8 680.9,467.8 
		678.7,474.4 667.7,477.5 660.7,472.2 652,477.5 652,484 643,484 636.5,478.5 624.3,470.3 626,463.4 613.8,466 609.8,474.9 
		597,472.2 588.3,478.5 579.4,478.7 572.4,473.2 581,455.8 581,450 573.2,455.2 567.5,459.4 553,458.8 538.2,464.1 531.3,474.8 
		517.1,473.6 514.9,480.5 502.4,472 490.2,477.9 492,483.5 488.4,493.3 489.6,499.6 487.2,501.6 479,495.5 458.4,473.6 455.8,474.1 
		444.7,460.9 435.4,457.1 433.1,445.9 431.5,440.7 433.4,437.6 442,435.5 441,429.9 444.9,424 450.6,426.2 459.2,420.6 460.3,402.2 
		476.8,401.4 480.4,391.7 491.2,391.5 494.9,394.6 507.6,391.3 513.6,380.3 507.2,377.3 513.4,368.5 517.8,373.9 521,372 521,367 
		525.4,365.6 522.5,355.6 518.5,353.5 518.1,343.3 525.2,347.6 536.3,334.8 530.1,327.7 539,316.1 553.9,325.8 562.6,322.2 
		568.3,308.1 564.6,300 573.1,290.3 583.3,297 593.6,298.2 597,300.2 600,298 608,298 607.3,292.9 610.4,286.7 617.9,287.8 
		624.4,293.5 628.6,289 639.5,285.3 639.2,281.2 634,278 639,268 646,268 652.9,261.9 656.6,263.3 661.7,265 660.4,270.4 
		663.6,274.7 669.3,277.3 674.7,287.9 	"/>
</g>
</svg>
