<?xml version="1.0" encoding="utf-8"?>
<!-- Generator: Adobe Illustrator 19.1.0, SVG Export Plug-In . SVG Version: 6.00 Build 0)  -->
<svg version="1.1" xmlns="http://www.w3.org/2000/svg" xmlns:xlink="http://www.w3.org/1999/xlink" x="0px" y="0px"
	 viewBox="0 0 800 600" style="enable-background:new 0 0 800 600;" xml:space="preserve">
<style type="text/css">
	.st0{fill:#CCCCCC;stroke:#000000;stroke-width:2;stroke-miterlimit:10;}
</style>
<g >
	<polygon class="land" points="383.1,206 392.2,190.6 391.4,183.9 389.1,175.2 395.6,170.3 391,165.1 393.4,157.1 394,149 399,149 
		399,142 403,140.9 403,133 384,131.1 387,122.2 396.4,115.4 400,120 404.8,114.7 397.4,94.9 388.5,103.5 379,104.5 379.8,97.8 
		371.7,86 379.9,84.8 382.4,80.1 380.4,72 370,72 360.8,85.6 352.9,85.7 344.7,95.3 347.1,100.3 332.5,101.2 324,94 316.9,93.5 
		304,103.2 304,100 299.8,100.1 295.3,105.3 289.2,102.7 279.9,103 273.3,109.9 275.2,116.5 279,123.1 269.4,119 264.9,123.6 
		265.8,133.4 271.1,136.4 271.5,145.8 262.9,162.4 262.2,175.7 267.4,182.6 266.6,194.9 260.5,196.1 255.4,202.1 229.5,217.1 
		232.4,221.9 232.3,224.6 226.3,230.8 231.2,236 236,236 240.4,243.7 231.9,253.9 231.6,260.1 235,267.6 254.2,270 251,276.2 
		266.1,277.1 271.8,283.2 288.2,285 299.6,277.7 308.9,276.2 316.6,279.7 315.5,272 325.8,273.2 324.7,281.5 330.6,286.3 331.2,291 
		338.7,288.6 347.4,292.6 351.7,287.5 350.8,300 353.7,305 366.6,302.7 375,307.1 387.1,300 381.8,286.4 391,274.6 380.5,271.1 
		379.6,262.2 386.5,256.1 384.1,250.7 376.3,250.1 367.5,238.1 359.8,242.7 360.5,229.7 347.3,226.2 346.4,216.5 353.7,212.8 
		358.8,217.3 368.3,216.5 374.7,210.8 372,205.3 	"/>
</g>
<g >
	<polygon class="land" points="403.2,264.4 410.2,257 427,257 434.3,249 445,249 453.2,235.8 463.8,233 485,233 489.3,237.2 
		480.3,255.2 474.7,258.6 484.7,267.2 484.3,274.4 487.4,277 495,277 501.4,285.1 511.2,288.2 521.5,297.8 531.1,301.6 532.2,307.5 
		537.6,313 550.7,310.2 562.6,315.3 553,324.1 556.6,331.8 553.9,341.4 545,332.9 539.4,340.7 539,350.7 535.4,358 527,358 
		527.5,366.8 535,369.9 529.6,381.3 514.7,382.5 503.4,373.1 502.1,363.4 482.9,364.3 471.8,373.1 461.3,388.3 447,364.9 
		446.6,357.9 438.9,357.2 433.2,350.4 425.9,349.9 421.1,353.1 410.9,352.4 400.9,341.5 394.9,345.7 381.9,336.9 379,328.7 
		371.4,319.6 377.3,313.1 375,307.1 387.1,300 397.8,298.5 397.7,283 408.7,279.3 413.7,272.3 409.8,264.8 	"/>
</g>
<g >
	<polygon class="land" points="380.8,351 375.7,360.1 368.8,363.3 372.9,369 373.4,380.9 359.3,397.7 345.6,390.7 344.1,384.4 
		334.6,384.3 324.6,391.3 318.1,400.8 326.1,408.7 320.5,414.7 317.4,424.3 320.5,429.9 312,437.1 312,445 302.9,440.2 289.8,451.5 
		281.2,447.6 276.6,452.7 266.6,454 261.2,436.5 253.6,435.8 241.9,444.1 227.3,433.5 218.7,431.5 210.2,446.7 203.6,450.2 
		203,457.7 219.7,465.5 237.3,456.8 246,462.9 230.5,473 237.4,490.3 238.1,499 251,499 253.6,504.3 260.5,505 268.5,495.1 
		274.3,497.1 280.8,492.9 288.2,499 297.4,499.8 300.9,504.9 306.7,499.8 311.2,513.1 321.2,515.8 326.6,522.5 341.3,526.1 
		347.5,523.3 362,536.4 368,529.9 374.4,528.9 374.1,519.4 377.4,519.5 383.7,525.8 402.2,522.7 409.2,531.8 426.5,532.1 
		433.5,540.6 445.6,548.9 453.7,543.1 452.4,535.2 447.7,527.2 441,520.6 450.2,507.9 463.6,521.8 475.2,521.2 477.6,509 493,509 
		498.9,502.3 509.4,503.3 515,494 527.8,494.6 534,489 534,486 532,484.8 529,486.9 529.5,477.7 522,473.8 536.8,461.9 540.3,452.5 
		552,449.1 558.7,441.5 566.9,445.3 565.6,434 581.4,422.4 586.8,410.6 594.6,408.8 597.2,404.4 596,399.9 591.1,395.5 591.3,373.7 
		604.3,365.3 611.7,374.6 614.3,372.8 612.6,354.8 623,350.3 623,341 616.6,328.4 607.4,335.4 581.9,321.3 568.7,311.3 562.5,315.3 
		552.9,324.1 556.6,331.8 553.9,341.4 545,332.9 539.4,340.7 539,350.7 535.4,358 527,358 527.5,366.8 535,369.9 529.6,381.3 
		514.7,382.5 503.4,373.1 502.1,363.4 482.9,364.3 471.8,373.1 461.3,388.3 447,364.9 446.6,357.9 438.9,357.2 433.2,350.4 
		425.9,349.9 421.1,353.1 410.9,352.4 400.9,341.5 394.9,345.7 381.9,336.9 379.1,343.9 	"/>
</g>
<g>
	<polygon class="land" points="200.1,281 195.2,278 192.9,295.4 203,301 201.8,311.3 204,314.2 204,322 212.6,329.3 195.2,340.6 
		173,342.9 168.3,349 164,349 166.8,360.3 177.6,370.7 175.8,381 161,381 161.7,387.8 148.1,394.1 151.9,405 156.5,408.5 
		168.9,409.7 171,416.7 171,436 177.1,445.8 176.2,456.9 183.5,458.7 185.4,453.9 192.9,457.4 203,457.7 203.6,450.2 210.2,446.7 
		218.7,431.5 227.3,433.5 241.9,444.1 253.6,435.8 261.2,436.5 266.6,454 276.6,452.7 281.2,447.6 289.9,451.5 302.9,440.2 312,445 
		312,437 320.5,429.9 317.2,424.3 320.4,414.7 326,408.7 318.1,400.8 324.6,391.3 334.6,384.3 344.1,384.4 345.6,390.7 359.3,397.7 
		373.4,380.9 372.9,369 368.8,363.3 375.7,360.1 380.8,351 379.1,343.9 381.9,336.9 379,328.7 371.4,319.6 377.3,313.1 375,307.1 
		366.6,302.7 353.7,305 350.8,300 351.7,287.5 347.4,292.6 338.7,288.6 331.2,291 330.6,286.3 324.7,281.5 325.8,273.2 315.5,272 
		316.6,279.7 308.9,276.2 299.6,277.7 288.2,285 271.8,283.2 266.1,277.1 251,276.2 254.2,270 235,267.6 232.3,274.3 218.4,270.2 	
		"/>
</g>
<g >
	<polygon class="land" points="499.3,148.5 504.8,153.8 501.3,157.9 507.9,172.4 513.5,171.1 515.7,180 544.2,183.4 553,189.2 
		553,177 559.9,173 569.1,178.5 570.4,186.4 586.9,211.2 587.3,216.1 596.7,221.9 611.2,212.9 621.6,226.1 641.5,231.5 650.6,238.5 
		630.1,245 626.3,261.9 616.4,264.8 621.2,269.5 626,269.1 625.6,279 607,279 607.9,298.6 612.9,301.7 622.7,301.2 623.5,308.7 
		616.8,328.4 607.6,335.4 581.9,321.3 568.7,311.3 562.6,315.3 550.7,310.2 537.6,313 532.2,307.5 531.1,301.5 521.5,297.8 
		511.2,288 501.4,285.1 495,277 487,277 484.3,274.4 484.7,267.3 474.7,258.6 480.3,255.1 489.3,237.2 485,233 464,233 453.2,235.8 
		445,249 434,249 427,257 410,257 403.2,264.4 409.8,264.8 413.7,272.4 408.7,279.3 397.7,283 397.8,298.5 387.1,300 381.8,286.4 
		391,274.6 380.5,271.1 379.6,262.2 386.5,256.1 384.1,250.7 376.3,250.1 367.5,238.1 359.8,242.7 360.5,229.7 347.3,226.2 
		346.4,216.5 353.7,212.8 358.8,217.3 368.3,216.5 374.7,210.8 372,205.3 383.1,206 392.2,190.6 391.4,183.9 389.1,175.2 
		395.6,170.3 391,165.1 393.4,157.1 394,149 399,149 399.2,142.2 403,140.9 403,133 384,131.1 387,122.2 396.4,115.4 400,120 
		404.8,114.7 397.4,94.9 388.5,103.5 379,104.5 379.8,97.8 371.7,86 379.9,84.8 382.4,79.8 380.4,71.5 381.3,61.9 389.1,65 389,58 
		398,58 406.6,53 428.8,48.3 443.5,56.6 456,66.2 457,74.7 462.8,80.9 458.2,87.9 460.1,112.5 462.6,124.1 460.4,131.1 464.7,138.7 
		470,142.7 477.4,141.7 482.7,149.5 490.9,148.3 493.7,151.6 497.3,152.1 	"/>
</g>
</svg>
