<?xml version="1.0" encoding="utf-8"?>
<!-- Generator: Adobe Illustrator 19.1.0, SVG Export Plug-In . SVG Version: 6.00 Build 0)  -->
<svg version="1.1" xmlns="http://www.w3.org/2000/svg" xmlns:xlink="http://www.w3.org/1999/xlink" x="0px" y="0px"
	 viewBox="0 0 800 600" style="enable-background:new 0 0 800 600;" xml:space="preserve">
<style type="text/css">
	.st0{fill:#CCCCCC;stroke:#000000;stroke-width:2;stroke-miterlimit:10;}
</style>
<g id="c-un">
	<polygon class="st0" points="395.2,371.8 405,374.3 405,383 378,392.4 378,405 367.7,406.9 363.3,399.6 364.6,387.8 361,384.9 
		361,372 354.6,356.9 340,355.7 340,335 318,310.4 316.1,304.3 319.4,296.4 326.7,290.1 336.2,288 343,288 351.6,293.5 357.2,284.9 
		365.6,287.4 365.8,283.5 362.5,280.6 369.9,271.5 377.3,277.1 381.3,290.7 388.4,294.4 390.8,288 390.1,281.4 420.7,290.1 430,290 
		430,273 424.3,261.5 427.5,252 436,252 446.5,241.9 443.9,234.9 444.1,228.7 453.3,226 457.6,230.9 465.8,233.2 477.7,227.5 
		480.2,222.8 491.3,217.7 490.7,211.7 507.3,200 510.5,185.4 521,187.9 527.9,181.4 531.5,189.5 534,182 534,164 546.1,151.9 
		544.4,142.2 540,136 558.9,116.6 566.9,118.8 573.9,113 573,106 588,106 592.9,113 597.9,133.1 608.3,137 621,137 625.9,133.7 
		630.5,139.2 626.9,146.4 627.2,171.7 619.4,177.9 615.3,175.9 605.6,175.1 596.3,182 598,193.2 591.6,192.5 586.3,198.2 
		587.9,210.8 592.9,214.3 593.7,222.6 583.7,238.8 584.1,253.1 589,261.8 589,271 582.5,272.8 575.1,280.6 550.4,295.2 554,302.1 
		547.7,310.4 537.7,315.4 529.6,313.5 527,320.7 520.5,322.4 520.2,316.1 515,310.3 506.8,310.1 502.8,320.3 488.2,326.9 
		460.7,326.3 456.1,331.7 445.8,342 449.4,347 449.1,356 439.8,353.3 432.8,358.6 431.1,350.4 420.8,350.6 417.3,357.8 412.8,353.8 
		404.2,354.7 398.7,360.4 	"/>
</g>
<g id="c-deux">
	<polygon class="st0" points="240.2,271.4 243.1,281.9 245.7,285.5 247.7,313 251.6,329 256.3,332.3 254,342.3 253.3,355.2 
		256.3,361.2 257.9,372.8 245.7,381.2 233.1,381.4 228.1,378.4 217.8,379.2 215,383.2 215,389 208,389 202,396.4 202,405 196,426.9 
		188.4,432.8 189.7,444.5 179.3,451.1 178.5,463.8 170.9,475.5 201,494.6 204,488.4 223.8,489.9 229.8,498.2 249.3,496.5 
		264.5,505.1 273.5,500 267.2,494.6 278.6,486.1 285.6,489.7 297.2,503.9 316.8,512.9 318.6,502.8 337.2,508.6 339.2,515.4 
		345.2,512.8 352.1,522 381,522 387.3,527 404,527 412.3,515.1 422.7,514.5 431.7,519.5 437,512.9 437,501 446.5,500.8 455.1,505.1 
		463.8,516.4 471.9,512.8 477,513.7 477,508 489.8,515.8 488.2,495.2 476.9,495 470.5,490 466.2,477.4 474.6,469.4 480.4,468.9 
		480.6,460.5 493.4,461.3 495.7,453.6 484.2,441.1 481.2,428.8 487.9,427.3 492.6,420.7 515,419 530.2,410.6 524.9,405 525,395.9 
		520,389.1 521.9,381.9 512.4,379.6 515.9,354.6 523,358.1 537.8,347.8 552.9,351.2 554.2,345.9 551,339.3 551,332 559.9,320.9 
		551.6,316.6 547.7,310.4 537.7,315.4 529.6,313.5 527,320.7 520.5,322.4 520.2,316.1 515,310.3 506.8,310.1 502.8,320.3 
		488.2,326.9 460.7,326.3 445.8,342 449.4,347 449.1,356 439.8,353.3 432.8,358.6 431.1,350.4 420.8,350.6 417.3,357.8 412.8,353.8 
		404.2,354.7 398.8,360.4 395.2,371.8 405,374.3 405,383 378,392.4 378,405 367.7,406.9 363.3,399.6 364.6,387.8 361,384.9 361,372 
		354.6,356.9 340,355.7 340,335 318,310.4 316.1,304.3 319.4,296.4 326.7,289.8 322.1,285.4 309.8,284.4 302,289.4 292,286.9 
		287.9,277.9 288,269.3 283.4,262.5 272.8,263.2 266.4,274.9 258,268.4 	"/>
</g>
<g id="c-trois">
	<path class="st0" d="M255,83.9L271.3,96H289l3-4.2V86l14,0.6V93l10,5.5l15.1-3.9l2.7,1.6l9.5,17l1,7.9l2.2,0.6l7.5-5.7h4v12
		l8.5,5.1l17.6-8.9l-5.9-7.3l2.1-4.8l13.9,0.1l5.5-5.4l3.4,3.7V130l25.8-14.4l13.4,1.8l9.7-11.9l9.1-3l0.9-4.6l6.5,3l11.4-5.7
		l30.4,9.8l3.8,6.8l5.8-6.3l7.1-2.8l6.2-10.6l9.5,3.3l5.7,5.8l4.2,0.8l-0.8-8.5l11.5-7.7l-4.8-10.1l3.4-3.3c0,0,7.3-1.4,7.3-1
		c0,0.4,10,3.8,10,3.8l4.2,7.5l11.8,7.3l-7,7.3L588,106h-15l0.9,7l-6.9,5.9l-8-2.2L540,136l4.5,6.1l1.6,9.7L534,164v18l-2.5,7.5
		l-3.7-8.2l-6.9,6.5l-10.4-2.5l-3.2,14.6l-16.6,11.7l0.6,6l-11.1,5.1l-2.5,4.8l-12,5.7l-8.2-2.3l-4.3-4.9l-9.2,2.6l-0.2,6.2l2.6,7.2
		L436,252h-9l-2.7,9.5L430,273v17l-9.3,0.1l-30.7-8.8l0.8,6.6l-2.4,6.5l-7.1-3.7l-4-13.7l-7.4-5.5l-7.4,9.1l3.2,2.9l-0.2,3.8
		l-8.5-2.6l-5.5,8.7L343,288h-7l-9.3,2.1l-4.6-4.5l-12.3-1.1l-7.8,5l-10-2.5l-4.1-9.1l0.1-8.6l-4.7-6.7l-10.6,0.7l-6.4,11.7
		l-8.4-6.4l-17.8,2.9l-2.3-19.1l3.9-6l-7.8-14.5V219l5.2-10.7l18-21.4l-4.3-7.5l-1.9-14.5l5.8-8.5L246,135.7V127l6.8-7.4l1.4-10.7
		l-4.3-6.6l-0.3-8.7L255,83.9z"/>
</g>
</svg>
