<?xml version="1.0" encoding="utf-8"?>
<!-- Generator: Adobe Illustrator 19.1.0, SVG Export Plug-In . SVG Version: 6.00 Build 0)  -->
<svg version="1.1" xmlns="http://www.w3.org/2000/svg" xmlns:xlink="http://www.w3.org/1999/xlink" x="0px" y="0px"
	 viewBox="0 0 800 600" style="enable-background:new 0 0 800 600;" xml:space="preserve">
<style type="text/css">
	.st0{fill:#CCCCCC;stroke:#000000;stroke-width:2;stroke-miterlimit:10;}
</style>
<g>
	<path class="land" xlink:title="loire-atlantique" d="M245.1,225.2l34.9-1.6l7.7-4.8l3.4-7.3l20.4-6.1l1.8-8l5.4-1.1l11.5,2.9l3.6,6.8l14.5,4.5l2.7,4.4v4.1
		l-4.9,1.9l3.9,3.6l8.1,4.1l2.1,9.8l4.5,3l0.6,4.5l13.9,8.1h4.8l2.6,2.6l-6.8,7.6l-14.6-4.6l-5,2.8l2,9.6l6.9,4.7l15.2,4.2h7.7
		l2,12.1l6,8.8l-14.6,9.3l-14.5-2.4l-13,2.4l-21,1.8l-8,6.6l1.5,3.5l7.8-0.6c0,0,3,3.5,3,3c0-0.5-2.4,7.3-2.4,7.3l8.7,4.3h7.3l-1,9
		l4.8,6.4l-7.1,6l-5.4,1.3l-0.8,10.1l7.2,2l12.1,8.7l-0.8,5.3l-4.5,2.4l-9-2l-10.4-9.7l-5.3,1.2l-0.2,6.3l-3.5,0.6l-4.5-2.4
		l-3.3,2.9l-1.5,9l2.7,4.7l-5.1,8.6l-6.3-2.4l-4.1,3.9H304l0.3-9.4l5-8l-2.9-8.1l-8.3-1.7l-6.9,8.3l0.8,6.9l4.2,5.7l-1.8,6.9
		l4.2,6.9l-3.2,6.3H290l-8.1-2.3l-17.6-3.7l-5-11.5l-10.3-0.8l-1.7-6l-12.7-0.9l-10.6-18.6l-2-5.9l-13.3-10.6l-22.6-7.2l-2.1-3.5
		l3.5-2.9h8.3l3-9.9l-3.5-12.5l12.4-4.7l18.4-0.2l10.1,5.9l13,11.4h6.6l0.2-3.4l-18.2-17.8l-6.3-2.9l-32.4-0.8L183,326.7l-9.8,0.7
		l-6.5-9.2l-6.6-2.3l-3.5,6.9l-3.8-0.8l-13.8-8l4.9-4.7V304l-6.3-7.7l7.1-9.8l8.8,2.6l3.2-3l-4.5-7.8l7.1-5.3l10.4,5.7l7.5-2
		l1.5-7.5l3.9-2.6l16.4,3.6l10.9-7.1l2.1-13.1l4.4-6l-3.8-6.6l4.5-3.3l5.3,0.6l8.9-8.4l5.3,2.6L245.1,225.2z"/>
</g>
<g >
	<polygon class="land" xlink:title="mayenne" points="385.6,42.1 389.5,39.9 397.3,47.7 404,43 410,43 422.4,45.5 429.5,55 450,55 479.6,43.7 493.3,48.6 
		510.4,46 516.3,39.8 517.6,31.7 530.3,36.9 527.5,46.7 530.3,59.3 539.1,61.7 544,61 544,77 531.1,80.3 524.2,100.9 528,115.4 
		510.1,127.4 515.2,151.1 495.3,154.9 504.6,176.7 499.5,181.6 484.1,182.7 492.1,193.9 478.3,201.4 479.1,207.1 487.9,218.5 
		475.4,220.5 469.9,216.2 462,215.6 462,223 454,223 430.9,223.7 421,215.6 409,218.6 398.4,209.3 394.6,215.7 375.7,214.2 
		354,206.1 356.3,190.9 367.6,165.1 388.6,159.6 386,142.8 376,91.6 388.9,81.9 388.5,69.3 381.3,62.5 	"/>
</g>
<g >
	<polygon class="land" xlink:title="sarthe" points="558.5,79.5 563.9,70.4 577,63.3 577,59 589.8,56.5 598.3,52 613.4,68.2 610,75.2 613.5,90.6 
		628.9,95.2 635.8,111.8 648.1,117 651.7,110 659,110 666.8,123.1 674.4,126.1 693.8,133.2 693,140.8 684.7,142.4 674.4,153.2 
		682.2,163.4 681,181.3 676.2,193 670,193 669.8,204 650.4,227.3 640.5,234.8 642.5,242.5 630.7,250 623,250 617.8,255.9 
		605.6,250.9 608,267 601,267 586.9,258.8 576.1,258 571.5,263.4 558.5,257.5 544.5,246.5 532.9,244.9 524.3,253.1 513.5,239.7 
		515.5,229.1 504.9,232.8 495.3,230.1 487.9,218.5 479.1,207.1 478.3,201.4 492.1,193.9 484.1,182.7 499.5,181.6 504.6,176.7 
		495.3,154.9 515.2,151.1 510.2,127.4 528.1,115.4 524.3,100.9 531.3,80.3 544.5,77 	"/>
</g>
<g >
	<polygon class="land" xlink:title="maine-et-loire" points="397.1,396.4 385.7,391.6 370.4,394 359.6,388.2 364.1,385.8 364.9,380.5 352.8,371.7 345.6,369.8 
		346.3,359.7 351.8,358.3 358.9,352.3 354,346 355,337 348,337 339,332.7 341.4,325.6 338.3,322.5 330.5,323.1 329,319.6 337,312.9 
		358,311.1 370.9,308.7 385.4,311.1 400,301.8 394,293.1 392,281 384,281 369.1,276.7 362.2,272.2 360.2,262.5 365.2,259.6 
		379.8,264.1 386.6,256.6 384,254 379,254 365.3,245.9 364.7,241.6 360.2,238.5 358.1,228.6 350.1,224.6 346.1,220.9 351,219 
		351,215 348.3,210.5 353.9,206.1 375.7,214.2 394.5,215.6 398.3,209.3 409,218.5 421,215.5 430.9,223.7 454,223 462,223 
		462.5,215.9 470.1,216.3 475.4,220.6 487.9,218.6 495.3,230.1 504.9,232.8 515.5,229.1 513.5,239.7 524.3,253.1 532.9,244.8 
		544.5,246.5 558.5,257.4 571.5,263.4 576.1,257.9 586.9,258.6 583.9,266.2 577.8,278.4 575.7,300.6 569.4,321.6 554.1,340.3 
		550.3,363.8 543.2,362.4 537.6,369.8 539.8,376.4 525.1,385.9 515.5,375.8 497,376.4 481.5,378.8 473.9,384.5 465.4,379.4 
		454.4,384.3 455.2,391.3 442.5,401 428.3,399.3 408.8,397.3 401.5,405.4 397.1,402.6 	"/>
</g>
<g >
	<polygon class="land" xlink:title="vendee" points="428.6,438.9 423,455.6 433.8,465.7 436.9,499 442,503.2 442,508 434,511 439.9,524 434.5,536.9 
		437.1,542 450,542 452.3,548.2 446.8,551 439,551 432.8,558.3 423.2,557.5 414.9,562.5 406.5,552.6 390.8,555.7 385,554.1 
		388.2,545.3 385,544 366.9,548.6 362.2,557 346.3,556.4 342.6,567.9 335.9,566.3 320,548 300.5,545.7 293.2,529.8 269.1,522.7 
		252.9,508.8 242,507.9 242,488 228.9,462.1 205.3,436.9 194.4,426.5 192.8,413.2 202.7,409.9 202.5,403.4 212.5,401.2 224.2,379.1 
		234.7,397.7 247.4,398.6 249.1,404.6 259.3,405.4 264.3,417.1 290,423 295,423 298.5,416.7 294.3,409.9 296.1,402.9 291.9,397.1 
		291.1,390.1 298.1,381.8 306.4,383.5 309.2,391.5 304.3,399.6 304,409 309,409 313.2,405.1 319.5,407.6 324.6,398.9 321.9,394.2 
		323.4,385.2 326.7,382.3 331.3,384.7 334.7,384.1 334.9,377.8 340.2,376.6 350.6,386.2 359.6,388.2 370.4,394 385.7,391.6 
		397.1,396.4 397.1,402.6 401.5,405.4 408.9,413.8 408.5,422.5 418.2,437.5 	"/>
</g>
</svg>
