<?xml version="1.0" encoding="utf-8"?>
<!-- Generator: Adobe Illustrator 21.0.2, SVG Export Plug-In . SVG Version: 6.00 Build 0)  -->
<!DOCTYPE svg PUBLIC "-//W3C//DTD SVG 1.1//EN" "http://www.w3.org/Graphics/SVG/1.1/DTD/svg11.dtd">
<svg version="1.1" xmlns="http://www.w3.org/2000/svg" xmlns:xlink="http://www.w3.org/1999/xlink" x="0px" y="0px"
	 viewBox="0 0 50 50" enable-background="new 0 0 50 50" xml:space="preserve">
<g id="Calque_1" display="none">
	<path display="inline" fill="#FCFCFC" d="M45.8,22.7l-6.5-10.3c-0.1-0.2-0.3-0.3-0.5-0.4c-0.2,0-0.5,0-0.7,0.1l-4.6,2.9
		c-0.4,0.3-0.5,0.8-0.3,1.2l0.3,0.4L32.8,17c-0.1,0-0.1,0-0.2,0l-2.9-0.6C28,16,26.3,16,24.6,16.3l-2.7,0.5c-0.8,0.1-1.4,0.5-2,1
		l-2.5-0.4c0,0-0.1,0-0.1,0l-1-0.5c0.2-0.6,0.3-1.4,0.1-2c-0.2-0.9-0.8-1.7-1.6-2.2c-0.8-0.5-1.7-0.7-2.7-0.5
		c-0.9,0.2-1.7,0.8-2.2,1.6l-5.3,8.4c-1,1.6-0.5,3.8,1.1,4.9c0.6,0.4,1.2,0.5,1.9,0.5c0.9,0,1.8-0.4,2.5-1l1.9,2.6l-0.6,0.9
		c-0.7,1.1-0.5,2.5,0.6,3.3c0.3,0.2,0.7,0.4,1.2,0.4c0,0.7,0.4,1.4,1,1.8c0.4,0.3,0.9,0.4,1.4,0.4c0.1,0,0.3,0,0.4,0
		c0.1,0,0.1,0,0.2-0.1c0.2,0.5,0.6,0.8,1,1.1c0.4,0.2,0.7,0.3,1.1,0.3c0.3,0,0.6-0.1,0.9-0.2c0.2,0.4,0.6,0.7,1,0.8
		c0.3,0.1,0.6,0.2,0.8,0.2c0.6,0,1.2-0.3,1.6-0.8l3.2,0.5c0.2,0,0.5,0.1,0.7,0.1c1.2,0,2.3-0.4,3.1-1.2c0.1,0,0.1,0,0.2,0
		c0.9,0,1.7-0.4,2.2-1.2c0.2-0.3,0.4-0.7,0.4-1.1c0.9,0,1.7-0.5,2.2-1.2c0.2-0.3,0.3-0.6,0.3-0.9c0.8,0,1.7-0.4,2.2-1.2
		c0.4-0.6,0.5-1.3,0.4-2c0-0.1,0-0.1,0-0.2l2.4-2.2c0.1,0.2,0.3,0.3,0.5,0.3c0.1,0,0.1,0,0.2,0c0.2,0,0.3,0,0.5-0.1l4.6-2.9
		C45.9,23.6,46,23.1,45.8,22.7z M22.2,18.5l2.7-0.5c1.5-0.3,3-0.3,4.5,0.1l2.9,0.6c0.4,0.1,0.8,0,1.2-0.1l1-0.4l4.4,7l-2.4,2.3
		c0,0-0.1,0-0.1-0.1l-10.7-6.9c-0.6-0.4-1.4-0.4-2-0.1l-5,2.6c-0.1,0.1-0.2,0-0.3,0c-0.1-0.1-0.1-0.2-0.1-0.2c0,0,0-0.1,0.1-0.2
		l2.3-3C21,18.9,21.6,18.6,22.2,18.5z M6.7,25.5C5.8,25,5.5,23.9,6.1,23l5.3-8.4c0.3-0.5,0.9-0.8,1.5-0.8c0.3,0,0.7,0.1,1,0.3
		c0.8,0.5,1.1,1.7,0.6,2.5l-5.3,8.4C8.6,25.8,7.5,26.1,6.7,25.5z M12.8,30.9l1.3-1.8c0.1-0.2,0.3-0.3,0.5-0.3c0.1,0,0.2,0,0.4,0.1
		c0.2,0.1,0.3,0.2,0.3,0.4c0,0.2,0,0.3-0.1,0.5l-1.3,1.9c-0.1,0.1-0.2,0.2-0.4,0.2c-0.2,0-0.3,0-0.5-0.1
		C12.7,31.6,12.6,31.2,12.8,30.9z M15.2,34c-0.3-0.2-0.4-0.6-0.2-0.9l0.3-0.4c0,0,0,0,0.1-0.1c0.4-0.6,0.9-1.3,1.3-1.9c0,0,0,0,0,0
		l1.1-1.6c0.1-0.2,0.3-0.3,0.6-0.3c0.1,0,0.2,0,0.4,0.1c0.2,0.1,0.3,0.2,0.3,0.4c0,0.2,0,0.4-0.1,0.5l-0.4,0.5c0,0,0,0,0,0l-2,3
		c0,0.1-0.1,0.1-0.1,0.2l-0.2,0.3c0,0,0,0,0,0c-0.1,0.1-0.3,0.2-0.4,0.3C15.5,34.2,15.3,34.2,15.2,34z M18,35.4
		c-0.2-0.1-0.3-0.2-0.3-0.4c0-0.2,0-0.3,0.1-0.4l2.1-3.1c0.1-0.1,0.3-0.2,0.4-0.3c0,0,0.1,0,0.1,0c0.2,0,0.3,0.1,0.4,0.1
		c0.3,0.2,0.3,0.6,0.1,0.9l-0.6,0.9c0,0,0,0,0,0.1l-1,1.4c0,0-0.1,0.1-0.1,0.2l-0.3,0.4C18.7,35.4,18.3,35.5,18,35.4z M20.9,36.2
		c-0.2-0.1-0.2-0.2-0.3-0.3c0-0.1,0-0.2,0-0.3l1.1-1.6c0.1-0.1,0.2-0.1,0.3-0.2c0,0,0,0,0.1,0c0.1,0,0.2,0,0.3,0.1
		c0.2,0.2,0.2,0.4,0.1,0.6l-1,1.4C21.3,36.3,21.1,36.3,20.9,36.2z M35.7,30c-0.3,0.4-0.8,0.5-1.2,0.3l-0.7-0.4l-0.4-0.3c0,0,0,0,0,0
		l-4.6-2.8c-0.4-0.2-0.9-0.1-1.2,0.3c-0.2,0.4-0.1,0.9,0.3,1.2l4.6,2.8c0,0,0,0,0,0l0.6,0.3c0.2,0.1,0.2,0.2,0.2,0.3
		c0,0.1,0,0.2-0.1,0.4c-0.3,0.5-0.9,0.6-1.4,0.3l-4.5-2.5c-0.4-0.2-0.9-0.1-1.2,0.3c-0.2,0.4-0.1,0.9,0.3,1.2l3.3,1.8l0.8,0.5
		c0.1,0.1,0.2,0.2,0.2,0.3c0,0.1,0,0.2-0.1,0.3c0,0,0,0,0,0.1c-0.3,0.4-0.8,0.5-1.2,0.3L26,32.9c-0.4-0.2-0.9,0-1.2,0.4
		c-0.2,0.4,0,0.9,0.4,1.2l2.6,1.3c-0.5,0.2-1,0.3-1.6,0.2l-2.3-0.4l0,0c0.6-0.9,0.5-2.2-0.4-2.9c-0.2-0.2-0.5-0.3-0.7-0.4
		c0.2-0.9-0.1-1.8-0.8-2.3c-0.4-0.3-0.8-0.5-1.2-0.5c0-0.1,0-0.3,0-0.4c-0.1-0.6-0.5-1.2-1-1.5c-1-0.7-2.3-0.4-3.1,0.4
		c-0.2-0.2-0.4-0.4-0.6-0.5c-0.9-0.5-2-0.4-2.7,0.2l-2-2.6l4.2-6.7l1.1,0.6c0.2,0.1,0.4,0.2,0.6,0.2l1.5,0.2L17,21.4
		c-0.3,0.4-0.5,1-0.4,1.5s0.4,1,0.8,1.3c0.6,0.5,1.5,0.5,2.2,0.2l5-2.6c0.1-0.1,0.2,0,0.3,0l10.7,6.9c0.2,0.1,0.3,0.3,0.4,0.5
		C35.9,29.6,35.8,29.8,35.7,30z M40.8,24.9L35.2,16l3.1-2l5.6,8.8L40.8,24.9z"/>
</g>
<g id="Calque_2" display="none">
	<g transform="translate(0,-952.36218)" display="inline">
		<path fill="#FCFCFC" d="M33.1,962.8c-0.5,0-1,0.4-1,1s0.4,1,1,1h3.1l-4.1,4.1c-1.5-1.4-3.6-2.2-5.8-2.2c-1.3,0-2.5,0.3-3.6,0.8
			c-1.1-0.5-2.3-0.8-3.6-0.8c-4.8,0-8.7,3.9-8.7,8.7c0,4.5,3.4,8.2,7.7,8.7v2.3h-2.6c-0.5,0-1,0.4-1,1s0.4,1,1,1h2.6v2.6
			c0,0.5,0.4,1,1,1c0.5,0,1-0.4,1-1v-2.6h2.6c0.5,0,1-0.4,1-1s-0.4-1-1-1h-2.6v-2.3c0.9-0.1,1.8-0.3,2.6-0.7
			c1.1,0.5,2.3,0.8,3.6,0.8c4.8,0,8.7-3.9,8.7-8.7c0-1.9-0.6-3.6-1.6-5.1l4.2-4.2l0,3.1l1.9,0l0-5.5c0-0.5-0.4-1-1-1H33.1z
			 M39.5,969.3h-1.9c0,0.5,0.4,1,1,1C39.1,970.3,39.5,969.8,39.5,969.3L39.5,969.3L39.5,969.3z M19.2,968.6c0.5,0,1,0.1,1.5,0.2
			c-1.9,1.6-3.1,4-3.1,6.6s1.2,5,3.1,6.6c-0.5,0.1-1,0.2-1.5,0.2c-3.8,0-6.8-3-6.8-6.8S15.4,968.6,19.2,968.6z M26.3,968.6
			c3.8,0,6.8,3,6.8,6.8s-3,6.8-6.8,6.8c-0.5,0-1-0.1-1.5-0.2c1.9-1.6,3.1-4,3.1-6.6s-1.2-5-3.1-6.6
			C25.3,968.7,25.8,968.6,26.3,968.6z M22.7,969.7c1.9,1.2,3.2,3.3,3.2,5.8c0,2.4-1.3,4.6-3.2,5.8c-1.9-1.2-3.2-3.3-3.2-5.8
			C19.5,973,20.8,970.8,22.7,969.7z"/>
	</g>
</g>
<g id="Calque_3" display="none">
	<g transform="translate(0,-952.36218)" display="inline">
		<path fill="#FCFCFC" d="M16.2,962.4c-0.1,0-0.2,0-0.4,0.1c-0.1,0.1-0.3,0.2-0.3,0.2c-0.9,0.8-1.4,2-1.4,3.4c0,1.5,0.6,2.9,1.6,3.6
			c0.2,0.2,0.6,0.2,0.8,0c1-0.7,1.6-2.1,1.6-3.6c0-1.4-0.5-2.6-1.4-3.4c0,0-0.2-0.2-0.3-0.2C16.4,962.4,16.3,962.4,16.2,962.4z
			 M25,962.4c-0.1,0-0.2,0-0.4,0.1c-0.1,0.1-0.3,0.2-0.3,0.2c-0.9,0.8-1.4,2-1.4,3.4c0,1.5,0.6,2.9,1.6,3.6c0.2,0.2,0.6,0.2,0.8,0
			c1-0.7,1.6-2.1,1.6-3.6c0-1.4-0.5-2.6-1.4-3.4c0,0-0.2-0.2-0.3-0.2C25.2,962.4,25.1,962.4,25,962.4z M33.8,962.4
			c-0.1,0-0.2,0-0.4,0.1c-0.1,0.1-0.3,0.2-0.3,0.2c-0.9,0.8-1.4,2-1.4,3.4c0,1.5,0.6,2.9,1.6,3.6c0.2,0.2,0.6,0.2,0.8,0
			c1-0.7,1.6-2.1,1.6-3.6c0-1.4-0.5-2.6-1.4-3.4c0,0-0.2-0.2-0.3-0.2C34.1,962.4,34,962.4,33.8,962.4z M16.2,964.1
			c0.4,0.5,0.7,1.2,0.7,2s-0.3,1.5-0.7,2c-0.4-0.5-0.7-1.1-0.7-2S15.8,964.6,16.2,964.1z M25,964.1c0.4,0.5,0.7,1.2,0.7,2
			s-0.3,1.5-0.7,2c-0.4-0.5-0.7-1.1-0.7-2S24.6,964.6,25,964.1z M33.8,964.1c0.4,0.5,0.7,1.2,0.7,2s-0.3,1.5-0.7,2
			c-0.4-0.5-0.7-1.1-0.7-2S33.5,964.6,33.8,964.1z M14,971.2c-0.3,0-0.6,0.3-0.6,0.7v4.1h-1.1c-1.3,0-2.3,1-2.3,2.3v3.5
			c0,1.5,0.7,2.8,1.7,3.7v6.2c0,0.4,0.3,0.7,0.7,0.7h25.2c0.4,0,0.7-0.3,0.7-0.7v-6.2c1-0.9,1.7-2.2,1.7-3.7v-3.5
			c0-1.3-1-2.3-2.3-2.3h-1.1v-4.1c0-0.3-0.3-0.6-0.6-0.7c0,0,0,0-0.1,0h-4.1c0,0,0,0-0.1,0c-0.3,0-0.6,0.3-0.6,0.7v4.1h-3.4v-4.1
			c0-0.4-0.3-0.7-0.7-0.7H23c0,0,0,0-0.1,0c-0.3,0-0.6,0.3-0.6,0.7v4.1h-3.4v-4.1c0-0.4-0.3-0.7-0.7-0.7H14
			C14.1,971.2,14.1,971.2,14,971.2z M14.8,972.6h2.7v3.4h-2.7V972.6z M23.6,972.6h2.7v3.4h-2.7V972.6z M32.5,972.6h2.7v3.4h-2.7
			V972.6z M12.3,977.4h25.3c0.5,0,1,0.4,1,1v3.5c0,2.1-2.1,3.7-4.1,3.7c-1.7,0-3.6-1-4.1-2.3c-0.1-0.2-0.4-0.4-0.6-0.4
			s-0.5,0.2-0.6,0.4c-0.6,1.4-1.8,2.2-4.1,2.3c0,0,0,0,0,0c-2.3-0.1-3.5-0.9-4.1-2.3c-0.1-0.2-0.4-0.4-0.6-0.4s-0.5,0.2-0.6,0.4
			c-0.5,1.3-2.5,2.3-4.1,2.3c-2,0-4.1-1.7-4.1-3.7v-3.5C11.4,977.8,11.8,977.4,12.3,977.4z M20.2,984.7c1,1.3,2.6,2.1,4.8,2.2
			c0,0,0,0,0,0c2.2,0,3.8-0.8,4.8-2.2c1.1,1.4,3,2.2,4.7,2.2c0.8,0,1.6-0.2,2.4-0.6v4.6H13.1v-4.6c0.7,0.4,1.6,0.6,2.4,0.6
			C17.2,986.9,19.1,986.1,20.2,984.7z"/>
	</g>
</g>
<g id="Calque_4">
	<g>
		<path fill="#FCFCFC" d="M39.1,15.2h-6.7c0-2.4-1.9-4.3-4.3-4.3h-5.9c-1.1,0-2.2,0.4-3,1.3C18.4,13,18,14,18,15.2h-7.1
			c-1.1,0-2.1,0.9-2.1,2.1v10.3c0,0.7,0.3,1.3,0.9,1.7V37c0,1.1,0.9,2.1,2.1,2.1h26.5c1.1,0,2.1-0.9,2.1-2.1v-7.8
			c0.5-0.4,0.9-1,0.9-1.7V17.2C41.2,16.1,40.3,15.2,39.1,15.2z M20.6,13.5c0.4-0.4,1-0.7,1.6-0.7h5.9c1.3,0,2.3,1,2.3,2.3H19.9
			C19.9,14.6,20.1,14,20.6,13.5z M39.2,37c0,0.5-0.4,0.9-0.9,0.9H11.7c-0.5,0-0.9-0.4-0.9-0.9v-7.4c0,0,0,0,0,0h9.7
			c0.4,0,0.8-0.4,0.8-0.8v-0.9c0-0.7,0.6-1.4,1.4-1.4h5c0.7,0,1.4,0.6,1.4,1.4v0.9c0,0.4,0.4,0.8,0.8,0.8h9.3c0,0,0,0,0,0
			C39.2,29.7,39.2,37,39.2,37z M39.8,27.6c0,0.4-0.3,0.7-0.7,0.7h-8.7l0-0.4c0-1.5-1.2-2.7-2.7-2.7h-5c-1.5,0-2.7,1.2-2.7,2.7l0,0.4
			h-9.1c-0.4,0-0.7-0.3-0.7-0.7V17.2c0-0.4,0.3-0.7,0.7-0.7h28.2c0.4,0,0.7,0.3,0.7,0.7C39.8,17.2,39.8,27.6,39.8,27.6z"/>
		<path fill="#FCFCFC" d="M27.1,32.8h-3.9c-0.8,0-1.5-0.7-1.5-1.5v-2.8c0-0.8,0.7-1.5,1.5-1.5h3.9c0.8,0,1.5,0.7,1.5,1.5v2.8
			C28.6,32.1,27.9,32.8,27.1,32.8z M23.3,28.1c-0.2,0-0.4,0.2-0.4,0.4v2.8c0,0.2,0.2,0.4,0.4,0.4h3.9c0.2,0,0.4-0.2,0.4-0.4v-2.8
			c0-0.2-0.2-0.4-0.4-0.4H23.3z"/>
	</g>
</g>
<g id="Calque_5" display="none">
	<g transform="translate(0,-952.36218)" display="inline">
		<path fill="#FCFCFC" d="M14.9,964.3c-2.3,0-4.2,1.9-4.2,4.2s1.9,4.2,4.2,4.2c2.3,0,4.2-1.9,4.2-4.2S17.2,964.3,14.9,964.3z
			 M35.1,964.3c-2.3,0-4.2,1.9-4.2,4.2s1.9,4.2,4.2,4.2c2.3,0,4.2-1.9,4.2-4.2S37.4,964.3,35.1,964.3z M25,965.2c-2.8,0-5,2.3-5,5
			s2.3,5,5,5c2.8,0,5-2.3,5-5S27.8,965.2,25,965.2z M14.9,966c1.4,0,2.5,1.1,2.5,2.5s-1.1,2.5-2.5,2.5c-1.4,0-2.5-1.1-2.5-2.5
			S13.5,966,14.9,966z M35.1,966c1.4,0,2.5,1.1,2.5,2.5s-1.1,2.5-2.5,2.5c-1.4,0-2.5-1.1-2.5-2.5S33.7,966,35.1,966z M25,966.9
			c1.9,0,3.4,1.5,3.4,3.4s-1.5,3.4-3.4,3.4c-1.9,0-3.4-1.5-3.4-3.4S23.1,966.9,25,966.9z M15.3,974c-2.3,0-4.5,0.5-6.1,1.4
			s-2.8,2.3-2.8,4v5.9c0,0.4,0.4,0.8,0.8,0.8h8v3.4c0,0.4,0.4,0.8,0.8,0.8h17.7c0.4,0,0.8-0.4,0.8-0.8v-3.4h8c0.4,0,0.8-0.4,0.8-0.8
			v-5.9c0-1.7-1.2-3.1-2.8-4S37,974,34.7,974c-3.4,0-6.5,1.1-7.9,3c-0.6-0.1-1.1-0.1-1.7-0.1s-1.2,0-1.7,0.1
			C21.8,975.1,18.8,974,15.3,974z M15.3,975.7c2.5,0,4.6,0.7,5.9,1.7c-1.1,0.3-2,0.6-2.9,1.1c-1.8,1-3,2.5-3,4.3v1.7H8.2v-5
			c0-0.9,0.6-1.8,1.9-2.6C11.4,976.2,13.3,975.7,15.3,975.7z M34.7,975.7c2.1,0,3.9,0.5,5.2,1.2c1.3,0.7,1.9,1.7,1.9,2.6v5h-7.1
			v-1.7c0-1.8-1.2-3.4-3-4.3c-0.8-0.5-1.8-0.8-2.9-1.1C30,976.4,32.2,975.7,34.7,975.7z M25,978.6c2.3,0,4.4,0.5,5.8,1.3
			s2.2,1.8,2.2,2.9v5.9H17v-5.9c0-1.1,0.7-2.1,2.2-2.9C20.6,979.1,22.7,978.6,25,978.6z"/>
	</g>
</g>
<g id="Calque_6" display="none">
	<g transform="translate(0,-952.36218)" display="inline">
		<path fill="#FCFCFC" d="M25,964.3c-0.2,0-0.3,0.1-0.5,0.2L9,976.7c-0.4,0.3-0.4,0.8-0.1,1.2c0.3,0.3,0.8,0.4,1.2,0.1l15-11.8
			L40,978c0.3,0.3,0.9,0.2,1.1-0.1c0.3-0.3,0.2-0.9-0.1-1.2l-5.8-4.6v-7c0-0.4-0.4-0.8-0.8-0.8h-3.3c-0.4,0-0.8,0.4-0.8,0.8v3.1
			l-4.8-3.8C25.3,964.4,25.1,964.3,25,964.3z M31.9,966h1.6v4.9l-1.6-1.3V966z M14.8,975.3l-1.6,1.3v13c0,0.4,0.4,0.8,0.8,0.8h7.7
			c0.4,0,0.8-0.4,0.8-0.8v-7.3h4.9v7.3c0,0.4,0.4,0.8,0.8,0.8H36c0.4,0,0.8-0.4,0.8-0.8v-13l-1.6-1.3v13.5h-6.1v-7.3
			c0-0.4-0.4-0.8-0.8-0.8h-6.5c-0.4,0-0.8,0.4-0.8,0.8v7.3h-6.1V975.3z"/>
	</g>
</g>
<g id="Calque_7" display="none">
	<g display="inline">
		<line fill="none" stroke="#FCFCFC" stroke-width="1.497" stroke-miterlimit="10" x1="4.4" y1="21.3" x2="17.7" y2="31.8"/>
		<line fill="none" stroke="#FCFCFC" stroke-width="1.497" stroke-miterlimit="10" x1="6.6" y1="18" x2="22.7" y2="30.5"/>
		<line fill="none" stroke="#FCFCFC" stroke-width="1.497" stroke-miterlimit="10" x1="33.1" y1="29.4" x2="47.2" y2="24.3"/>
		<line fill="none" stroke="#FCFCFC" stroke-width="1.497" stroke-miterlimit="10" x1="34.3" y1="32.6" x2="48.4" y2="27.5"/>
		<path fill="none" stroke="#FCFCFC" stroke-width="1.497" stroke-miterlimit="10" d="M13.5,12.4l11.6,7.6v5.2l-2.9,1.1l0.6,5.1
			l-6.1,0.5l0.1,7.2L2.2,29.5c-1.3-0.9-1.6-2.6-0.8-3.9L10.3,13C11,11.9,12.5,11.7,13.5,12.4z"/>
		<path fill="none" stroke="#FCFCFC" stroke-width="1.497" stroke-miterlimit="10" d="M47.3,32.2l-8.6,3.5l-6.4-4.6l2.3-5.7l-4.5-2
			l1-3.8l-5-4L39.6,11c1.6-0.4,3.3,0.6,3.9,2.2l5.4,16C49.3,30.6,48.7,31.9,47.3,32.2z"/>
	</g>
</g>
</svg>
