<?xml version="1.0" encoding="utf-8"?>
<!-- Generator: Adobe Illustrator 21.0.2, SVG Export Plug-In . SVG Version: 6.00 Build 0)  -->
<!DOCTYPE svg PUBLIC "-//W3C//DTD SVG 1.1//EN" "http://www.w3.org/Graphics/SVG/1.1/DTD/svg11.dtd">
<svg version="1.1" id="Calque_1" xmlns="http://www.w3.org/2000/svg" xmlns:xlink="http://www.w3.org/1999/xlink" x="0px" y="0px"
	 viewBox="0 0 200 200" enable-background="new 0 0 200 200" xml:space="preserve">
<linearGradient id="SVGID_1_" gradientUnits="userSpaceOnUse" x1="21.3863" y1="99.7168" x2="178.4902" y2="99.7168">
	<stop  offset="0" style="stop-color:#6400C2"/>
	<stop  offset="0.1785" style="stop-color:#8100B0"/>
	<stop  offset="0.5617" style="stop-color:#B9008C"/>
	<stop  offset="0.8469" style="stop-color:#DC0076"/>
	<stop  offset="1" style="stop-color:#E9006E"/>
	<stop  offset="1" style="stop-color:#E5046D"/>
	<stop  offset="1" style="stop-color:#BC2D65"/>
	<stop  offset="1" style="stop-color:#97525E"/>
	<stop  offset="1" style="stop-color:#777258"/>
	<stop  offset="1" style="stop-color:#5B8D53"/>
	<stop  offset="1" style="stop-color:#45A34E"/>
	<stop  offset="1" style="stop-color:#34B44B"/>
	<stop  offset="1" style="stop-color:#29BF49"/>
	<stop  offset="1" style="stop-color:#22C647"/>
	<stop  offset="1" style="stop-color:#20C847"/>
</linearGradient>
<circle opacity="0.1" fill="url(#SVGID_1_)" cx="99.9" cy="99.7" r="78.6"/>
<linearGradient id="SVGID_2_" gradientUnits="userSpaceOnUse" x1="29.4912" y1="99.7168" x2="170.3853" y2="99.7168">
	<stop  offset="0" style="stop-color:#6400C2"/>
	<stop  offset="0.1785" style="stop-color:#8100B0"/>
	<stop  offset="0.5617" style="stop-color:#B9008C"/>
	<stop  offset="0.8469" style="stop-color:#DC0076"/>
	<stop  offset="1" style="stop-color:#E9006E"/>
	<stop  offset="1" style="stop-color:#E5046D"/>
	<stop  offset="1" style="stop-color:#BC2D65"/>
	<stop  offset="1" style="stop-color:#97525E"/>
	<stop  offset="1" style="stop-color:#777258"/>
	<stop  offset="1" style="stop-color:#5B8D53"/>
	<stop  offset="1" style="stop-color:#45A34E"/>
	<stop  offset="1" style="stop-color:#34B44B"/>
	<stop  offset="1" style="stop-color:#29BF49"/>
	<stop  offset="1" style="stop-color:#22C647"/>
	<stop  offset="1" style="stop-color:#20C847"/>
</linearGradient>
<circle fill="url(#SVGID_2_)" cx="99.9" cy="99.7" r="70.4"/>
<path opacity="0.16" d="M100,152c32.3-0.1,60.9-21.4,70.4-52.3c0,38.6-31.8,70.4-70.4,70.4c-38.3,0-70-31.3-70.4-69.6
	C39.2,131.2,67.9,152.1,100,152z"/>
<path opacity="0.16" d="M97,79.9c9,4.7,25.3-9,26.9-6.7c1,1.4-5.3,5.4-6,13.4c-0.3,3.3,0.5,5.3-0.7,6c-2,1.3-5.5-3.2-12.1-4.7
	c-3.5-0.8-6.6-0.4-8.7,0c-12.6,2.9-16.8,1.4-18.1-0.7c-1.6-2.4-3.4-11.8-3.7-12.7c0,0-0.1-0.1-0.1-0.3c-0.1-0.3-0.2-0.7-0.2-1.1
	c-0.3-5.6,7.9-12.1,12.8-10.8C92.7,64.1,90.1,76.3,97,79.9z"/>
<path opacity="0.16" d="M143.9,70.2c0.8-1.2-1.2-4.7-4.1-6.8c-3.1-2.3-5.5-1.7-6-3.1c-0.9-2.4,4-8.5,8.3-8c8,0.8,13.8,24.4,9.4,27.2
	c-1.9,1.2-4.3-2.3-8.1-1.3c-6.4,1.6-7.3,12.7-8.8,12.5c-1.8-0.3-2.1-18.2,4-20.2C140.8,69.5,143.1,71.2,143.9,70.2z"/>
<path opacity="0.16" d="M63,82c0.3,3.7-4.6,4.7-5,9c-0.6,5.9,8.3,9.7,7,13c-0.7,1.8-4.3,2.7-7,2c-4-1.1-6-6.6-9.9-17.7
	c-2.3-6.5-2.4-8.4-2.1-10.3c0.6-4.3,2.9-5,5-10c3.3-7.9,0.6-12.8,3-14c3.5-1.7,13.4,6.7,12,12c-1.1,4.2-8.8,4.4-9,8
	C56.9,77.1,62.7,78,63,82z"/>
<path opacity="0.16" d="M99,39c3.3,0.3,4.3-1.6,7.8-2.6C114,34.4,123,39,123,42c0,1.8-3.1,1.8-8.1,6.4c-3.8,3.5-3.8,5.2-5.9,5.6
	c-3.6,0.6-4.7-4.8-10-6c-5.1-1.2-7.1,3-13,2c-4.8-0.9-8.5-4.6-8-6c0.6-1.7,6.5,0.6,10-3c1.9-1.9,1.4-3.9,3.1-4.6
	C93.3,35.5,95.1,38.6,99,39z"/>
<path opacity="0.16" d="M79,112c5.7-1.5,5.6-7.3,10-9c7.4-2.9,20.5,8.6,19,13c-1,3-7.9,0.2-13,5c-6.1,5.8-3.6,16.7-6,17
	c-2.4,0.3-3.5-11.2-10-13c-4.4-1.2-6.9,3.2-13,2c-4.8-0.9-8.5-4.7-8-6c0.6-1.6,8.1,1.5,11-2c1.6-1.9,0.3-3.8,2.1-5.6
	C73,111.5,75.6,112.9,79,112z"/>
<path d="M76,91"/>
<path d="M161,58"/>
<path opacity="0.16" d="M129.7,105.3c1.7-1.9,6.4,2,9.7,0c3-1.8,1.4-6.3,3.7-7.5c3.2-1.6,12.4,3.6,12.2,11
	c-0.1,6.3-6.9,11.2-11.1,10.4c-2.6-0.5-3.4-3.1-5.5-2.8c-2,0.3-2.3,3-5,6.4c-1.1,1.4-4.7,6-8,5.8c-5.7-0.4-10.3-15.2-7-17.8
	c2.5-2,9.1,3.5,11.1,1.4C131.1,110.7,128.2,107,129.7,105.3z"/>
</svg>
