<?xml version="1.0" encoding="utf-8"?>
<!-- Generator: Adobe Illustrator 20.1.0, SVG Export Plug-In . SVG Version: 6.00 Build 0)  -->
<svg version="1.1" id="Layer_1" xmlns="http://www.w3.org/2000/svg" xmlns:xlink="http://www.w3.org/1999/xlink" x="0px" y="0px"
	 viewBox="0 0 569 560" style="enable-background:new 0 0 569 560;" xml:space="preserve">
<style type="text/css">
    @import url('https://fonts.googleapis.com/css?family=Lato:100,100i,300,300i,400,400i,700,700i,900,900i');
	.st0{fill:#405CA9;}
	.st1{fill:#E54253;}
	.st2{fill:none;}
	.st3{fill:#FFFFFF;}
	.st4{font-family:'Lato';}
	.st5{font-size:37px;}
</style>
<circle class="st0" cx="278.4" cy="250" r="221.1"/>
<path class="st1" d="M426.7,349.5h84.4c2.4,0,4.3,2.4,4.3,5.4v0c0,3-1.9,5.4-4.3,5.4H39.7c-2.4,0-4.3-2.4-4.3-5.4v0
	c0-3,1.9-5.4,4.3-5.4h196.5"/>
<line x1="252.6" y1="358" x2="422.2" y2="356.1"/>
<rect x="166.1" y="375.5" class="st2" width="509" height="184.9"/>
<text transform="matrix(1 0 0 1 166.1442 402.9122)" class="st3 st4 st5">je m’investis !</text>
<path class="st3" d="M215.7,354.2c-78.9-131.6-93.2-207.8-93.2-207.8l208.7-93.1C386.9,212,472.6,320,472.6,320l-53.7,34.9"/>
<g>
	<path class="st0" d="M224.4,144.6h6.7v31.7c0,1,0.2,1.7,0.6,2.1s1.1,0.7,2.2,0.7c0.4,0,0.8,0,1-0.1v5.9c-1.1,0.3-2.1,0.4-2.9,0.4
		c-2.5,0-4.3-0.7-5.6-2c-1.3-1.3-2-3.2-2-5.6V144.6z"/>
	<path class="st0" d="M238.5,166.8c0.6-1.6,1.5-3.1,2.6-4.3c1.1-1.2,2.5-2.2,4.2-3c1.7-0.7,3.5-1.1,5.5-1.1c2.5,0,4.7,0.6,6.7,1.9
		c2,1.2,3.5,2.9,4.6,4.9c1.1,2,1.6,4.3,1.6,6.7c0,0.8-0.1,1.5-0.2,2.1h-19.6c0.4,1.6,1.2,2.9,2.5,3.9c1.3,1,2.8,1.5,4.7,1.5
		c1.2,0,2.4-0.2,3.5-0.7s2.1-1.2,2.8-2.1l4.6,3.6c-1.2,1.6-2.7,2.9-4.6,3.9s-4,1.4-6.2,1.4c-2.5,0-4.9-0.6-7-1.7s-3.7-2.8-4.9-4.8
		c-1.2-2-1.8-4.3-1.8-6.8C237.6,170.2,237.9,168.5,238.5,166.8z M257.1,169.1c-0.2-1.3-0.9-2.4-2.1-3.3c-1.2-0.9-2.6-1.3-4.2-1.3
		c-1.5,0-2.9,0.4-4,1.3c-1.2,0.8-2,2-2.5,3.3H257.1z"/>
	<path class="st0" d="M190.9,249.8c1.5,0,2.7-0.1,3.8-0.3c1.1-0.2,2-0.5,2.8-0.8c0.8-0.4,1.5-0.9,2-1.6c0.5-0.7,0.9-1.4,1.3-2.2
		c0.3-0.7,0.6-1.7,0.7-3c0.2-1.3,0.3-2.5,0.3-3.7c0.1-1.2,0.1-2.8,0.1-4.7v-61.2h12v60.2c0,5.1-0.2,9.1-0.6,12
		c-0.4,2.9-1.3,5.5-2.7,7.8c-1.7,2.8-4.1,4.9-7.3,6.3c-3.1,1.4-7.3,2.2-12.6,2.2h-0.5v-11H190.9z"/>
	<path class="st0" d="M230.8,202.5c4.5-4.4,10-6.6,16.4-6.6c4.2,0,8.2,1,11.7,3c3.6,2,6.4,4.8,8.4,8.3s3.1,7.3,3.1,11.5
		c0,4.1-1,7.9-3.1,11.5s-4.9,6.3-8.4,8.3c-3.6,2-7.5,3.1-11.7,3.1c-4.2,0-8.1-1-11.7-3.1c-3.6-2-6.4-4.8-8.4-8.3
		c-2-3.5-3.1-7.3-3.1-11.5C224,212.3,226.3,206.9,230.8,202.5z M238.6,227.1c2.4,2.4,5.2,3.6,8.5,3.6c3.3,0,6.2-1.2,8.6-3.6
		s3.5-5.2,3.5-8.5c0-3.2-1.2-6-3.5-8.4c-2.4-2.4-5.2-3.6-8.6-3.6c-3.3,0-6.1,1.2-8.5,3.6c-2.4,2.4-3.6,5.2-3.6,8.4
		C235.1,221.9,236.3,224.7,238.6,227.1z"/>
	<path class="st0" d="M279.5,196.7h11.3v22.6c0,4,0.6,6.9,1.9,8.7c1.2,1.8,3.7,2.7,7.3,2.7s6.1-0.9,7.3-2.7c1.2-1.8,1.9-4.7,1.9-8.7
		v-22.6h11.3v25.7c0,6.6-1.8,11.4-5.4,14.5c-3.6,3.1-8.6,4.7-15.1,4.7c-6.5,0-11.5-1.6-15.1-4.7c-3.6-3.1-5.4-8-5.4-14.5V196.7z"/>
	<path class="st0" d="M333.4,196.7h11.3v3.2c2.1-1.6,4.3-2.6,6.8-3.2c2.4-0.6,5.7-0.9,10-0.9v10.8c-2.8,0-5.3,0.2-7.3,0.5
		s-3.6,0.8-4.9,1.4s-2.2,1.4-2.9,2.4s-1.2,2.1-1.4,3.2c-0.2,1.1-0.4,2.5-0.4,4.1v22.1h-11.3V196.7z"/>
	<path class="st0" d="M203.8,268.1c2.9-2.9,6.5-4.3,10.6-4.3c3,0,5.6,0.9,7.8,2.6v-17.9h7.3v44.1h-7.3v-1.8
		c-2.2,1.7-4.8,2.6-7.8,2.6c-2.7,0-5.3-0.7-7.6-2s-4.1-3.1-5.4-5.4c-1.3-2.3-2-4.8-2-7.4C199.4,274.4,200.9,270.9,203.8,268.1z
		 M208.9,284c1.5,1.5,3.4,2.3,5.5,2.3c2.2,0,4-0.8,5.6-2.3c1.5-1.5,2.3-3.4,2.3-5.5c0-2.1-0.8-3.9-2.3-5.4c-1.5-1.5-3.4-2.3-5.6-2.3
		c-2.1,0-4,0.8-5.5,2.3c-1.5,1.5-2.3,3.4-2.3,5.4C206.6,280.6,207.4,282.5,208.9,284z"/>
	<path class="st0" d="M237.9,264.3h7.3v14.6c0,2.6,0.4,4.5,1.2,5.6c0.8,1.2,2.4,1.7,4.8,1.7c2.4,0,3.9-0.6,4.8-1.7
		c0.8-1.2,1.2-3,1.2-5.6v-14.6h7.3v16.6c0,4.3-1.2,7.4-3.5,9.4c-2.3,2-5.6,3-9.8,3c-4.2,0-7.4-1-9.8-3c-2.3-2-3.5-5.2-3.5-9.4V264.3
		z"/>
	<path class="st0" d="M279.4,247.4l15.4,41.2l15.3-41.2h10.3l-20.7,52.9h-9.8l-20.8-52.9H279.4z"/>
	<path class="st0" d="M326,270.9c3.5-3.4,7.7-5.2,12.7-5.2c3.3,0,6.3,0.8,9.1,2.4c2.8,1.6,5,3.7,6.6,6.4c1.6,2.7,2.4,5.7,2.4,8.9
		c0,3.2-0.8,6.2-2.4,8.9c-1.6,2.7-3.8,4.9-6.6,6.5c-2.8,1.6-5.8,2.4-9.1,2.4c-3.3,0-6.3-0.8-9.1-2.4c-2.8-1.6-4.9-3.8-6.5-6.5
		c-1.6-2.7-2.4-5.7-2.4-8.9C320.8,278.5,322.5,274.3,326,270.9z M332.2,290c1.8,1.8,4.1,2.8,6.6,2.8c2.6,0,4.8-0.9,6.7-2.8
		c1.8-1.8,2.8-4,2.8-6.6c0-2.5-0.9-4.7-2.8-6.5c-1.8-1.8-4.1-2.8-6.7-2.8c-2.6,0-4.8,0.9-6.6,2.8s-2.8,4-2.8,6.5
		C329.4,286,330.3,288.1,332.2,290z"/>
	<path class="st0" d="M360,266.3h5.4v-11.5h8.8v11.5h9v8.4h-9v13.6c0,3,1.3,4.6,3.8,4.6c0.7,0,1.3,0,2-0.1c0.7-0.1,1.3-0.1,1.7-0.2
		l0.6-0.1v7.8c-1.7,0.6-4,0.9-6.8,0.9c-3.2,0-5.7-1-7.4-3c-1.7-2-2.6-4.7-2.6-8.1v-15.4H360V266.3z"/>
	<path class="st0" d="M389.4,276.8c0.8-2.2,2-4.1,3.5-5.7c1.5-1.6,3.3-2.9,5.6-3.9c2.2-1,4.6-1.4,7.3-1.4c3.3,0,6.2,0.8,8.8,2.4
		c2.6,1.6,4.7,3.8,6.1,6.5c1.4,2.7,2.2,5.6,2.2,8.8c0,1-0.1,1.9-0.2,2.8h-25.9c0.5,2.1,1.6,3.8,3.3,5.1c1.7,1.3,3.7,1.9,6.2,1.9
		c1.6,0,3.2-0.3,4.7-0.9c1.5-0.6,2.7-1.6,3.7-2.8l6,4.8c-1.5,2.2-3.6,3.9-6.1,5.1c-2.5,1.2-5.3,1.8-8.2,1.8c-3.3,0-6.4-0.8-9.2-2.3
		c-2.8-1.5-4.9-3.7-6.5-6.3c-1.6-2.7-2.4-5.7-2.4-8.9C388.1,281.2,388.6,278.9,389.4,276.8z M413.9,279.8c-0.3-1.7-1.2-3.2-2.8-4.3
		c-1.6-1.2-3.4-1.7-5.5-1.7c-2,0-3.8,0.6-5.3,1.7s-2.6,2.6-3.3,4.4H413.9z"/>
</g>
</svg>
